<svg xmlns="http://www.w3.org/2000/svg" xmlns:xlink="http://www.w3.org/1999/xlink" width="850" zoomAndPan="magnify" viewBox="0 0 637.5 165.000002" height="220" preserveAspectRatio="xMidYMid meet" version="1.0"><defs><g/></defs><g fill="#ffffff" fill-opacity="1"><g transform="translate(61.205402, 110.207203)"><g><path d="M 49.765625 -22.40625 C 51.378906 -22.40625 52.609375 -22.070312 53.453125 -21.40625 C 54.296875 -20.738281 54.71875 -19.796875 54.71875 -18.578125 C 54.71875 -18.054688 54.628906 -17.476562 54.453125 -16.84375 L 51.578125 -6.6875 C 50.828125 -4.195312 49.769531 -2.457031 48.40625 -1.46875 C 47.050781 -0.488281 45.039062 0 42.375 0 L 1.5625 0 C 0.34375 0 -0.597656 -0.203125 -1.265625 -0.609375 C -1.929688 -1.015625 -2.265625 -1.566406 -2.265625 -2.265625 C -2.265625 -2.609375 -2.175781 -2.984375 -2 -3.390625 C -1.820312 -3.847656 -1.53125 -4.234375 -1.125 -4.546875 C -0.71875 -4.867188 -0.285156 -5.175781 0.171875 -5.46875 C 1.097656 -6.050781 1.847656 -6.644531 2.421875 -7.25 C 3.003906 -7.851562 3.5 -8.851562 3.90625 -10.25 L 14.5 -47.671875 C 14.726562 -48.429688 14.84375 -49.15625 14.84375 -49.84375 C 14.84375 -50.476562 14.742188 -51.015625 14.546875 -51.453125 C 14.347656 -51.890625 14.070312 -52.394531 13.71875 -52.96875 C 13.195312 -53.726562 12.9375 -54.335938 12.9375 -54.796875 C 12.9375 -54.972656 12.992188 -55.289062 13.109375 -55.75 C 13.335938 -56.5 13.84375 -57.035156 14.625 -57.359375 C 15.414062 -57.679688 16.617188 -57.84375 18.234375 -57.84375 L 38.640625 -57.84375 C 39.859375 -57.84375 40.800781 -57.648438 41.46875 -57.265625 C 42.132812 -56.890625 42.46875 -56.359375 42.46875 -55.671875 C 42.46875 -55.378906 42.378906 -55 42.203125 -54.53125 C 42.035156 -54.132812 41.789062 -53.773438 41.46875 -53.453125 C 41.144531 -53.128906 40.851562 -52.894531 40.59375 -52.75 C 40.332031 -52.613281 40.144531 -52.484375 40.03125 -52.359375 C 39.101562 -51.835938 38.347656 -51.257812 37.765625 -50.625 C 37.191406 -49.988281 36.703125 -49.003906 36.296875 -47.671875 L 25.09375 -8.34375 L 30.484375 -8.34375 C 31.816406 -8.34375 32.957031 -8.570312 33.90625 -9.03125 C 34.863281 -9.488281 35.863281 -10.359375 36.90625 -11.640625 L 42.90625 -18.765625 C 44 -20.035156 45.050781 -20.957031 46.0625 -21.53125 C 47.082031 -22.113281 48.316406 -22.40625 49.765625 -22.40625 Z M 49.765625 -22.40625 "/></g></g></g><g fill="#ffffff" fill-opacity="1"><g transform="translate(117.743816, 110.207203)"><g><path d="M 22.84375 -45.9375 C 26.195312 -45.9375 28.65625 -45.300781 30.21875 -44.03125 C 31.789062 -42.757812 32.578125 -41.019531 32.578125 -38.8125 C 32.578125 -37.488281 32.375 -36.21875 31.96875 -35 L 23.96875 -9.03125 C 23.800781 -8.332031 23.71875 -7.722656 23.71875 -7.203125 C 23.71875 -6.453125 23.859375 -5.859375 24.140625 -5.421875 C 24.429688 -4.992188 24.835938 -4.578125 25.359375 -4.171875 C 25.765625 -3.765625 26.054688 -3.429688 26.234375 -3.171875 C 26.410156 -2.910156 26.4375 -2.578125 26.3125 -2.171875 C 26.03125 -1.421875 25.453125 -0.867188 24.578125 -0.515625 C 23.710938 -0.171875 22.382812 0 20.59375 0 L 0.78125 0 C -0.71875 0 -1.816406 -0.242188 -2.515625 -0.734375 C -3.210938 -1.222656 -3.441406 -1.875 -3.203125 -2.6875 C -2.972656 -3.382812 -2.367188 -3.992188 -1.390625 -4.515625 C -0.515625 -4.972656 0.207031 -5.519531 0.78125 -6.15625 C 1.363281 -6.800781 1.859375 -7.816406 2.265625 -9.203125 L 9.8125 -34.296875 C 9.988281 -34.816406 10.078125 -35.253906 10.078125 -35.609375 C 10.078125 -36.242188 9.929688 -36.75 9.640625 -37.125 C 9.347656 -37.5 8.914062 -37.890625 8.34375 -38.296875 C 7.757812 -38.765625 7.351562 -39.171875 7.125 -39.515625 C 6.894531 -39.859375 6.867188 -40.320312 7.046875 -40.90625 C 7.390625 -42.238281 9.207031 -43.410156 12.5 -44.421875 C 15.800781 -45.429688 19.25 -45.9375 22.84375 -45.9375 Z M 28.671875 -65.125 C 30.921875 -65.125 32.796875 -64.382812 34.296875 -62.90625 C 35.804688 -61.4375 36.5625 -59.628906 36.5625 -57.484375 C 36.5625 -55.984375 36.171875 -54.507812 35.390625 -53.0625 C 34.609375 -51.613281 33.507812 -50.441406 32.09375 -49.546875 C 30.675781 -48.648438 29.097656 -48.203125 27.359375 -48.203125 C 25.160156 -48.203125 23.320312 -48.9375 21.84375 -50.40625 C 20.375 -51.882812 19.609375 -53.722656 19.546875 -55.921875 C 19.546875 -57.367188 19.921875 -58.800781 20.671875 -60.21875 C 21.421875 -61.644531 22.488281 -62.816406 23.875 -63.734375 C 25.269531 -64.660156 26.867188 -65.125 28.671875 -65.125 Z M 28.671875 -65.125 "/></g></g></g><g fill="#ffffff" fill-opacity="1"><g transform="translate(149.530391, 110.207203)"><g><path d="M 42.375 -45.9375 C 45.445312 -45.9375 47.992188 -44.835938 50.015625 -42.640625 C 52.046875 -40.441406 53.0625 -37.429688 53.0625 -33.609375 C 53.0625 -28.453125 51.265625 -23.179688 47.671875 -17.796875 C 44.085938 -12.410156 39.546875 -7.96875 34.046875 -4.46875 C 28.546875 -0.96875 23.191406 0.78125 17.984375 0.78125 C 13.003906 0.78125 8.960938 -0.226562 5.859375 -2.25 C 2.765625 -4.28125 1.21875 -7.175781 1.21875 -10.9375 C 1.21875 -12.332031 1.476562 -13.894531 2 -15.625 L 7.46875 -34.296875 C 7.582031 -34.765625 7.640625 -35.113281 7.640625 -35.34375 C 7.640625 -35.925781 7.492188 -36.414062 7.203125 -36.8125 C 6.921875 -37.21875 6.519531 -37.65625 6 -38.125 C 5.125 -38.875 4.6875 -39.539062 4.6875 -40.125 C 4.632812 -40.9375 5.128906 -41.800781 6.171875 -42.71875 C 7.210938 -43.644531 8.671875 -44.410156 10.546875 -45.015625 C 12.429688 -45.628906 14.5625 -45.9375 16.9375 -45.9375 C 20.8125 -45.9375 23.832031 -44.992188 26 -43.109375 C 28.175781 -41.234375 29.265625 -38.789062 29.265625 -35.78125 C 29.265625 -34.445312 29.035156 -33 28.578125 -31.4375 L 22.921875 -12.859375 C 22.753906 -12.335938 22.671875 -11.898438 22.671875 -11.546875 C 22.671875 -10.796875 22.929688 -10.21875 23.453125 -9.8125 C 23.972656 -9.40625 24.695312 -9.203125 25.625 -9.203125 C 26.894531 -9.203125 28.382812 -9.765625 30.09375 -10.890625 C 31.800781 -12.023438 33.492188 -13.648438 35.171875 -15.765625 C 36.847656 -17.878906 38.207031 -20.382812 39.25 -23.28125 C 36.9375 -25.300781 35.300781 -27.296875 34.34375 -29.265625 C 33.382812 -31.234375 32.90625 -33.257812 32.90625 -35.34375 C 32.90625 -38.300781 33.71875 -40.804688 35.34375 -42.859375 C 36.96875 -44.910156 39.3125 -45.9375 42.375 -45.9375 Z M 42.375 -45.9375 "/></g></g></g><g fill="#ffffff" fill-opacity="1"><g transform="translate(201.552688, 110.207203)"><g><path d="M 29.4375 -46.375 C 36.789062 -46.375 42.117188 -45.203125 45.421875 -42.859375 C 48.722656 -40.515625 50.375 -37.519531 50.375 -33.875 C 50.375 -32.769531 50.253906 -31.753906 50.015625 -30.828125 C 49.148438 -27.003906 46.734375 -24.265625 42.765625 -22.609375 C 38.804688 -20.960938 34.132812 -20.140625 28.75 -20.140625 C 26.019531 -20.140625 23.472656 -20.316406 21.109375 -20.671875 C 21.046875 -17.660156 21.851562 -15.546875 23.53125 -14.328125 C 25.207031 -13.109375 27.550781 -12.5 30.5625 -12.5 C 31.957031 -12.5 33.289062 -12.65625 34.5625 -12.96875 C 35.832031 -13.289062 37.453125 -13.773438 39.421875 -14.421875 C 41.046875 -14.992188 42.148438 -15.28125 42.734375 -15.28125 C 43.367188 -15.28125 43.6875 -14.90625 43.6875 -14.15625 C 43.738281 -12.125 42.984375 -9.992188 41.421875 -7.765625 C 39.859375 -5.535156 37.539062 -3.640625 34.46875 -2.078125 C 31.40625 -0.515625 27.703125 0.265625 23.359375 0.265625 C 16.929688 0.265625 11.660156 -1.351562 7.546875 -4.59375 C 3.441406 -7.84375 1.390625 -12.566406 1.390625 -18.765625 C 1.390625 -20.492188 1.617188 -22.519531 2.078125 -24.84375 C 3.523438 -31.957031 6.695312 -37.320312 11.59375 -40.9375 C 16.488281 -44.5625 22.4375 -46.375 29.4375 -46.375 Z M 21.703125 -25.875 C 21.941406 -25.820312 22.265625 -25.796875 22.671875 -25.796875 C 25.097656 -25.796875 26.945312 -26.921875 28.21875 -29.171875 C 29.5 -31.429688 30.109375 -33.953125 30.046875 -36.734375 C 29.992188 -38.359375 29.53125 -39.171875 28.65625 -39.171875 C 28.019531 -39.171875 27.265625 -38.660156 26.390625 -37.640625 C 25.523438 -36.628906 24.671875 -35.109375 23.828125 -33.078125 C 22.992188 -31.054688 22.285156 -28.65625 21.703125 -25.875 Z M 21.703125 -25.875 "/></g></g></g><g fill="#ffffff" fill-opacity="1"><g transform="translate(250.187886, 110.207203)"><g/></g></g><g fill="#ffffff" fill-opacity="1"><g transform="translate(267.557605, 110.207203)"><g><path d="M 67.65625 -57.84375 C 70.03125 -57.84375 71.21875 -57.085938 71.21875 -55.578125 C 71.21875 -55.171875 71.1875 -54.882812 71.125 -54.71875 C 70.945312 -54.132812 70.6875 -53.679688 70.34375 -53.359375 C 70 -53.046875 69.503906 -52.6875 68.859375 -52.28125 C 67.992188 -51.757812 67.269531 -51.179688 66.6875 -50.546875 C 66.113281 -49.910156 65.625 -48.925781 65.21875 -47.59375 L 54.453125 -9.03125 C 53.460938 -5.5625 52.226562 -3.128906 50.75 -1.734375 C 49.28125 -0.347656 47.242188 0.34375 44.640625 0.34375 C 42.316406 0.34375 40.390625 -0.332031 38.859375 -1.6875 C 37.328125 -3.050781 35.894531 -5.148438 34.5625 -7.984375 L 21.453125 -35.609375 L 14.15625 -10.25 C 13.976562 -9.5 13.890625 -8.832031 13.890625 -8.25 C 13.890625 -7.5 14.019531 -6.875 14.28125 -6.375 C 14.539062 -5.882812 14.90625 -5.378906 15.375 -4.859375 C 16.007812 -4.109375 16.328125 -3.472656 16.328125 -2.953125 C 16.328125 -2.609375 16.296875 -2.347656 16.234375 -2.171875 C 16.003906 -1.359375 15.484375 -0.789062 14.671875 -0.46875 C 13.859375 -0.15625 12.644531 0 11.03125 0 L 1.5625 0 C -0.8125 0 -2 -0.753906 -2 -2.265625 C -2 -2.660156 -1.96875 -2.945312 -1.90625 -3.125 C -1.738281 -3.707031 -1.476562 -4.15625 -1.125 -4.46875 C -0.78125 -4.789062 -0.289062 -5.15625 0.34375 -5.5625 C 1.21875 -6.082031 1.941406 -6.660156 2.515625 -7.296875 C 3.097656 -7.929688 3.59375 -8.914062 4 -10.25 L 15.03125 -49.234375 L 13.640625 -52.109375 C 13.054688 -53.265625 12.765625 -54.273438 12.765625 -55.140625 C 12.765625 -56.941406 13.921875 -57.84375 16.234375 -57.84375 L 29.09375 -57.84375 C 30.945312 -57.84375 32.347656 -57.421875 33.296875 -56.578125 C 34.253906 -55.734375 35.285156 -54.242188 36.390625 -52.109375 L 49.0625 -26.65625 L 55.0625 -47.59375 C 55.226562 -48.40625 55.3125 -49.070312 55.3125 -49.59375 C 55.3125 -50.34375 55.179688 -50.960938 54.921875 -51.453125 C 54.660156 -51.941406 54.300781 -52.445312 53.84375 -52.96875 C 53.207031 -53.726562 52.890625 -54.367188 52.890625 -54.890625 C 52.890625 -55.234375 52.914062 -55.492188 52.96875 -55.671875 C 53.207031 -56.472656 53.726562 -57.035156 54.53125 -57.359375 C 55.34375 -57.679688 56.5625 -57.84375 58.1875 -57.84375 Z M 67.65625 -57.84375 "/></g></g></g><g fill="#ffffff" fill-opacity="1"><g transform="translate(330.69652, 110.207203)"><g><path d="M 31 -45.9375 C 37.65625 -45.9375 42.976562 -44.707031 46.96875 -42.25 C 50.96875 -39.789062 52.96875 -36.039062 52.96875 -31 C 52.96875 -29.09375 52.625 -26.921875 51.9375 -24.484375 L 48.375 -12.5 C 48.3125 -12.269531 48.28125 -11.984375 48.28125 -11.640625 C 48.28125 -10.710938 48.660156 -10.25 49.421875 -10.25 C 50.109375 -10.25 50.695312 -10.550781 51.1875 -11.15625 C 51.6875 -11.769531 52.019531 -12.078125 52.1875 -12.078125 C 52.476562 -12.078125 52.722656 -11.875 52.921875 -11.46875 C 53.128906 -11.0625 53.234375 -10.597656 53.234375 -10.078125 C 53.296875 -8.515625 52.703125 -6.921875 51.453125 -5.296875 C 50.210938 -3.671875 48.546875 -2.335938 46.453125 -1.296875 C 44.367188 -0.253906 42.082031 0.265625 39.59375 0.265625 C 36.582031 0.265625 34.003906 -0.285156 31.859375 -1.390625 C 29.722656 -2.492188 28.25 -4.113281 27.4375 -6.25 C 25.707031 -4.164062 23.65625 -2.554688 21.28125 -1.421875 C 18.90625 -0.296875 16.359375 0.265625 13.640625 0.265625 C 10.566406 0.265625 7.988281 -0.328125 5.90625 -1.515625 C 3.820312 -2.703125 2.269531 -4.234375 1.25 -6.109375 C 0.238281 -7.992188 -0.265625 -9.984375 -0.265625 -12.078125 C -0.265625 -12.992188 -0.175781 -13.890625 0 -14.765625 C 0.925781 -18.753906 2.9375 -21.757812 6.03125 -23.78125 C 9.132812 -25.8125 12.828125 -26.828125 17.109375 -26.828125 C 21.910156 -26.828125 26.628906 -26.078125 31.265625 -24.578125 L 33.4375 -30.3125 C 34.1875 -32.738281 34.5625 -34.617188 34.5625 -35.953125 C 34.507812 -37.335938 34.046875 -38.378906 33.171875 -39.078125 C 32.304688 -39.773438 30.972656 -40.125 29.171875 -40.125 C 29.523438 -39.195312 29.703125 -38.238281 29.703125 -37.25 C 29.703125 -35.113281 28.890625 -33.265625 27.265625 -31.703125 C 25.648438 -30.140625 23.335938 -29.359375 20.328125 -29.359375 C 17.484375 -29.359375 15.265625 -29.976562 13.671875 -31.21875 C 12.085938 -32.46875 11.296875 -34.015625 11.296875 -35.859375 C 11.296875 -38.753906 12.914062 -41.15625 16.15625 -43.0625 C 19.394531 -44.976562 24.34375 -45.9375 31 -45.9375 Z M 26.140625 -19.625 C 24.515625 -19.625 23.195312 -19 22.1875 -17.75 C 21.175781 -16.507812 20.671875 -15.164062 20.671875 -13.71875 C 20.671875 -12.789062 20.882812 -12.035156 21.3125 -11.453125 C 21.75 -10.878906 22.375 -10.59375 23.1875 -10.59375 C 23.9375 -10.59375 24.757812 -10.894531 25.65625 -11.5 C 26.5625 -12.113281 27.210938 -13.03125 27.609375 -14.25 L 29.4375 -19.359375 C 28.457031 -19.535156 27.359375 -19.625 26.140625 -19.625 Z M 26.140625 -19.625 "/></g></g></g><g fill="#ffffff" fill-opacity="1"><g transform="translate(387.49547, 110.207203)"><g><path d="M 38.8125 -44.8125 C 39.914062 -44.8125 40.769531 -44.578125 41.375 -44.109375 C 41.988281 -43.648438 42.296875 -43.015625 42.296875 -42.203125 C 42.296875 -41.972656 42.238281 -41.566406 42.125 -40.984375 C 41.363281 -38.441406 39.625 -37.171875 36.90625 -37.171875 L 31.875 -37.171875 L 25.359375 -15.71875 C 25.066406 -14.851562 24.921875 -13.957031 24.921875 -13.03125 C 24.921875 -11.988281 25.207031 -11.265625 25.78125 -10.859375 C 26.363281 -10.453125 27.175781 -10.25 28.21875 -10.25 C 29.144531 -10.25 30.304688 -10.363281 31.703125 -10.59375 C 32.390625 -10.769531 32.992188 -10.859375 33.515625 -10.859375 C 33.921875 -10.859375 34.222656 -10.726562 34.421875 -10.46875 C 34.628906 -10.207031 34.734375 -9.875 34.734375 -9.46875 C 34.796875 -8.3125 33.941406 -6.90625 32.171875 -5.25 C 30.410156 -3.601562 28.023438 -2.1875 25.015625 -1 C 22.003906 0.1875 18.675781 0.78125 15.03125 0.78125 C 11.09375 0.78125 7.9375 -0.113281 5.5625 -1.90625 C 3.1875 -3.707031 2 -6.171875 2 -9.296875 C 2 -10.742188 2.226562 -12.128906 2.6875 -13.453125 L 8.25 -30.65625 C 8.539062 -31.632812 8.6875 -32.414062 8.6875 -33 C 8.6875 -34.15625 8.410156 -35.140625 7.859375 -35.953125 C 7.304688 -36.765625 6.539062 -37.601562 5.5625 -38.46875 C 4.6875 -39.28125 4.078125 -39.960938 3.734375 -40.515625 C 3.390625 -41.066406 3.300781 -41.71875 3.46875 -42.46875 C 3.707031 -43.21875 4.203125 -43.796875 4.953125 -44.203125 C 5.703125 -44.609375 6.890625 -44.8125 8.515625 -44.8125 L 13.375 -44.8125 L 18.84375 -50.28125 C 20.75 -52.1875 22.5 -53.515625 24.09375 -54.265625 C 25.6875 -55.023438 27.757812 -55.40625 30.3125 -55.40625 C 33.957031 -55.40625 35.78125 -54.015625 35.78125 -51.234375 C 35.78125 -50.367188 35.664062 -49.5625 35.4375 -48.8125 L 34.21875 -44.8125 Z M 38.8125 -44.8125 "/></g></g></g><g fill="#ffffff" fill-opacity="1"><g transform="translate(424.840365, 110.207203)"><g><path d="M 22.84375 -45.9375 C 26.195312 -45.9375 28.65625 -45.300781 30.21875 -44.03125 C 31.789062 -42.757812 32.578125 -41.019531 32.578125 -38.8125 C 32.578125 -37.488281 32.375 -36.21875 31.96875 -35 L 23.96875 -9.03125 C 23.800781 -8.332031 23.71875 -7.722656 23.71875 -7.203125 C 23.71875 -6.453125 23.859375 -5.859375 24.140625 -5.421875 C 24.429688 -4.992188 24.835938 -4.578125 25.359375 -4.171875 C 25.765625 -3.765625 26.054688 -3.429688 26.234375 -3.171875 C 26.410156 -2.910156 26.4375 -2.578125 26.3125 -2.171875 C 26.03125 -1.421875 25.453125 -0.867188 24.578125 -0.515625 C 23.710938 -0.171875 22.382812 0 20.59375 0 L 0.78125 0 C -0.71875 0 -1.816406 -0.242188 -2.515625 -0.734375 C -3.210938 -1.222656 -3.441406 -1.875 -3.203125 -2.6875 C -2.972656 -3.382812 -2.367188 -3.992188 -1.390625 -4.515625 C -0.515625 -4.972656 0.207031 -5.519531 0.78125 -6.15625 C 1.363281 -6.800781 1.859375 -7.816406 2.265625 -9.203125 L 9.8125 -34.296875 C 9.988281 -34.816406 10.078125 -35.253906 10.078125 -35.609375 C 10.078125 -36.242188 9.929688 -36.75 9.640625 -37.125 C 9.347656 -37.5 8.914062 -37.890625 8.34375 -38.296875 C 7.757812 -38.765625 7.351562 -39.171875 7.125 -39.515625 C 6.894531 -39.859375 6.867188 -40.320312 7.046875 -40.90625 C 7.390625 -42.238281 9.207031 -43.410156 12.5 -44.421875 C 15.800781 -45.429688 19.25 -45.9375 22.84375 -45.9375 Z M 28.671875 -65.125 C 30.921875 -65.125 32.796875 -64.382812 34.296875 -62.90625 C 35.804688 -61.4375 36.5625 -59.628906 36.5625 -57.484375 C 36.5625 -55.984375 36.171875 -54.507812 35.390625 -53.0625 C 34.609375 -51.613281 33.507812 -50.441406 32.09375 -49.546875 C 30.675781 -48.648438 29.097656 -48.203125 27.359375 -48.203125 C 25.160156 -48.203125 23.320312 -48.9375 21.84375 -50.40625 C 20.375 -51.882812 19.609375 -53.722656 19.546875 -55.921875 C 19.546875 -57.367188 19.921875 -58.800781 20.671875 -60.21875 C 21.421875 -61.644531 22.488281 -62.816406 23.875 -63.734375 C 25.269531 -64.660156 26.867188 -65.125 28.671875 -65.125 Z M 28.671875 -65.125 "/></g></g></g><g fill="#ffffff" fill-opacity="1"><g transform="translate(456.626951, 110.207203)"><g><path d="M 33.609375 -45.9375 C 41.484375 -45.9375 47.285156 -44.34375 51.015625 -41.15625 C 54.753906 -37.976562 56.625 -33.8125 56.625 -28.65625 C 56.625 -26.914062 56.390625 -24.976562 55.921875 -22.84375 C 54.828125 -18.09375 52.773438 -13.9375 49.765625 -10.375 C 46.753906 -6.8125 43.0625 -4.0625 38.6875 -2.125 C 34.3125 -0.1875 29.578125 0.78125 24.484375 0.78125 C 16.441406 0.78125 10.492188 -0.820312 6.640625 -4.03125 C 2.796875 -7.25 0.875 -11.519531 0.875 -16.84375 C 0.875 -18.644531 1.101562 -20.644531 1.5625 -22.84375 C 2.664062 -27.351562 4.765625 -31.359375 7.859375 -34.859375 C 10.953125 -38.367188 14.742188 -41.09375 19.234375 -43.03125 C 23.722656 -44.96875 28.515625 -45.9375 33.609375 -45.9375 Z M 33.34375 -38.21875 C 32.132812 -38.21875 30.847656 -37.128906 29.484375 -34.953125 C 28.117188 -32.785156 26.507812 -28.691406 24.65625 -22.671875 C 22.8125 -16.648438 21.890625 -12.421875 21.890625 -9.984375 C 21.890625 -8.710938 22.085938 -7.859375 22.484375 -7.421875 C 22.890625 -6.992188 23.441406 -6.78125 24.140625 -6.78125 C 25.359375 -6.65625 26.617188 -7.691406 27.921875 -9.890625 C 29.222656 -12.097656 30.859375 -16.382812 32.828125 -22.75 C 34.617188 -28.363281 35.515625 -32.445312 35.515625 -35 C 35.515625 -36.21875 35.328125 -37.054688 34.953125 -37.515625 C 34.578125 -37.984375 34.039062 -38.21875 33.34375 -38.21875 Z M 33.34375 -38.21875 "/></g></g></g><g fill="#ffffff" fill-opacity="1"><g transform="translate(513.599623, 110.207203)"><g><path d="M 53.75 -11.984375 C 53.632812 -11.753906 53.578125 -11.40625 53.578125 -10.9375 C 53.578125 -10.53125 53.675781 -10.210938 53.875 -9.984375 C 54.082031 -9.753906 54.363281 -9.640625 54.71875 -9.640625 C 55.40625 -9.640625 55.992188 -9.941406 56.484375 -10.546875 C 56.984375 -11.160156 57.316406 -11.46875 57.484375 -11.46875 C 57.773438 -11.46875 58.007812 -11.273438 58.1875 -10.890625 C 58.363281 -10.515625 58.453125 -10.066406 58.453125 -9.546875 C 58.503906 -7.867188 57.953125 -6.234375 56.796875 -4.640625 C 55.640625 -3.054688 53.945312 -1.753906 51.71875 -0.734375 C 49.488281 0.273438 46.8125 0.78125 43.6875 0.78125 C 39.863281 0.78125 36.820312 -0.0976562 34.5625 -1.859375 C 32.300781 -3.628906 31.144531 -5.988281 31.09375 -8.9375 C 31.09375 -11.082031 31.613281 -13.488281 32.65625 -16.15625 L 37.421875 -28.65625 C 37.710938 -29.40625 37.859375 -30.015625 37.859375 -30.484375 C 37.859375 -31.234375 37.613281 -31.820312 37.125 -32.25 C 36.632812 -32.6875 36.039062 -32.90625 35.34375 -32.90625 C 34.070312 -32.90625 32.859375 -32.3125 31.703125 -31.125 C 30.546875 -29.945312 29.703125 -28.488281 29.171875 -26.75 L 23.796875 -9.03125 C 23.566406 -8.394531 23.453125 -7.785156 23.453125 -7.203125 C 23.453125 -6.515625 23.59375 -5.953125 23.875 -5.515625 C 24.164062 -5.078125 24.570312 -4.628906 25.09375 -4.171875 C 25.5 -3.816406 25.789062 -3.492188 25.96875 -3.203125 C 26.144531 -2.921875 26.171875 -2.578125 26.046875 -2.171875 C 25.816406 -1.421875 25.265625 -0.867188 24.390625 -0.515625 C 23.523438 -0.171875 22.171875 0 20.328125 0 L 0.515625 0 C -0.984375 0 -2.066406 -0.242188 -2.734375 -0.734375 C -3.398438 -1.222656 -3.644531 -1.875 -3.46875 -2.6875 C -3.238281 -3.382812 -2.632812 -3.992188 -1.65625 -4.515625 C -0.78125 -4.972656 -0.0546875 -5.519531 0.515625 -6.15625 C 1.097656 -6.800781 1.59375 -7.816406 2 -9.203125 L 9.71875 -34.296875 C 9.84375 -34.585938 9.90625 -34.992188 9.90625 -35.515625 C 9.90625 -36.148438 9.773438 -36.640625 9.515625 -36.984375 C 9.253906 -37.335938 8.832031 -37.773438 8.25 -38.296875 C 7.664062 -38.765625 7.257812 -39.171875 7.03125 -39.515625 C 6.800781 -39.859375 6.773438 -40.320312 6.953125 -40.90625 C 7.296875 -42.238281 9.117188 -43.410156 12.421875 -44.421875 C 15.722656 -45.429688 19.164062 -45.9375 22.75 -45.9375 C 25.644531 -45.9375 27.929688 -45.140625 29.609375 -43.546875 C 31.285156 -41.953125 32.039062 -39.738281 31.875 -36.90625 C 34.25 -40.320312 36.765625 -42.679688 39.421875 -43.984375 C 42.085938 -45.285156 44.984375 -45.9375 48.109375 -45.9375 C 51.640625 -45.9375 54.488281 -44.863281 56.65625 -42.71875 C 58.832031 -40.582031 59.921875 -37.804688 59.921875 -34.390625 C 59.921875 -32.597656 59.628906 -30.832031 59.046875 -29.09375 Z M 53.75 -11.984375 "/></g></g></g></svg>