<svg xmlns="http://www.w3.org/2000/svg" xmlns:xlink="http://www.w3.org/1999/xlink" width="850" zoomAndPan="magnify" viewBox="0 0 637.5 165.000002" height="220" preserveAspectRatio="xMidYMid meet" version="1.0"><defs><g/></defs><g fill="#ffffff" fill-opacity="1"><g transform="translate(129.475237, 110.207203)"><g><path d="M 66.34375 -40.203125 C 65.414062 -36.847656 63.675781 -34.226562 61.125 -32.34375 C 58.582031 -30.46875 55.375 -29.296875 51.5 -28.828125 C 54.28125 -28.597656 56.363281 -27.785156 57.75 -26.390625 C 59.132812 -25.003906 59.828125 -23.179688 59.828125 -20.921875 C 59.828125 -20.054688 59.6875 -18.988281 59.40625 -17.71875 L 58.453125 -13.453125 C 58.328125 -12.878906 58.265625 -12.476562 58.265625 -12.25 C 58.265625 -11.488281 58.4375 -10.921875 58.78125 -10.546875 C 59.132812 -10.171875 59.628906 -9.984375 60.265625 -9.984375 C 61.484375 -9.984375 62.367188 -9.804688 62.921875 -9.453125 C 63.472656 -9.109375 63.660156 -8.476562 63.484375 -7.5625 C 63.253906 -6.226562 62.554688 -4.921875 61.390625 -3.640625 C 60.234375 -2.367188 58.597656 -1.3125 56.484375 -0.46875 C 54.378906 0.363281 51.820312 0.78125 48.8125 0.78125 C 44.988281 0.78125 41.945312 -0.0703125 39.6875 -1.78125 C 37.425781 -3.488281 36.296875 -5.9375 36.296875 -9.125 C 36.296875 -10.332031 36.472656 -11.632812 36.828125 -13.03125 L 38.21875 -18.578125 C 38.445312 -19.335938 38.5625 -20.117188 38.5625 -20.921875 C 38.5625 -22.253906 38.109375 -23.207031 37.203125 -23.78125 C 36.304688 -24.363281 34.875 -24.65625 32.90625 -24.65625 L 29.609375 -24.65625 L 25.625 -10.25 C 25.5 -9.894531 25.4375 -9.457031 25.4375 -8.9375 C 25.4375 -8.132812 25.640625 -7.441406 26.046875 -6.859375 C 26.453125 -6.285156 27.003906 -5.675781 27.703125 -5.03125 C 28.222656 -4.625 28.628906 -4.234375 28.921875 -3.859375 C 29.210938 -3.484375 29.359375 -3.09375 29.359375 -2.6875 C 29.359375 -1.707031 28.894531 -1.015625 27.96875 -0.609375 C 27.039062 -0.203125 25.675781 0 23.875 0 L 2.078125 0 C 0.578125 0 -0.546875 -0.273438 -1.296875 -0.828125 C -2.054688 -1.378906 -2.316406 -2.144531 -2.078125 -3.125 C -1.960938 -3.644531 -1.742188 -4.0625 -1.421875 -4.375 C -1.109375 -4.695312 -0.632812 -5.0625 0 -5.46875 C 0.976562 -6.050781 1.757812 -6.660156 2.34375 -7.296875 C 2.925781 -7.929688 3.390625 -8.914062 3.734375 -10.25 L 14.328125 -47.671875 C 14.554688 -48.429688 14.671875 -49.15625 14.671875 -49.84375 C 14.671875 -50.476562 14.566406 -51.015625 14.359375 -51.453125 C 14.160156 -51.890625 13.890625 -52.394531 13.546875 -52.96875 C 13.023438 -53.726562 12.765625 -54.335938 12.765625 -54.796875 C 12.765625 -54.972656 12.820312 -55.289062 12.9375 -55.75 C 13.164062 -56.5 13.671875 -57.035156 14.453125 -57.359375 C 15.234375 -57.679688 16.4375 -57.84375 18.0625 -57.84375 L 47.15625 -57.84375 C 51.144531 -57.84375 54.628906 -57.234375 57.609375 -56.015625 C 60.597656 -54.796875 62.890625 -53.128906 64.484375 -51.015625 C 66.078125 -48.898438 66.875 -46.515625 66.875 -43.859375 C 66.875 -42.640625 66.695312 -41.421875 66.34375 -40.203125 Z M 44.109375 -41.078125 C 44.398438 -42.410156 44.546875 -43.421875 44.546875 -44.109375 C 44.546875 -47.179688 42.867188 -48.71875 39.515625 -48.71875 L 35.859375 -48.71875 L 32.046875 -33.34375 L 35.6875 -33.34375 C 37.945312 -33.34375 39.726562 -33.890625 41.03125 -34.984375 C 42.332031 -36.085938 43.359375 -38.117188 44.109375 -41.078125 Z M 44.109375 -41.078125 "/></g></g></g><g fill="#ffffff" fill-opacity="1"><g transform="translate(195.393305, 110.207203)"><g><path d="M 29.4375 -46.375 C 36.789062 -46.375 42.117188 -45.203125 45.421875 -42.859375 C 48.722656 -40.515625 50.375 -37.519531 50.375 -33.875 C 50.375 -32.769531 50.253906 -31.753906 50.015625 -30.828125 C 49.148438 -27.003906 46.734375 -24.265625 42.765625 -22.609375 C 38.804688 -20.960938 34.132812 -20.140625 28.75 -20.140625 C 26.019531 -20.140625 23.472656 -20.316406 21.109375 -20.671875 C 21.046875 -17.660156 21.851562 -15.546875 23.53125 -14.328125 C 25.207031 -13.109375 27.550781 -12.5 30.5625 -12.5 C 31.957031 -12.5 33.289062 -12.65625 34.5625 -12.96875 C 35.832031 -13.289062 37.453125 -13.773438 39.421875 -14.421875 C 41.046875 -14.992188 42.148438 -15.28125 42.734375 -15.28125 C 43.367188 -15.28125 43.6875 -14.90625 43.6875 -14.15625 C 43.738281 -12.125 42.984375 -9.992188 41.421875 -7.765625 C 39.859375 -5.535156 37.539062 -3.640625 34.46875 -2.078125 C 31.40625 -0.515625 27.703125 0.265625 23.359375 0.265625 C 16.929688 0.265625 11.660156 -1.351562 7.546875 -4.59375 C 3.441406 -7.84375 1.390625 -12.566406 1.390625 -18.765625 C 1.390625 -20.492188 1.617188 -22.519531 2.078125 -24.84375 C 3.523438 -31.957031 6.695312 -37.320312 11.59375 -40.9375 C 16.488281 -44.5625 22.4375 -46.375 29.4375 -46.375 Z M 21.703125 -25.875 C 21.941406 -25.820312 22.265625 -25.796875 22.671875 -25.796875 C 25.097656 -25.796875 26.945312 -26.921875 28.21875 -29.171875 C 29.5 -31.429688 30.109375 -33.953125 30.046875 -36.734375 C 29.992188 -38.359375 29.53125 -39.171875 28.65625 -39.171875 C 28.019531 -39.171875 27.265625 -38.660156 26.390625 -37.640625 C 25.523438 -36.628906 24.671875 -35.109375 23.828125 -33.078125 C 22.992188 -31.054688 22.285156 -28.65625 21.703125 -25.875 Z M 21.703125 -25.875 "/></g></g></g><g fill="#ffffff" fill-opacity="1"><g transform="translate(244.028503, 110.207203)"><g><path d="M 48.546875 -12.5 C 48.429688 -12.039062 48.375 -11.722656 48.375 -11.546875 C 48.375 -11.140625 48.488281 -10.820312 48.71875 -10.59375 C 48.945312 -10.363281 49.238281 -10.25 49.59375 -10.25 C 50.28125 -10.25 50.867188 -10.550781 51.359375 -11.15625 C 51.859375 -11.769531 52.191406 -12.078125 52.359375 -12.078125 C 52.648438 -12.078125 52.882812 -11.875 53.0625 -11.46875 C 53.238281 -11.0625 53.328125 -10.597656 53.328125 -10.078125 C 53.378906 -8.515625 52.78125 -6.921875 51.53125 -5.296875 C 50.289062 -3.671875 48.628906 -2.335938 46.546875 -1.296875 C 44.460938 -0.253906 42.207031 0.265625 39.78125 0.265625 C 36.882812 0.265625 34.363281 -0.285156 32.21875 -1.390625 C 30.070312 -2.492188 28.597656 -3.941406 27.796875 -5.734375 C 26.222656 -3.703125 24.421875 -2.191406 22.390625 -1.203125 C 20.367188 -0.222656 18.234375 0.265625 15.984375 0.265625 C 13.316406 0.265625 10.835938 -0.398438 8.546875 -1.734375 C 6.265625 -3.066406 4.441406 -4.960938 3.078125 -7.421875 C 1.722656 -9.878906 1.046875 -12.675781 1.046875 -15.8125 C 1.046875 -21.070312 2.039062 -26.03125 4.03125 -30.6875 C 6.03125 -35.351562 8.820312 -39.117188 12.40625 -41.984375 C 16 -44.847656 20.082031 -46.28125 24.65625 -46.28125 C 27.144531 -46.28125 29.273438 -45.988281 31.046875 -45.40625 C 32.816406 -44.832031 34.421875 -43.96875 35.859375 -42.8125 L 38.8125 -52.546875 C 38.988281 -53.066406 39.078125 -53.5 39.078125 -53.84375 C 39.078125 -54.476562 38.914062 -55 38.59375 -55.40625 C 38.28125 -55.8125 37.863281 -56.21875 37.34375 -56.625 C 36.757812 -57.082031 36.335938 -57.484375 36.078125 -57.828125 C 35.816406 -58.179688 35.773438 -58.648438 35.953125 -59.234375 C 36.296875 -60.554688 38.117188 -61.707031 41.421875 -62.6875 C 44.722656 -63.675781 48.171875 -64.171875 51.765625 -64.171875 C 55.117188 -64.171875 57.59375 -63.535156 59.1875 -62.265625 C 60.78125 -60.992188 61.578125 -59.257812 61.578125 -57.0625 C 61.578125 -55.78125 61.375 -54.535156 60.96875 -53.328125 Z M 34.046875 -36.90625 C 33.117188 -37.71875 32.101562 -38.125 31 -38.125 C 29.320312 -38.125 27.671875 -36.878906 26.046875 -34.390625 C 24.429688 -31.898438 23.128906 -28.890625 22.140625 -25.359375 C 21.160156 -21.828125 20.695312 -18.644531 20.75 -15.8125 C 20.75 -12.625 21.789062 -11.03125 23.875 -11.03125 C 24.632812 -11.03125 25.273438 -11.332031 25.796875 -11.9375 C 26.316406 -12.550781 26.804688 -13.550781 27.265625 -14.9375 Z M 34.046875 -36.90625 "/></g></g></g><g fill="#ffffff" fill-opacity="1"><g transform="translate(300.914314, 110.207203)"><g/></g></g><g fill="#ffffff" fill-opacity="1"><g transform="translate(318.284034, 110.207203)"><g><path d="M 49.234375 -57.84375 C 53.171875 -57.84375 56.601562 -57.25 59.53125 -56.0625 C 62.457031 -54.875 64.6875 -53.25 66.21875 -51.1875 C 67.75 -49.132812 68.515625 -46.773438 68.515625 -44.109375 C 68.515625 -42.609375 68.3125 -41.222656 67.90625 -39.953125 C 66.226562 -34.097656 61.394531 -30.390625 53.40625 -28.828125 C 56.1875 -28.015625 58.382812 -26.664062 60 -24.78125 C 61.625 -22.90625 62.4375 -20.578125 62.4375 -17.796875 C 62.4375 -16.523438 62.207031 -15.019531 61.75 -13.28125 C 60.46875 -8.769531 57.898438 -5.425781 54.046875 -3.25 C 50.203125 -1.082031 44.75 0 37.6875 0 L 1.5625 0 C 0.34375 0 -0.597656 -0.203125 -1.265625 -0.609375 C -1.929688 -1.015625 -2.265625 -1.566406 -2.265625 -2.265625 C -2.265625 -2.609375 -2.175781 -2.984375 -2 -3.390625 C -1.769531 -4.023438 -1.394531 -4.515625 -0.875 -4.859375 C -0.351562 -5.210938 -0.03125 -5.414062 0.09375 -5.46875 C 1.007812 -6.050781 1.757812 -6.644531 2.34375 -7.25 C 2.925781 -7.851562 3.421875 -8.851562 3.828125 -10.25 L 14.421875 -47.671875 C 14.648438 -48.429688 14.765625 -49.15625 14.765625 -49.84375 C 14.765625 -50.476562 14.660156 -51.015625 14.453125 -51.453125 C 14.253906 -51.890625 13.984375 -52.394531 13.640625 -52.96875 C 13.117188 -53.726562 12.859375 -54.335938 12.859375 -54.796875 C 12.859375 -54.972656 12.914062 -55.289062 13.03125 -55.75 C 13.257812 -56.5 13.765625 -57.035156 14.546875 -57.359375 C 15.328125 -57.679688 16.53125 -57.84375 18.15625 -57.84375 Z M 45.328125 -41.953125 C 45.734375 -43.222656 45.9375 -44.40625 45.9375 -45.5 C 45.9375 -48.507812 44.226562 -50.015625 40.8125 -50.015625 L 36.90625 -50.015625 L 32.3125 -33.78125 L 36.125 -33.78125 C 38.5625 -33.78125 40.488281 -34.375 41.90625 -35.5625 C 43.320312 -36.75 44.460938 -38.878906 45.328125 -41.953125 Z M 39 -16.40625 C 39.394531 -17.800781 39.59375 -19.078125 39.59375 -20.234375 C 39.59375 -23.359375 37.800781 -24.921875 34.21875 -24.921875 L 29.875 -24.921875 L 24.921875 -7.8125 L 29.359375 -7.8125 C 31.847656 -7.8125 33.84375 -8.429688 35.34375 -9.671875 C 36.851562 -10.921875 38.070312 -13.164062 39 -16.40625 Z M 39 -16.40625 "/></g></g></g><g fill="#ffffff" fill-opacity="1"><g transform="translate(384.375789, 110.207203)"><g><path d="M 51.578125 -11.984375 C 51.460938 -11.523438 51.40625 -11.175781 51.40625 -10.9375 C 51.40625 -10.53125 51.503906 -10.210938 51.703125 -9.984375 C 51.910156 -9.753906 52.191406 -9.640625 52.546875 -9.640625 C 53.234375 -9.640625 53.820312 -9.941406 54.3125 -10.546875 C 54.8125 -11.160156 55.144531 -11.46875 55.3125 -11.46875 C 55.601562 -11.46875 55.847656 -11.273438 56.046875 -10.890625 C 56.253906 -10.515625 56.359375 -10.066406 56.359375 -9.546875 C 56.421875 -7.929688 55.84375 -6.328125 54.625 -4.734375 C 53.40625 -3.140625 51.695312 -1.820312 49.5 -0.78125 C 47.300781 0.257812 44.84375 0.78125 42.125 0.78125 C 38.707031 0.78125 35.984375 0.0859375 33.953125 -1.296875 C 31.929688 -2.691406 30.628906 -4.519531 30.046875 -6.78125 C 27.960938 -4.457031 25.660156 -2.703125 23.140625 -1.515625 C 20.617188 -0.328125 18.054688 0.265625 15.453125 0.265625 C 11.398438 0.265625 8 -0.734375 5.25 -2.734375 C 2.5 -4.734375 1.125 -7.523438 1.125 -11.109375 C 1.125 -12.734375 1.414062 -14.414062 2 -16.15625 L 7.5625 -34.296875 C 7.726562 -34.816406 7.8125 -35.253906 7.8125 -35.609375 C 7.8125 -36.242188 7.664062 -36.75 7.375 -37.125 C 7.09375 -37.5 6.660156 -37.890625 6.078125 -38.296875 C 5.492188 -38.765625 5.085938 -39.171875 4.859375 -39.515625 C 4.628906 -39.859375 4.601562 -40.320312 4.78125 -40.90625 C 5.125 -42.238281 6.945312 -43.410156 10.25 -44.421875 C 13.550781 -45.429688 16.992188 -45.9375 20.578125 -45.9375 C 23.941406 -45.9375 26.40625 -45.300781 27.96875 -44.03125 C 29.53125 -42.757812 30.3125 -41.019531 30.3125 -38.8125 C 30.3125 -37.488281 30.109375 -36.21875 29.703125 -35 L 24.234375 -16.9375 C 23.992188 -16.300781 23.875 -15.691406 23.875 -15.109375 C 23.875 -14.296875 24.101562 -13.6875 24.5625 -13.28125 C 25.03125 -12.875 25.644531 -12.671875 26.40625 -12.671875 C 27.5 -12.671875 28.394531 -12.988281 29.09375 -13.625 C 29.789062 -14.269531 30.484375 -15.34375 31.171875 -16.84375 L 36.46875 -34.296875 C 36.644531 -34.816406 36.734375 -35.253906 36.734375 -35.609375 C 36.734375 -36.242188 36.585938 -36.75 36.296875 -37.125 C 36.003906 -37.5 35.597656 -37.890625 35.078125 -38.296875 C 34.503906 -38.765625 34.097656 -39.171875 33.859375 -39.515625 C 33.628906 -39.859375 33.601562 -40.320312 33.78125 -40.90625 C 34.070312 -42.238281 35.863281 -43.410156 39.15625 -44.421875 C 42.457031 -45.429688 45.90625 -45.9375 49.5 -45.9375 C 52.851562 -45.9375 55.328125 -45.300781 56.921875 -44.03125 C 58.515625 -42.757812 59.3125 -41.050781 59.3125 -38.90625 C 59.3125 -37.800781 59.082031 -36.5 58.625 -35 Z M 51.578125 -11.984375 "/></g></g></g><g fill="#ffffff" fill-opacity="1"><g transform="translate(443.953894, 110.207203)"><g><path d="M 27.703125 -64.171875 C 31.054688 -64.171875 33.53125 -63.535156 35.125 -62.265625 C 36.71875 -60.992188 37.515625 -59.257812 37.515625 -57.0625 C 37.515625 -55.78125 37.3125 -54.535156 36.90625 -53.328125 L 23.28125 -9.03125 C 23.101562 -8.332031 23.015625 -7.722656 23.015625 -7.203125 C 23.015625 -6.453125 23.15625 -5.859375 23.4375 -5.421875 C 23.726562 -4.992188 24.132812 -4.578125 24.65625 -4.171875 C 25.0625 -3.765625 25.351562 -3.429688 25.53125 -3.171875 C 25.707031 -2.910156 25.738281 -2.578125 25.625 -2.171875 C 25.332031 -1.421875 24.75 -0.867188 23.875 -0.515625 C 23.007812 -0.171875 21.679688 0 19.890625 0 L 0.09375 0 C -1.414062 0 -2.515625 -0.242188 -3.203125 -0.734375 C -3.898438 -1.222656 -4.132812 -1.875 -3.90625 -2.6875 C -3.675781 -3.382812 -3.066406 -3.992188 -2.078125 -4.515625 C -1.210938 -4.972656 -0.492188 -5.519531 0.078125 -6.15625 C 0.660156 -6.800781 1.15625 -7.816406 1.5625 -9.203125 L 14.765625 -52.546875 C 14.941406 -53.066406 15.03125 -53.5 15.03125 -53.84375 C 15.03125 -54.476562 14.867188 -55 14.546875 -55.40625 C 14.222656 -55.8125 13.800781 -56.21875 13.28125 -56.625 C 12.707031 -57.082031 12.289062 -57.484375 12.03125 -57.828125 C 11.769531 -58.179688 11.722656 -58.648438 11.890625 -59.234375 C 12.242188 -60.554688 14.066406 -61.707031 17.359375 -62.6875 C 20.660156 -63.675781 24.109375 -64.171875 27.703125 -64.171875 Z M 27.703125 -64.171875 "/></g></g></g><g fill="#ffffff" fill-opacity="1"><g transform="translate(475.74048, 110.207203)"><g><path d="M 27.703125 -64.171875 C 31.054688 -64.171875 33.53125 -63.535156 35.125 -62.265625 C 36.71875 -60.992188 37.515625 -59.257812 37.515625 -57.0625 C 37.515625 -55.78125 37.3125 -54.535156 36.90625 -53.328125 L 23.28125 -9.03125 C 23.101562 -8.332031 23.015625 -7.722656 23.015625 -7.203125 C 23.015625 -6.453125 23.15625 -5.859375 23.4375 -5.421875 C 23.726562 -4.992188 24.132812 -4.578125 24.65625 -4.171875 C 25.0625 -3.765625 25.351562 -3.429688 25.53125 -3.171875 C 25.707031 -2.910156 25.738281 -2.578125 25.625 -2.171875 C 25.332031 -1.421875 24.75 -0.867188 23.875 -0.515625 C 23.007812 -0.171875 21.679688 0 19.890625 0 L 0.09375 0 C -1.414062 0 -2.515625 -0.242188 -3.203125 -0.734375 C -3.898438 -1.222656 -4.132812 -1.875 -3.90625 -2.6875 C -3.675781 -3.382812 -3.066406 -3.992188 -2.078125 -4.515625 C -1.210938 -4.972656 -0.492188 -5.519531 0.078125 -6.15625 C 0.660156 -6.800781 1.15625 -7.816406 1.5625 -9.203125 L 14.765625 -52.546875 C 14.941406 -53.066406 15.03125 -53.5 15.03125 -53.84375 C 15.03125 -54.476562 14.867188 -55 14.546875 -55.40625 C 14.222656 -55.8125 13.800781 -56.21875 13.28125 -56.625 C 12.707031 -57.082031 12.289062 -57.484375 12.03125 -57.828125 C 11.769531 -58.179688 11.722656 -58.648438 11.890625 -59.234375 C 12.242188 -60.554688 14.066406 -61.707031 17.359375 -62.6875 C 20.660156 -63.675781 24.109375 -64.171875 27.703125 -64.171875 Z M 27.703125 -64.171875 "/></g></g></g></svg>