<svg xmlns="http://www.w3.org/2000/svg" xmlns:xlink="http://www.w3.org/1999/xlink" width="850" zoomAndPan="magnify" viewBox="0 0 637.5 165.000002" height="220" preserveAspectRatio="xMidYMid meet" version="1.0"><defs><g/></defs><g fill="#ffffff" fill-opacity="1"><g transform="translate(7.996631, 106.976658)"><g><path d="M 68.90625 -57.28125 C 72.050781 -57.28125 73.625 -55.992188 73.625 -53.421875 C 73.625 -52.617188 73.453125 -51.613281 73.109375 -50.40625 L 71.046875 -43.4375 C 70.421875 -41.3125 69.644531 -39.816406 68.71875 -38.953125 C 67.800781 -38.097656 66.484375 -37.671875 64.765625 -37.671875 C 63.335938 -37.671875 62.234375 -38.039062 61.453125 -38.78125 C 60.679688 -39.53125 59.953125 -40.707031 59.265625 -42.3125 L 57.796875 -45.84375 C 57.335938 -46.9375 56.847656 -47.679688 56.328125 -48.078125 C 55.816406 -48.484375 55.019531 -48.6875 53.9375 -48.6875 L 51.953125 -48.6875 L 41.03125 -10.234375 C 40.851562 -9.492188 40.765625 -8.832031 40.765625 -8.25 C 40.765625 -7.5625 40.863281 -6.988281 41.0625 -6.53125 C 41.269531 -6.070312 41.570312 -5.585938 41.96875 -5.078125 C 42.488281 -4.273438 42.75 -3.613281 42.75 -3.09375 C 42.75 -2.976562 42.691406 -2.691406 42.578125 -2.234375 C 42.285156 -1.492188 41.722656 -0.953125 40.890625 -0.609375 C 40.066406 -0.265625 38.878906 -0.09375 37.328125 -0.09375 L 17.109375 -0.09375 C 15.910156 -0.09375 14.976562 -0.289062 14.3125 -0.6875 C 13.65625 -1.09375 13.328125 -1.664062 13.328125 -2.40625 C 13.328125 -2.75 13.414062 -3.09375 13.59375 -3.4375 C 13.820312 -3.957031 14.09375 -4.34375 14.40625 -4.59375 C 14.71875 -4.851562 15.191406 -5.1875 15.828125 -5.59375 C 16.679688 -6.101562 17.394531 -6.671875 17.96875 -7.296875 C 18.550781 -7.929688 19.039062 -8.910156 19.4375 -10.234375 L 30.28125 -48.6875 L 28.296875 -48.6875 C 27.035156 -48.6875 26.003906 -48.484375 25.203125 -48.078125 C 24.398438 -47.679688 23.539062 -46.9375 22.625 -45.84375 L 19.78125 -42.3125 C 18.46875 -40.769531 17.191406 -39.609375 15.953125 -38.828125 C 14.722656 -38.054688 13.390625 -37.671875 11.953125 -37.671875 C 10.640625 -37.671875 9.609375 -38.015625 8.859375 -38.703125 C 8.109375 -39.390625 7.734375 -40.335938 7.734375 -41.546875 C 7.734375 -42.117188 7.820312 -42.75 8 -43.4375 L 10.234375 -51.265625 C 10.691406 -52.867188 11.207031 -54.085938 11.78125 -54.921875 C 12.351562 -55.753906 13.171875 -56.351562 14.234375 -56.71875 C 15.296875 -57.09375 16.800781 -57.28125 18.75 -57.28125 Z M 68.90625 -57.28125 "/></g></g></g><g fill="#ffffff" fill-opacity="1"><g transform="translate(73.278225, 106.976658)"><g><path d="M 22.625 -45.5 C 25.957031 -45.5 28.394531 -44.867188 29.9375 -43.609375 C 31.488281 -42.347656 32.265625 -40.628906 32.265625 -38.453125 C 32.265625 -37.128906 32.0625 -35.867188 31.65625 -34.671875 L 23.75 -8.953125 C 23.570312 -8.253906 23.484375 -7.648438 23.484375 -7.140625 C 23.484375 -6.390625 23.625 -5.800781 23.90625 -5.375 C 24.195312 -4.945312 24.601562 -4.53125 25.125 -4.125 C 25.519531 -3.726562 25.804688 -3.398438 25.984375 -3.140625 C 26.160156 -2.878906 26.191406 -2.550781 26.078125 -2.15625 C 25.785156 -1.40625 25.207031 -0.859375 24.34375 -0.515625 C 23.488281 -0.171875 22.171875 0 20.390625 0 L 0.78125 0 C -0.707031 0 -1.796875 -0.242188 -2.484375 -0.734375 C -3.171875 -1.222656 -3.398438 -1.867188 -3.171875 -2.671875 C -2.941406 -3.359375 -2.34375 -3.957031 -1.375 -4.46875 C -0.507812 -4.925781 0.207031 -5.46875 0.78125 -6.09375 C 1.351562 -6.726562 1.84375 -7.738281 2.25 -9.125 L 9.734375 -33.96875 C 9.898438 -34.488281 9.984375 -34.921875 9.984375 -35.265625 C 9.984375 -35.898438 9.835938 -36.398438 9.546875 -36.765625 C 9.265625 -37.140625 8.835938 -37.53125 8.265625 -37.9375 C 7.691406 -38.394531 7.289062 -38.796875 7.0625 -39.140625 C 6.832031 -39.484375 6.800781 -39.941406 6.96875 -40.515625 C 7.3125 -41.828125 9.117188 -42.984375 12.390625 -43.984375 C 15.660156 -44.992188 19.070312 -45.5 22.625 -45.5 Z M 28.40625 -64.515625 C 30.632812 -64.515625 32.492188 -63.78125 33.984375 -62.3125 C 35.484375 -60.851562 36.234375 -59.0625 36.234375 -56.9375 C 36.234375 -55.445312 35.84375 -53.984375 35.0625 -52.546875 C 34.289062 -51.117188 33.203125 -49.957031 31.796875 -49.0625 C 30.390625 -48.175781 28.828125 -47.734375 27.109375 -47.734375 C 24.929688 -47.734375 23.109375 -48.460938 21.640625 -49.921875 C 20.179688 -51.390625 19.425781 -53.210938 19.375 -55.390625 C 19.375 -56.828125 19.742188 -58.25 20.484375 -59.65625 C 21.234375 -61.0625 22.296875 -62.222656 23.671875 -63.140625 C 25.046875 -64.054688 26.625 -64.515625 28.40625 -64.515625 Z M 28.40625 -64.515625 "/></g></g></g><g fill="#ffffff" fill-opacity="1"><g transform="translate(104.757886, 106.976658)"><g><path d="M 31.21875 -45.9375 C 34.71875 -45.9375 37.785156 -45.429688 40.421875 -44.421875 C 43.066406 -43.421875 45.117188 -42.046875 46.578125 -40.296875 C 48.035156 -38.546875 48.765625 -36.613281 48.765625 -34.5 C 48.765625 -32.195312 47.976562 -30.300781 46.40625 -28.8125 C 44.832031 -27.320312 42.695312 -26.578125 40 -26.578125 C 37.25 -26.578125 35.097656 -27.28125 33.546875 -28.6875 C 31.992188 -30.09375 31.21875 -32 31.21875 -34.40625 C 31.21875 -35.550781 31.390625 -36.753906 31.734375 -38.015625 C 29.328125 -37.390625 27.191406 -36.144531 25.328125 -34.28125 C 23.460938 -32.414062 22.21875 -29.960938 21.59375 -26.921875 C 21.25 -25.203125 21.078125 -23.65625 21.078125 -22.28125 C 21.078125 -19.1875 21.9375 -16.832031 23.65625 -15.21875 C 25.375 -13.613281 27.835938 -12.8125 31.046875 -12.8125 C 32.878906 -12.8125 34.457031 -13 35.78125 -13.375 C 37.101562 -13.75 38.453125 -14.25 39.828125 -14.875 C 40.972656 -15.445312 41.800781 -15.734375 42.3125 -15.734375 C 42.65625 -15.734375 42.882812 -15.660156 43 -15.515625 C 43.125 -15.378906 43.1875 -15.082031 43.1875 -14.625 C 43.238281 -12.5 42.359375 -10.273438 40.546875 -7.953125 C 38.742188 -5.628906 36.25 -3.675781 33.0625 -2.09375 C 29.882812 -0.519531 26.316406 0.265625 22.359375 0.265625 C 18.234375 0.265625 14.578125 -0.492188 11.390625 -2.015625 C 8.210938 -3.535156 5.75 -5.710938 4 -8.546875 C 2.25 -11.390625 1.375 -14.707031 1.375 -18.5 C 1.375 -20.269531 1.601562 -22.242188 2.0625 -24.421875 C 3.613281 -31.535156 7.039062 -36.898438 12.34375 -40.515625 C 17.644531 -44.128906 23.9375 -45.9375 31.21875 -45.9375 Z M 31.21875 -45.9375 "/></g></g></g><g fill="#ffffff" fill-opacity="1"><g transform="translate(151.375314, 106.976658)"><g><path d="M 51 -45.5 C 54.269531 -45.5 56.894531 -44.59375 58.875 -42.78125 C 60.851562 -40.976562 61.84375 -38.789062 61.84375 -36.21875 C 61.84375 -33.457031 61.007812 -31.300781 59.34375 -29.75 C 57.6875 -28.207031 55.507812 -27.4375 52.8125 -27.4375 C 50.40625 -27.4375 48.539062 -28.050781 47.21875 -29.28125 C 45.90625 -30.519531 45.273438 -31.910156 45.328125 -33.453125 C 44.753906 -33.566406 44.265625 -33.335938 43.859375 -32.765625 C 43.460938 -32.191406 43.035156 -31.078125 42.578125 -29.421875 C 42.285156 -28.328125 41.738281 -27.320312 40.9375 -26.40625 C 44.84375 -26.125 47.738281 -25.234375 49.625 -23.734375 C 51.519531 -22.242188 52.46875 -20.328125 52.46875 -17.984375 C 52.46875 -16.828125 52.269531 -15.675781 51.875 -14.53125 L 51.171875 -11.875 C 51.054688 -11.582031 51 -11.207031 51 -10.75 C 51 -9.945312 51.375 -9.546875 52.125 -9.546875 C 52.8125 -9.546875 53.398438 -9.847656 53.890625 -10.453125 C 54.378906 -11.054688 54.707031 -11.359375 54.875 -11.359375 C 55.164062 -11.359375 55.394531 -11.171875 55.5625 -10.796875 C 55.738281 -10.421875 55.828125 -9.976562 55.828125 -9.46875 C 55.878906 -7.800781 55.375 -6.175781 54.3125 -4.59375 C 53.257812 -3.019531 51.65625 -1.726562 49.5 -0.71875 C 47.351562 0.28125 44.757812 0.78125 41.71875 0.78125 C 38.050781 0.78125 35 -0.132812 32.5625 -1.96875 C 30.125 -3.8125 28.90625 -6.222656 28.90625 -9.203125 C 28.90625 -10.296875 29.132812 -11.53125 29.59375 -12.90625 L 31.21875 -17.203125 C 31.507812 -18.234375 31.65625 -18.976562 31.65625 -19.4375 C 31.65625 -20.1875 31.410156 -20.734375 30.921875 -21.078125 C 30.429688 -21.421875 29.671875 -21.59375 28.640625 -21.59375 L 26.921875 -21.59375 L 23.046875 -8.953125 C 22.878906 -8.253906 22.796875 -7.648438 22.796875 -7.140625 C 22.796875 -6.390625 22.9375 -5.800781 23.21875 -5.375 C 23.507812 -4.945312 23.910156 -4.53125 24.421875 -4.125 C 24.828125 -3.726562 25.113281 -3.398438 25.28125 -3.140625 C 25.457031 -2.878906 25.488281 -2.550781 25.375 -2.15625 C 25.082031 -1.40625 24.503906 -0.859375 23.640625 -0.515625 C 22.785156 -0.171875 21.472656 0 19.703125 0 L 0.09375 0 C -1.40625 0 -2.5 -0.242188 -3.1875 -0.734375 C -3.875 -1.222656 -4.101562 -1.867188 -3.875 -2.671875 C -3.644531 -3.359375 -3.039062 -3.957031 -2.0625 -4.46875 C -1.207031 -4.925781 -0.492188 -5.46875 0.078125 -6.09375 C 0.660156 -6.726562 1.148438 -7.738281 1.546875 -9.125 L 14.625 -52.046875 C 14.789062 -52.554688 14.875 -52.984375 14.875 -53.328125 C 14.875 -53.960938 14.71875 -54.476562 14.40625 -54.875 C 14.09375 -55.28125 13.675781 -55.679688 13.15625 -56.078125 C 12.582031 -56.535156 12.164062 -56.9375 11.90625 -57.28125 C 11.65625 -57.625 11.613281 -58.082031 11.78125 -58.65625 C 12.125 -59.976562 13.929688 -61.125 17.203125 -62.09375 C 20.472656 -63.070312 23.882812 -63.5625 27.4375 -63.5625 C 30.757812 -63.5625 33.195312 -62.941406 34.75 -61.703125 C 36.300781 -60.472656 37.078125 -58.769531 37.078125 -56.59375 C 37.078125 -55.28125 36.875 -54.019531 36.46875 -52.8125 L 28.984375 -28.390625 L 31.828125 -28.390625 C 32.972656 -28.390625 33.90625 -28.734375 34.625 -29.421875 C 35.34375 -30.109375 35.898438 -31.109375 36.296875 -32.421875 C 37.734375 -36.671875 39.597656 -39.910156 41.890625 -42.140625 C 44.179688 -44.378906 47.21875 -45.5 51 -45.5 Z M 51 -45.5 "/></g></g></g><g fill="#ffffff" fill-opacity="1"><g transform="translate(211.49631, 106.976658)"><g><path d="M 29.15625 -45.9375 C 36.4375 -45.9375 41.710938 -44.773438 44.984375 -42.453125 C 48.253906 -40.128906 49.890625 -37.160156 49.890625 -33.546875 C 49.890625 -32.453125 49.773438 -31.445312 49.546875 -30.53125 C 48.679688 -26.75 46.285156 -24.039062 42.359375 -22.40625 C 38.429688 -20.769531 33.800781 -19.953125 28.46875 -19.953125 C 25.769531 -19.953125 23.25 -20.125 20.90625 -20.46875 C 20.84375 -17.488281 21.644531 -15.394531 23.3125 -14.1875 C 24.976562 -12.988281 27.300781 -12.390625 30.28125 -12.390625 C 31.65625 -12.390625 32.972656 -12.546875 34.234375 -12.859375 C 35.492188 -13.171875 37.097656 -13.644531 39.046875 -14.28125 C 40.648438 -14.851562 41.738281 -15.140625 42.3125 -15.140625 C 42.945312 -15.140625 43.265625 -14.765625 43.265625 -14.015625 C 43.328125 -12.015625 42.582031 -9.910156 41.03125 -7.703125 C 39.476562 -5.492188 37.179688 -3.613281 34.140625 -2.0625 C 31.109375 -0.507812 27.441406 0.265625 23.140625 0.265625 C 16.773438 0.265625 11.554688 -1.335938 7.484375 -4.546875 C 3.410156 -7.765625 1.375 -12.441406 1.375 -18.578125 C 1.375 -20.296875 1.601562 -22.300781 2.0625 -24.59375 C 3.5 -31.65625 6.640625 -36.976562 11.484375 -40.5625 C 16.328125 -44.144531 22.21875 -45.9375 29.15625 -45.9375 Z M 21.5 -25.625 C 21.726562 -25.570312 22.046875 -25.546875 22.453125 -25.546875 C 24.859375 -25.546875 26.691406 -26.660156 27.953125 -28.890625 C 29.210938 -31.128906 29.816406 -33.628906 29.765625 -36.390625 C 29.703125 -37.992188 29.242188 -38.796875 28.390625 -38.796875 C 27.753906 -38.796875 27.003906 -38.289062 26.140625 -37.28125 C 25.285156 -36.28125 24.441406 -34.773438 23.609375 -32.765625 C 22.773438 -30.765625 22.070312 -28.382812 21.5 -25.625 Z M 21.5 -25.625 "/></g></g></g><g fill="#ffffff" fill-opacity="1"><g transform="translate(259.66193, 106.976658)"><g><path d="M 38.453125 -44.390625 C 39.535156 -44.390625 40.378906 -44.160156 40.984375 -43.703125 C 41.585938 -43.242188 41.890625 -42.609375 41.890625 -41.796875 C 41.890625 -41.566406 41.832031 -41.164062 41.71875 -40.59375 C 40.96875 -38.070312 39.25 -36.8125 36.5625 -36.8125 L 31.5625 -36.8125 L 25.109375 -15.5625 C 24.828125 -14.707031 24.6875 -13.820312 24.6875 -12.90625 C 24.6875 -11.875 24.972656 -11.15625 25.546875 -10.75 C 26.117188 -10.351562 26.921875 -10.15625 27.953125 -10.15625 C 28.867188 -10.15625 30.015625 -10.269531 31.390625 -10.5 C 32.078125 -10.664062 32.679688 -10.75 33.203125 -10.75 C 33.597656 -10.75 33.894531 -10.617188 34.09375 -10.359375 C 34.300781 -10.109375 34.40625 -9.78125 34.40625 -9.375 C 34.46875 -8.226562 33.625 -6.835938 31.875 -5.203125 C 30.125 -3.566406 27.753906 -2.160156 24.765625 -0.984375 C 21.785156 0.191406 18.488281 0.78125 14.875 0.78125 C 10.976562 0.78125 7.851562 -0.109375 5.5 -1.890625 C 3.15625 -3.671875 1.984375 -6.109375 1.984375 -9.203125 C 1.984375 -10.640625 2.210938 -12.015625 2.671875 -13.328125 L 8.171875 -30.359375 C 8.460938 -31.335938 8.609375 -32.113281 8.609375 -32.6875 C 8.609375 -33.832031 8.332031 -34.804688 7.78125 -35.609375 C 7.238281 -36.410156 6.476562 -37.242188 5.5 -38.109375 C 4.644531 -38.910156 4.046875 -39.582031 3.703125 -40.125 C 3.359375 -40.664062 3.269531 -41.3125 3.4375 -42.0625 C 3.664062 -42.8125 4.148438 -43.382812 4.890625 -43.78125 C 5.640625 -44.1875 6.816406 -44.390625 8.421875 -44.390625 L 13.25 -44.390625 L 18.671875 -49.796875 C 20.554688 -51.691406 22.285156 -53.007812 23.859375 -53.75 C 25.441406 -54.5 27.492188 -54.875 30.015625 -54.875 C 33.628906 -54.875 35.4375 -53.5 35.4375 -50.75 C 35.4375 -49.882812 35.320312 -49.082031 35.09375 -48.34375 L 33.890625 -44.390625 Z M 38.453125 -44.390625 "/></g></g></g><g fill="#ffffff" fill-opacity="1"><g transform="translate(296.646232, 106.976658)"><g><path d="M 81.796875 -11.875 C 81.679688 -11.644531 81.625 -11.300781 81.625 -10.84375 C 81.625 -10.4375 81.722656 -10.117188 81.921875 -9.890625 C 82.128906 -9.660156 82.40625 -9.546875 82.75 -9.546875 C 83.4375 -9.546875 84.019531 -9.847656 84.5 -10.453125 C 84.988281 -11.054688 85.320312 -11.359375 85.5 -11.359375 C 85.78125 -11.359375 86.007812 -11.171875 86.1875 -10.796875 C 86.363281 -10.421875 86.453125 -9.976562 86.453125 -9.46875 C 86.503906 -7.800781 85.957031 -6.175781 84.8125 -4.59375 C 83.664062 -3.019531 81.988281 -1.726562 79.78125 -0.71875 C 77.570312 0.28125 74.921875 0.78125 71.828125 0.78125 C 68.035156 0.78125 65.019531 -0.09375 62.78125 -1.84375 C 60.550781 -3.59375 59.40625 -5.929688 59.34375 -8.859375 C 59.34375 -10.984375 59.863281 -13.363281 60.90625 -16 L 65.625 -28.390625 C 65.914062 -29.128906 66.0625 -29.726562 66.0625 -30.1875 C 66.0625 -30.9375 65.816406 -31.523438 65.328125 -31.953125 C 64.835938 -32.378906 64.25 -32.59375 63.5625 -32.59375 C 62.59375 -32.59375 61.585938 -32.160156 60.546875 -31.296875 C 59.515625 -30.441406 58.597656 -29.097656 57.796875 -27.265625 L 53.078125 -11.875 C 52.960938 -11.644531 52.90625 -11.300781 52.90625 -10.84375 C 52.90625 -10.4375 53.003906 -10.117188 53.203125 -9.890625 C 53.398438 -9.660156 53.671875 -9.546875 54.015625 -9.546875 C 54.703125 -9.546875 55.289062 -9.847656 55.78125 -10.453125 C 56.269531 -11.054688 56.597656 -11.359375 56.765625 -11.359375 C 57.054688 -11.359375 57.285156 -11.171875 57.453125 -10.796875 C 57.628906 -10.421875 57.71875 -9.976562 57.71875 -9.46875 C 57.769531 -7.800781 57.222656 -6.175781 56.078125 -4.59375 C 54.929688 -3.019531 53.253906 -1.726562 51.046875 -0.71875 C 48.835938 0.28125 46.1875 0.78125 43.09375 0.78125 C 39.3125 0.78125 36.300781 -0.09375 34.0625 -1.84375 C 31.820312 -3.59375 30.675781 -5.929688 30.625 -8.859375 C 30.625 -10.984375 31.140625 -13.363281 32.171875 -16 L 36.90625 -28.390625 C 37.1875 -29.128906 37.328125 -29.726562 37.328125 -30.1875 C 37.328125 -30.9375 37.082031 -31.523438 36.59375 -31.953125 C 36.113281 -32.378906 35.53125 -32.59375 34.84375 -32.59375 C 33.863281 -32.59375 32.859375 -32.175781 31.828125 -31.34375 C 30.796875 -30.519531 29.9375 -29.191406 29.25 -27.359375 L 23.5625 -8.953125 C 23.332031 -8.316406 23.21875 -7.710938 23.21875 -7.140625 C 23.21875 -6.453125 23.359375 -5.890625 23.640625 -5.453125 C 23.929688 -5.023438 24.335938 -4.582031 24.859375 -4.125 C 25.253906 -3.78125 25.539062 -3.460938 25.71875 -3.171875 C 25.894531 -2.890625 25.925781 -2.550781 25.8125 -2.15625 C 25.570312 -1.40625 25.019531 -0.859375 24.15625 -0.515625 C 23.300781 -0.171875 21.957031 0 20.125 0 L 0.515625 0 C -0.972656 0 -2.046875 -0.242188 -2.703125 -0.734375 C -3.367188 -1.222656 -3.613281 -1.867188 -3.4375 -2.671875 C -3.207031 -3.359375 -2.609375 -3.957031 -1.640625 -4.46875 C -0.773438 -4.925781 -0.0546875 -5.46875 0.515625 -6.09375 C 1.085938 -6.726562 1.578125 -7.738281 1.984375 -9.125 L 9.640625 -33.96875 C 9.753906 -34.257812 9.8125 -34.664062 9.8125 -35.1875 C 9.8125 -35.8125 9.679688 -36.296875 9.421875 -36.640625 C 9.160156 -36.984375 8.742188 -37.414062 8.171875 -37.9375 C 7.597656 -38.394531 7.195312 -38.796875 6.96875 -39.140625 C 6.738281 -39.484375 6.707031 -39.941406 6.875 -40.515625 C 7.21875 -41.828125 9.023438 -42.984375 12.296875 -43.984375 C 15.566406 -44.992188 18.976562 -45.5 22.53125 -45.5 C 25.34375 -45.5 27.566406 -44.722656 29.203125 -43.171875 C 30.835938 -41.628906 31.625 -39.507812 31.5625 -36.8125 C 33.914062 -40.082031 36.394531 -42.347656 39 -43.609375 C 41.613281 -44.867188 44.441406 -45.5 47.484375 -45.5 C 50.804688 -45.5 53.515625 -44.535156 55.609375 -42.609375 C 57.703125 -40.691406 58.863281 -38.1875 59.09375 -35.09375 C 61.5625 -38.988281 64.195312 -41.695312 67 -43.21875 C 69.8125 -44.738281 72.878906 -45.5 76.203125 -45.5 C 79.703125 -45.5 82.523438 -44.4375 84.671875 -42.3125 C 86.828125 -40.195312 87.90625 -37.445312 87.90625 -34.0625 C 87.90625 -32.28125 87.617188 -30.53125 87.046875 -28.8125 Z M 81.796875 -11.875 "/></g></g></g><g fill="#ffffff" fill-opacity="1"><g transform="translate(386.784704, 106.976658)"><g><path d="M 30.703125 -45.5 C 37.296875 -45.5 42.570312 -44.28125 46.53125 -41.84375 C 50.488281 -39.40625 52.46875 -35.691406 52.46875 -30.703125 C 52.46875 -28.816406 52.125 -26.664062 51.4375 -24.25 L 47.90625 -12.390625 C 47.851562 -12.160156 47.828125 -11.875 47.828125 -11.53125 C 47.828125 -10.613281 48.195312 -10.15625 48.9375 -10.15625 C 49.625 -10.15625 50.210938 -10.453125 50.703125 -11.046875 C 51.191406 -11.648438 51.523438 -11.953125 51.703125 -11.953125 C 51.984375 -11.953125 52.222656 -11.75 52.421875 -11.34375 C 52.628906 -10.945312 52.734375 -10.492188 52.734375 -9.984375 C 52.785156 -8.429688 52.191406 -6.851562 50.953125 -5.25 C 49.722656 -3.644531 48.078125 -2.320312 46.015625 -1.28125 C 43.953125 -0.25 41.6875 0.265625 39.21875 0.265625 C 36.238281 0.265625 33.6875 -0.28125 31.5625 -1.375 C 29.445312 -2.46875 27.988281 -4.070312 27.1875 -6.1875 C 25.457031 -4.125 23.414062 -2.53125 21.0625 -1.40625 C 18.71875 -0.289062 16.195312 0.265625 13.5 0.265625 C 10.46875 0.265625 7.914062 -0.320312 5.84375 -1.5 C 3.78125 -2.675781 2.242188 -4.195312 1.234375 -6.0625 C 0.234375 -7.925781 -0.265625 -9.890625 -0.265625 -11.953125 C -0.265625 -12.867188 -0.175781 -13.757812 0 -14.625 C 0.914062 -18.582031 2.90625 -21.5625 5.96875 -23.5625 C 9.039062 -25.570312 12.695312 -26.578125 16.9375 -26.578125 C 21.695312 -26.578125 26.375 -25.832031 30.96875 -24.34375 L 33.109375 -30.015625 C 33.859375 -32.421875 34.234375 -34.285156 34.234375 -35.609375 C 34.171875 -36.984375 33.707031 -38.015625 32.84375 -38.703125 C 31.988281 -39.390625 30.675781 -39.734375 28.90625 -39.734375 C 29.25 -38.816406 29.421875 -37.875 29.421875 -36.90625 C 29.421875 -34.78125 28.613281 -32.941406 27 -31.390625 C 25.394531 -29.847656 23.101562 -29.078125 20.125 -29.078125 C 17.3125 -29.078125 15.117188 -29.691406 13.546875 -30.921875 C 11.972656 -32.148438 11.1875 -33.6875 11.1875 -35.53125 C 11.1875 -38.394531 12.789062 -40.769531 16 -42.65625 C 19.207031 -44.550781 24.109375 -45.5 30.703125 -45.5 Z M 25.890625 -19.4375 C 24.285156 -19.4375 22.976562 -18.816406 21.96875 -17.578125 C 20.96875 -16.347656 20.46875 -15.019531 20.46875 -13.59375 C 20.46875 -12.675781 20.679688 -11.929688 21.109375 -11.359375 C 21.546875 -10.785156 22.164062 -10.5 22.96875 -10.5 C 23.707031 -10.5 24.519531 -10.796875 25.40625 -11.390625 C 26.300781 -11.992188 26.953125 -12.898438 27.359375 -14.109375 L 29.15625 -19.1875 C 28.1875 -19.351562 27.097656 -19.4375 25.890625 -19.4375 Z M 25.890625 -19.4375 "/></g></g></g><g fill="#ffffff" fill-opacity="1"><g transform="translate(443.035236, 106.976658)"><g><path d="M 28.296875 -46.28125 C 33.054688 -46.28125 37.171875 -45.847656 40.640625 -44.984375 C 44.109375 -44.128906 46.773438 -42.925781 48.640625 -41.375 C 50.503906 -39.820312 51.4375 -38.070312 51.4375 -36.125 C 51.4375 -34.113281 50.644531 -32.476562 49.0625 -31.21875 C 47.488281 -29.957031 45.296875 -29.328125 42.484375 -29.328125 C 39.617188 -29.328125 37.195312 -30.039062 35.21875 -31.46875 C 33.238281 -32.90625 32.25 -34.71875 32.25 -36.90625 C 32.25 -37.644531 32.363281 -38.359375 32.59375 -39.046875 C 31.5625 -39.335938 30.644531 -39.484375 29.84375 -39.484375 C 28.414062 -39.484375 27.226562 -39.140625 26.28125 -38.453125 C 25.332031 -37.765625 24.882812 -36.789062 24.9375 -35.53125 C 24.9375 -34.03125 25.679688 -32.765625 27.171875 -31.734375 C 28.671875 -30.703125 31.082031 -29.414062 34.40625 -27.875 C 37.269531 -26.613281 39.632812 -25.453125 41.5 -24.390625 C 43.363281 -23.328125 44.941406 -21.992188 46.234375 -20.390625 C 47.523438 -18.785156 48.171875 -16.890625 48.171875 -14.703125 C 48.171875 -14.242188 48.054688 -13.382812 47.828125 -12.125 C 46.910156 -8.28125 44.359375 -5.238281 40.171875 -3 C 35.984375 -0.769531 30.476562 0.34375 23.65625 0.34375 C 15.96875 0.34375 9.875 -0.6875 5.375 -2.75 C 0.875 -4.8125 -1.375 -7.648438 -1.375 -11.265625 C -1.375 -13.734375 -0.628906 -15.597656 0.859375 -16.859375 C 2.347656 -18.117188 4.328125 -18.75 6.796875 -18.75 C 9.660156 -18.75 12.109375 -17.859375 14.140625 -16.078125 C 16.179688 -14.304688 17.203125 -12.046875 17.203125 -9.296875 C 17.203125 -8.546875 17.113281 -7.769531 16.9375 -6.96875 C 18.320312 -6.625 19.644531 -6.453125 20.90625 -6.453125 C 22.394531 -6.453125 23.625 -6.851562 24.59375 -7.65625 C 25.570312 -8.457031 26.0625 -9.578125 26.0625 -11.015625 C 26.007812 -12.328125 25.347656 -13.457031 24.078125 -14.40625 C 22.816406 -15.351562 20.8125 -16.488281 18.0625 -17.8125 C 15.476562 -19.007812 13.351562 -20.140625 11.6875 -21.203125 C 10.03125 -22.265625 8.613281 -23.597656 7.4375 -25.203125 C 6.257812 -26.804688 5.671875 -28.695312 5.671875 -30.875 C 5.671875 -35.582031 7.632812 -39.328125 11.5625 -42.109375 C 15.5 -44.890625 21.078125 -46.28125 28.296875 -46.28125 Z M 28.296875 -46.28125 "/></g></g></g><g fill="#ffffff" fill-opacity="1"><g transform="translate(494.039184, 106.976658)"><g><path d="M 38.453125 -44.390625 C 39.535156 -44.390625 40.378906 -44.160156 40.984375 -43.703125 C 41.585938 -43.242188 41.890625 -42.609375 41.890625 -41.796875 C 41.890625 -41.566406 41.832031 -41.164062 41.71875 -40.59375 C 40.96875 -38.070312 39.25 -36.8125 36.5625 -36.8125 L 31.5625 -36.8125 L 25.109375 -15.5625 C 24.828125 -14.707031 24.6875 -13.820312 24.6875 -12.90625 C 24.6875 -11.875 24.972656 -11.15625 25.546875 -10.75 C 26.117188 -10.351562 26.921875 -10.15625 27.953125 -10.15625 C 28.867188 -10.15625 30.015625 -10.269531 31.390625 -10.5 C 32.078125 -10.664062 32.679688 -10.75 33.203125 -10.75 C 33.597656 -10.75 33.894531 -10.617188 34.09375 -10.359375 C 34.300781 -10.109375 34.40625 -9.78125 34.40625 -9.375 C 34.46875 -8.226562 33.625 -6.835938 31.875 -5.203125 C 30.125 -3.566406 27.753906 -2.160156 24.765625 -0.984375 C 21.785156 0.191406 18.488281 0.78125 14.875 0.78125 C 10.976562 0.78125 7.851562 -0.109375 5.5 -1.890625 C 3.15625 -3.671875 1.984375 -6.109375 1.984375 -9.203125 C 1.984375 -10.640625 2.210938 -12.015625 2.671875 -13.328125 L 8.171875 -30.359375 C 8.460938 -31.335938 8.609375 -32.113281 8.609375 -32.6875 C 8.609375 -33.832031 8.332031 -34.804688 7.78125 -35.609375 C 7.238281 -36.410156 6.476562 -37.242188 5.5 -38.109375 C 4.644531 -38.910156 4.046875 -39.582031 3.703125 -40.125 C 3.359375 -40.664062 3.269531 -41.3125 3.4375 -42.0625 C 3.664062 -42.8125 4.148438 -43.382812 4.890625 -43.78125 C 5.640625 -44.1875 6.816406 -44.390625 8.421875 -44.390625 L 13.25 -44.390625 L 18.671875 -49.796875 C 20.554688 -51.691406 22.285156 -53.007812 23.859375 -53.75 C 25.441406 -54.5 27.492188 -54.875 30.015625 -54.875 C 33.628906 -54.875 35.4375 -53.5 35.4375 -50.75 C 35.4375 -49.882812 35.320312 -49.082031 35.09375 -48.34375 L 33.890625 -44.390625 Z M 38.453125 -44.390625 "/></g></g></g><g fill="#ffffff" fill-opacity="1"><g transform="translate(531.023486, 106.976658)"><g><path d="M 29.15625 -45.9375 C 36.4375 -45.9375 41.710938 -44.773438 44.984375 -42.453125 C 48.253906 -40.128906 49.890625 -37.160156 49.890625 -33.546875 C 49.890625 -32.453125 49.773438 -31.445312 49.546875 -30.53125 C 48.679688 -26.75 46.285156 -24.039062 42.359375 -22.40625 C 38.429688 -20.769531 33.800781 -19.953125 28.46875 -19.953125 C 25.769531 -19.953125 23.25 -20.125 20.90625 -20.46875 C 20.84375 -17.488281 21.644531 -15.394531 23.3125 -14.1875 C 24.976562 -12.988281 27.300781 -12.390625 30.28125 -12.390625 C 31.65625 -12.390625 32.972656 -12.546875 34.234375 -12.859375 C 35.492188 -13.171875 37.097656 -13.644531 39.046875 -14.28125 C 40.648438 -14.851562 41.738281 -15.140625 42.3125 -15.140625 C 42.945312 -15.140625 43.265625 -14.765625 43.265625 -14.015625 C 43.328125 -12.015625 42.582031 -9.910156 41.03125 -7.703125 C 39.476562 -5.492188 37.179688 -3.613281 34.140625 -2.0625 C 31.109375 -0.507812 27.441406 0.265625 23.140625 0.265625 C 16.773438 0.265625 11.554688 -1.335938 7.484375 -4.546875 C 3.410156 -7.765625 1.375 -12.441406 1.375 -18.578125 C 1.375 -20.296875 1.601562 -22.300781 2.0625 -24.59375 C 3.5 -31.65625 6.640625 -36.976562 11.484375 -40.5625 C 16.328125 -44.144531 22.21875 -45.9375 29.15625 -45.9375 Z M 21.5 -25.625 C 21.726562 -25.570312 22.046875 -25.546875 22.453125 -25.546875 C 24.859375 -25.546875 26.691406 -26.660156 27.953125 -28.890625 C 29.210938 -31.128906 29.816406 -33.628906 29.765625 -36.390625 C 29.703125 -37.992188 29.242188 -38.796875 28.390625 -38.796875 C 27.753906 -38.796875 27.003906 -38.289062 26.140625 -37.28125 C 25.285156 -36.28125 24.441406 -34.773438 23.609375 -32.765625 C 22.773438 -30.765625 22.070312 -28.382812 21.5 -25.625 Z M 21.5 -25.625 "/></g></g></g><g fill="#ffffff" fill-opacity="1"><g transform="translate(579.189106, 106.976658)"><g><path d="M 42.234375 -45.5 C 45.441406 -45.5 48.003906 -44.523438 49.921875 -42.578125 C 51.847656 -40.628906 52.8125 -38.222656 52.8125 -35.359375 C 52.8125 -34.265625 52.695312 -33.257812 52.46875 -32.34375 C 51.894531 -29.988281 50.804688 -28.179688 49.203125 -26.921875 C 47.597656 -25.660156 45.675781 -25.03125 43.4375 -25.03125 C 41.257812 -25.03125 39.609375 -25.546875 38.484375 -26.578125 C 37.367188 -27.609375 36.382812 -28.984375 35.53125 -30.703125 C 35.070312 -31.679688 34.640625 -32.398438 34.234375 -32.859375 C 33.828125 -33.316406 33.367188 -33.546875 32.859375 -33.546875 C 32.285156 -33.546875 31.78125 -33.316406 31.34375 -32.859375 C 30.914062 -32.398438 30.53125 -31.597656 30.1875 -30.453125 L 23.5625 -8.953125 C 23.445312 -8.660156 23.390625 -8.226562 23.390625 -7.65625 C 23.390625 -6.90625 23.601562 -6.285156 24.03125 -5.796875 C 24.46875 -5.316406 25.0625 -4.847656 25.8125 -4.390625 C 26.5 -3.929688 26.957031 -3.554688 27.1875 -3.265625 C 27.414062 -2.984375 27.5 -2.613281 27.4375 -2.15625 C 27.320312 -1.40625 26.90625 -0.859375 26.1875 -0.515625 C 25.46875 -0.171875 24.25 0 22.53125 0 L 0.515625 0 C -0.972656 0 -2.046875 -0.242188 -2.703125 -0.734375 C -3.367188 -1.222656 -3.613281 -1.867188 -3.4375 -2.671875 C -3.207031 -3.359375 -2.609375 -3.957031 -1.640625 -4.46875 C -0.773438 -4.925781 -0.0546875 -5.46875 0.515625 -6.09375 C 1.085938 -6.726562 1.578125 -7.738281 1.984375 -9.125 L 9.640625 -33.96875 C 9.753906 -34.257812 9.8125 -34.664062 9.8125 -35.1875 C 9.8125 -35.8125 9.679688 -36.296875 9.421875 -36.640625 C 9.160156 -36.984375 8.742188 -37.414062 8.171875 -37.9375 C 7.597656 -38.394531 7.195312 -38.796875 6.96875 -39.140625 C 6.738281 -39.484375 6.707031 -39.941406 6.875 -40.515625 C 7.21875 -41.828125 9.023438 -42.984375 12.296875 -43.984375 C 15.566406 -44.992188 18.976562 -45.5 22.53125 -45.5 C 24.882812 -45.5 26.832031 -44.96875 28.375 -43.90625 C 29.925781 -42.84375 30.929688 -41.335938 31.390625 -39.390625 C 34.148438 -43.460938 37.765625 -45.5 42.234375 -45.5 Z M 42.234375 -45.5 "/></g></g></g></svg>