<svg xmlns="http://www.w3.org/2000/svg" xmlns:xlink="http://www.w3.org/1999/xlink" width="1200" zoomAndPan="magnify" viewBox="0 0 900 165.000002" height="220" preserveAspectRatio="xMidYMid meet" version="1.0"><defs><g/><clipPath id="4dc9c53cc2"><path d="M 857 44 L 897.289062 44 L 897.289062 106 L 857 106 Z M 857 44 " clip-rule="nonzero"/></clipPath></defs><g fill="#ffffff" fill-opacity="1"><g transform="translate(7.739518, 105.858435)"><g><path d="M 50.8125 -44.15625 C 51.863281 -47.976562 53.34375 -50.859375 55.25 -52.796875 C 57.164062 -54.742188 59.816406 -55.71875 63.203125 -55.71875 C 65.859375 -55.71875 67.988281 -54.867188 69.59375 -53.171875 C 71.207031 -51.484375 72.015625 -49.394531 72.015625 -46.90625 C 72.015625 -46.070312 71.875 -45.097656 71.59375 -43.984375 C 70.988281 -41.546875 69.910156 -39.785156 68.359375 -38.703125 C 66.804688 -37.628906 65.113281 -37.09375 63.28125 -37.09375 C 62.34375 -37.09375 61.5 -37.160156 60.75 -37.296875 C 60 -37.429688 59.289062 -37.613281 58.625 -37.84375 L 53.71875 -19.796875 C 51.945312 -13.191406 48.976562 -8.15625 44.8125 -4.6875 C 40.65625 -1.226562 35.003906 0.5 27.859375 0.5 C 21.316406 0.5 16.226562 -0.742188 12.59375 -3.234375 C 8.96875 -5.734375 7.15625 -9.617188 7.15625 -14.890625 C 7.15625 -17.429688 7.597656 -20.226562 8.484375 -23.28125 L 14.796875 -45.65625 C 15.023438 -46.375 15.140625 -47.066406 15.140625 -47.734375 C 15.140625 -48.398438 15.039062 -48.941406 14.84375 -49.359375 C 14.644531 -49.773438 14.378906 -50.257812 14.046875 -50.8125 C 13.554688 -51.53125 13.3125 -52.113281 13.3125 -52.5625 C 13.3125 -52.78125 13.363281 -53.054688 13.46875 -53.390625 C 13.6875 -54.109375 14.179688 -54.617188 14.953125 -54.921875 C 15.734375 -55.222656 16.875 -55.375 18.375 -55.375 L 37.921875 -55.375 C 40.304688 -55.375 41.5 -54.65625 41.5 -53.21875 C 41.5 -52.882812 41.46875 -52.609375 41.40625 -52.390625 C 41.238281 -51.890625 41.003906 -51.484375 40.703125 -51.171875 C 40.398438 -50.867188 39.941406 -50.523438 39.328125 -50.140625 C 38.441406 -49.640625 37.722656 -49.082031 37.171875 -48.46875 C 36.617188 -47.863281 36.144531 -46.925781 35.75 -45.65625 L 28.515625 -20.203125 C 28.023438 -18.316406 27.78125 -16.710938 27.78125 -15.390625 C 27.78125 -11.671875 29.773438 -9.8125 33.765625 -9.8125 C 36.203125 -9.8125 38.238281 -10.597656 39.875 -12.171875 C 41.507812 -13.753906 42.878906 -16.460938 43.984375 -20.296875 Z M 50.8125 -44.15625 "/></g></g></g><g fill="#ffffff" fill-opacity="1"><g transform="translate(73.257409, 105.858435)"><g><path d="M 26.53125 -61.453125 C 29.738281 -61.453125 32.101562 -60.84375 33.625 -59.625 C 35.15625 -58.40625 35.921875 -56.742188 35.921875 -54.640625 C 35.921875 -53.410156 35.726562 -52.21875 35.34375 -51.0625 L 22.28125 -8.640625 C 22.113281 -7.984375 22.03125 -7.40625 22.03125 -6.90625 C 22.03125 -6.1875 22.171875 -5.617188 22.453125 -5.203125 C 22.734375 -4.785156 23.117188 -4.378906 23.609375 -3.984375 C 24.003906 -3.597656 24.285156 -3.28125 24.453125 -3.03125 C 24.617188 -2.78125 24.644531 -2.460938 24.53125 -2.078125 C 24.25 -1.359375 23.691406 -0.832031 22.859375 -0.5 C 22.035156 -0.164062 20.765625 0 19.046875 0 L 0.078125 0 C -1.359375 0 -2.410156 -0.234375 -3.078125 -0.703125 C -3.742188 -1.171875 -3.960938 -1.796875 -3.734375 -2.578125 C -3.515625 -3.242188 -2.9375 -3.828125 -2 -4.328125 C -1.164062 -4.765625 -0.472656 -5.285156 0.078125 -5.890625 C 0.640625 -6.503906 1.113281 -7.476562 1.5 -8.8125 L 14.140625 -50.3125 C 14.304688 -50.8125 14.390625 -51.226562 14.390625 -51.5625 C 14.390625 -52.164062 14.234375 -52.660156 13.921875 -53.046875 C 13.617188 -53.441406 13.21875 -53.832031 12.71875 -54.21875 C 12.164062 -54.664062 11.765625 -55.050781 11.515625 -55.375 C 11.265625 -55.707031 11.222656 -56.15625 11.390625 -56.71875 C 11.722656 -57.988281 13.46875 -59.09375 16.625 -60.03125 C 19.789062 -60.976562 23.09375 -61.453125 26.53125 -61.453125 Z M 26.53125 -61.453125 "/></g></g></g><g fill="#ffffff" fill-opacity="1"><g transform="translate(103.688304, 105.858435)"><g><path d="M 37.171875 -42.90625 C 38.222656 -42.90625 39.039062 -42.679688 39.625 -42.234375 C 40.207031 -41.796875 40.5 -41.1875 40.5 -40.40625 C 40.5 -40.1875 40.441406 -39.800781 40.328125 -39.25 C 39.609375 -36.8125 37.945312 -35.59375 35.34375 -35.59375 L 30.515625 -35.59375 L 24.28125 -15.046875 C 24 -14.210938 23.859375 -13.351562 23.859375 -12.46875 C 23.859375 -11.476562 24.132812 -10.785156 24.6875 -10.390625 C 25.25 -10.003906 26.03125 -9.8125 27.03125 -9.8125 C 27.914062 -9.8125 29.023438 -9.921875 30.359375 -10.140625 C 31.015625 -10.304688 31.59375 -10.390625 32.09375 -10.390625 C 32.488281 -10.390625 32.78125 -10.265625 32.96875 -10.015625 C 33.164062 -9.765625 33.265625 -9.445312 33.265625 -9.0625 C 33.316406 -7.957031 32.492188 -6.613281 30.796875 -5.03125 C 29.109375 -3.445312 26.820312 -2.085938 23.9375 -0.953125 C 21.0625 0.179688 17.878906 0.75 14.390625 0.75 C 10.617188 0.75 7.59375 -0.109375 5.3125 -1.828125 C 3.039062 -3.546875 1.90625 -5.898438 1.90625 -8.890625 C 1.90625 -10.285156 2.128906 -11.617188 2.578125 -12.890625 L 7.90625 -29.359375 C 8.175781 -30.296875 8.3125 -31.039062 8.3125 -31.59375 C 8.3125 -32.707031 8.046875 -33.648438 7.515625 -34.421875 C 6.992188 -35.203125 6.265625 -36.007812 5.328125 -36.84375 C 4.492188 -37.613281 3.910156 -38.257812 3.578125 -38.78125 C 3.242188 -39.3125 3.160156 -39.9375 3.328125 -40.65625 C 3.546875 -41.382812 4.015625 -41.941406 4.734375 -42.328125 C 5.460938 -42.710938 6.601562 -42.90625 8.15625 -42.90625 L 12.8125 -42.90625 L 18.046875 -48.140625 C 19.878906 -49.972656 21.554688 -51.25 23.078125 -51.96875 C 24.597656 -52.6875 26.578125 -53.046875 29.015625 -53.046875 C 32.515625 -53.046875 34.265625 -51.71875 34.265625 -49.0625 C 34.265625 -48.226562 34.148438 -47.453125 33.921875 -46.734375 L 32.765625 -42.90625 Z M 37.171875 -42.90625 "/></g></g></g><g fill="#ffffff" fill-opacity="1"><g transform="translate(139.44045, 105.858435)"><g><path d="M 40.828125 -43.984375 C 43.929688 -43.984375 46.410156 -43.039062 48.265625 -41.15625 C 50.128906 -39.269531 51.0625 -36.941406 51.0625 -34.171875 C 51.0625 -33.117188 50.945312 -32.148438 50.71875 -31.265625 C 50.164062 -28.992188 49.113281 -27.25 47.5625 -26.03125 C 46.007812 -24.8125 44.15625 -24.203125 42 -24.203125 C 39.882812 -24.203125 38.285156 -24.695312 37.203125 -25.6875 C 36.128906 -26.6875 35.175781 -28.019531 34.34375 -29.6875 C 33.894531 -30.625 33.476562 -31.316406 33.09375 -31.765625 C 32.707031 -32.210938 32.265625 -32.4375 31.765625 -32.4375 C 31.210938 -32.4375 30.726562 -32.210938 30.3125 -31.765625 C 29.894531 -31.316406 29.519531 -30.539062 29.1875 -29.4375 L 22.78125 -8.640625 C 22.675781 -8.367188 22.625 -7.957031 22.625 -7.40625 C 22.625 -6.675781 22.828125 -6.078125 23.234375 -5.609375 C 23.648438 -5.140625 24.222656 -4.679688 24.953125 -4.234375 C 25.609375 -3.796875 26.046875 -3.4375 26.265625 -3.15625 C 26.492188 -2.882812 26.582031 -2.523438 26.53125 -2.078125 C 26.414062 -1.359375 26.007812 -0.832031 25.3125 -0.5 C 24.625 -0.164062 23.445312 0 21.78125 0 L 0.5 0 C -0.9375 0 -1.972656 -0.234375 -2.609375 -0.703125 C -3.253906 -1.171875 -3.492188 -1.796875 -3.328125 -2.578125 C -3.109375 -3.242188 -2.523438 -3.828125 -1.578125 -4.328125 C -0.742188 -4.765625 -0.0507812 -5.285156 0.5 -5.890625 C 1.050781 -6.503906 1.519531 -7.476562 1.90625 -8.8125 L 9.3125 -32.84375 C 9.425781 -33.125 9.484375 -33.515625 9.484375 -34.015625 C 9.484375 -34.617188 9.359375 -35.085938 9.109375 -35.421875 C 8.859375 -35.753906 8.457031 -36.171875 7.90625 -36.671875 C 7.34375 -37.117188 6.953125 -37.503906 6.734375 -37.828125 C 6.515625 -38.160156 6.488281 -38.609375 6.65625 -39.171875 C 6.988281 -40.441406 8.734375 -41.5625 11.890625 -42.53125 C 15.046875 -43.5 18.34375 -43.984375 21.78125 -43.984375 C 24.0625 -43.984375 25.945312 -43.46875 27.4375 -42.4375 C 28.9375 -41.414062 29.910156 -39.960938 30.359375 -38.078125 C 33.015625 -42.015625 36.503906 -43.984375 40.828125 -43.984375 Z M 40.828125 -43.984375 "/></g></g></g><g fill="#ffffff" fill-opacity="1"><g transform="translate(187.581136, 105.858435)"><g><path d="M 29.6875 -43.984375 C 36.0625 -43.984375 41.160156 -42.804688 44.984375 -40.453125 C 48.804688 -38.097656 50.71875 -34.507812 50.71875 -29.6875 C 50.71875 -27.851562 50.390625 -25.773438 49.734375 -23.453125 L 46.3125 -11.96875 C 46.257812 -11.75 46.234375 -11.472656 46.234375 -11.140625 C 46.234375 -10.253906 46.59375 -9.8125 47.3125 -9.8125 C 47.976562 -9.8125 48.546875 -10.101562 49.015625 -10.6875 C 49.492188 -11.269531 49.816406 -11.5625 49.984375 -11.5625 C 50.253906 -11.5625 50.484375 -11.363281 50.671875 -10.96875 C 50.867188 -10.582031 50.96875 -10.140625 50.96875 -9.640625 C 51.03125 -8.148438 50.460938 -6.628906 49.265625 -5.078125 C 48.078125 -3.523438 46.484375 -2.25 44.484375 -1.25 C 42.492188 -0.25 40.304688 0.25 37.921875 0.25 C 35.035156 0.25 32.566406 -0.273438 30.515625 -1.328125 C 28.460938 -2.378906 27.050781 -3.929688 26.28125 -5.984375 C 24.613281 -3.992188 22.644531 -2.457031 20.375 -1.375 C 18.101562 -0.289062 15.664062 0.25 13.0625 0.25 C 10.113281 0.25 7.640625 -0.316406 5.640625 -1.453125 C 3.648438 -2.585938 2.171875 -4.054688 1.203125 -5.859375 C 0.234375 -7.660156 -0.25 -9.5625 -0.25 -11.5625 C -0.25 -12.445312 -0.164062 -13.304688 0 -14.140625 C 0.882812 -17.960938 2.8125 -20.84375 5.78125 -22.78125 C 8.75 -24.71875 12.28125 -25.6875 16.375 -25.6875 C 20.976562 -25.6875 25.5 -24.96875 29.9375 -23.53125 L 32.015625 -29.015625 C 32.734375 -31.347656 33.09375 -33.148438 33.09375 -34.421875 C 33.039062 -35.753906 32.597656 -36.753906 31.765625 -37.421875 C 30.929688 -38.085938 29.65625 -38.421875 27.9375 -38.421875 C 28.269531 -37.535156 28.4375 -36.617188 28.4375 -35.671875 C 28.4375 -33.617188 27.660156 -31.84375 26.109375 -30.34375 C 24.554688 -28.851562 22.335938 -28.109375 19.453125 -28.109375 C 16.742188 -28.109375 14.625 -28.703125 13.09375 -29.890625 C 11.570312 -31.085938 10.8125 -32.570312 10.8125 -34.34375 C 10.8125 -37.113281 12.363281 -39.410156 15.46875 -41.234375 C 18.570312 -43.066406 23.3125 -43.984375 29.6875 -43.984375 Z M 25.03125 -18.796875 C 23.476562 -18.796875 22.21875 -18.195312 21.25 -17 C 20.28125 -15.8125 19.796875 -14.523438 19.796875 -13.140625 C 19.796875 -12.253906 20 -11.53125 20.40625 -10.96875 C 20.820312 -10.414062 21.421875 -10.140625 22.203125 -10.140625 C 22.921875 -10.140625 23.707031 -10.429688 24.5625 -11.015625 C 25.425781 -11.597656 26.050781 -12.472656 26.4375 -13.640625 L 28.1875 -18.546875 C 27.25 -18.710938 26.195312 -18.796875 25.03125 -18.796875 Z M 25.03125 -18.796875 "/></g></g></g><g fill="#ffffff" fill-opacity="1"><g transform="translate(241.957657, 105.858435)"><g/></g></g><g fill="#ffffff" fill-opacity="1"><g transform="translate(258.586581, 105.858435)"><g><path d="M 89.3125 -55.375 C 90.476562 -55.375 91.378906 -55.191406 92.015625 -54.828125 C 92.648438 -54.472656 92.96875 -53.960938 92.96875 -53.296875 C 92.96875 -53.023438 92.882812 -52.664062 92.71875 -52.21875 C 92.550781 -51.71875 92.316406 -51.34375 92.015625 -51.09375 C 91.710938 -50.84375 91.253906 -50.523438 90.640625 -50.140625 C 89.753906 -49.640625 89.046875 -49.082031 88.515625 -48.46875 C 87.992188 -47.863281 87.535156 -46.925781 87.140625 -45.65625 L 77 -9.890625 C 76.78125 -9.171875 76.671875 -8.476562 76.671875 -7.8125 C 76.671875 -7.207031 76.765625 -6.695312 76.953125 -6.28125 C 77.148438 -5.863281 77.414062 -5.378906 77.75 -4.828125 C 77.96875 -4.546875 78.160156 -4.253906 78.328125 -3.953125 C 78.492188 -3.648438 78.578125 -3.332031 78.578125 -3 C 78.578125 -2.882812 78.523438 -2.601562 78.421875 -2.15625 C 78.191406 -1.4375 77.675781 -0.910156 76.875 -0.578125 C 76.070312 -0.242188 74.921875 -0.078125 73.421875 -0.078125 L 53.890625 -0.078125 C 52.722656 -0.078125 51.816406 -0.269531 51.171875 -0.65625 C 50.535156 -1.050781 50.21875 -1.582031 50.21875 -2.25 C 50.21875 -2.582031 50.300781 -2.941406 50.46875 -3.328125 C 50.632812 -3.710938 50.867188 -4.054688 51.171875 -4.359375 C 51.484375 -4.671875 51.765625 -4.894531 52.015625 -5.03125 C 52.265625 -5.164062 52.445312 -5.289062 52.5625 -5.40625 C 53.445312 -5.90625 54.164062 -6.457031 54.71875 -7.0625 C 55.269531 -7.675781 55.738281 -8.617188 56.125 -9.890625 L 62.453125 -32.34375 L 40.90625 -5.65625 C 39.132812 -3.488281 37.707031 -2.003906 36.625 -1.203125 C 35.550781 -0.398438 34.320312 0 32.9375 0 C 31.601562 0 30.5625 -0.425781 29.8125 -1.28125 C 29.0625 -2.144531 28.382812 -3.601562 27.78125 -5.65625 L 19.953125 -31.34375 L 13.796875 -9.8125 C 13.578125 -9.09375 13.46875 -8.398438 13.46875 -7.734375 C 13.46875 -7.066406 13.5625 -6.507812 13.75 -6.0625 C 13.945312 -5.625 14.242188 -5.15625 14.640625 -4.65625 C 15.140625 -3.9375 15.390625 -3.351562 15.390625 -2.90625 C 15.390625 -2.800781 15.332031 -2.523438 15.21875 -2.078125 C 15 -1.304688 14.5 -0.765625 13.71875 -0.453125 C 12.945312 -0.148438 11.785156 0 10.234375 0 L 3.328125 0 C 2.160156 0 1.257812 -0.191406 0.625 -0.578125 C -0.0078125 -0.972656 -0.328125 -1.5 -0.328125 -2.15625 C -0.328125 -2.488281 -0.242188 -2.851562 -0.078125 -3.25 C 0.140625 -3.851562 0.5 -4.320312 1 -4.65625 C 1.5 -4.988281 1.800781 -5.179688 1.90625 -5.234375 C 2.800781 -5.796875 3.523438 -6.363281 4.078125 -6.9375 C 4.628906 -7.519531 5.097656 -8.476562 5.484375 -9.8125 L 15.640625 -45.734375 L 14.296875 -50.140625 C 14.023438 -50.972656 13.890625 -51.78125 13.890625 -52.5625 C 13.890625 -53.550781 14.207031 -54.265625 14.84375 -54.703125 C 15.476562 -55.148438 16.460938 -55.375 17.796875 -55.375 L 30.6875 -55.375 C 32.34375 -55.375 33.570312 -55.015625 34.375 -54.296875 C 35.1875 -53.578125 35.84375 -52.332031 36.34375 -50.5625 L 44.65625 -22.953125 L 67.1875 -50.96875 C 68.632812 -52.75 70.050781 -53.925781 71.4375 -54.5 C 72.820312 -55.082031 74.648438 -55.375 76.921875 -55.375 Z M 89.3125 -55.375 "/></g></g></g><g fill="#ffffff" fill-opacity="1"><g transform="translate(344.641169, 105.858435)"><g><path d="M 49.390625 -11.46875 C 49.285156 -11.03125 49.234375 -10.703125 49.234375 -10.484375 C 49.234375 -10.085938 49.328125 -9.78125 49.515625 -9.5625 C 49.710938 -9.34375 49.976562 -9.234375 50.3125 -9.234375 C 50.976562 -9.234375 51.546875 -9.523438 52.015625 -10.109375 C 52.484375 -10.691406 52.800781 -10.984375 52.96875 -10.984375 C 53.25 -10.984375 53.484375 -10.800781 53.671875 -10.4375 C 53.867188 -10.070312 53.96875 -9.640625 53.96875 -9.140625 C 54.019531 -7.585938 53.460938 -6.050781 52.296875 -4.53125 C 51.140625 -3.007812 49.503906 -1.75 47.390625 -0.75 C 45.285156 0.25 42.929688 0.75 40.328125 0.75 C 37.054688 0.75 34.453125 0.0820312 32.515625 -1.25 C 30.578125 -2.582031 29.328125 -4.328125 28.765625 -6.484375 C 26.773438 -4.265625 24.570312 -2.585938 22.15625 -1.453125 C 19.75 -0.316406 17.296875 0.25 14.796875 0.25 C 10.921875 0.25 7.664062 -0.703125 5.03125 -2.609375 C 2.394531 -4.523438 1.078125 -7.203125 1.078125 -10.640625 C 1.078125 -12.191406 1.351562 -13.800781 1.90625 -15.46875 L 7.234375 -32.84375 C 7.398438 -33.34375 7.484375 -33.757812 7.484375 -34.09375 C 7.484375 -34.707031 7.34375 -35.191406 7.0625 -35.546875 C 6.789062 -35.910156 6.378906 -36.285156 5.828125 -36.671875 C 5.265625 -37.117188 4.875 -37.503906 4.65625 -37.828125 C 4.4375 -38.160156 4.410156 -38.609375 4.578125 -39.171875 C 4.910156 -40.441406 6.65625 -41.5625 9.8125 -42.53125 C 12.96875 -43.5 16.265625 -43.984375 19.703125 -43.984375 C 22.921875 -43.984375 25.273438 -43.375 26.765625 -42.15625 C 28.265625 -40.9375 29.015625 -39.273438 29.015625 -37.171875 C 29.015625 -35.898438 28.820312 -34.679688 28.4375 -33.515625 L 23.203125 -16.21875 C 22.984375 -15.601562 22.875 -15.019531 22.875 -14.46875 C 22.875 -13.695312 23.09375 -13.113281 23.53125 -12.71875 C 23.976562 -12.332031 24.5625 -12.140625 25.28125 -12.140625 C 26.332031 -12.140625 27.191406 -12.441406 27.859375 -13.046875 C 28.523438 -13.660156 29.191406 -14.6875 29.859375 -16.125 L 34.921875 -32.84375 C 35.085938 -33.34375 35.171875 -33.757812 35.171875 -34.09375 C 35.171875 -34.707031 35.03125 -35.191406 34.75 -35.546875 C 34.476562 -35.910156 34.09375 -36.285156 33.59375 -36.671875 C 33.039062 -37.117188 32.648438 -37.503906 32.421875 -37.828125 C 32.203125 -38.160156 32.175781 -38.609375 32.34375 -39.171875 C 32.625 -40.441406 34.34375 -41.5625 37.5 -42.53125 C 40.664062 -43.5 43.96875 -43.984375 47.40625 -43.984375 C 50.613281 -43.984375 52.976562 -43.375 54.5 -42.15625 C 56.03125 -40.9375 56.796875 -39.300781 56.796875 -37.25 C 56.796875 -36.195312 56.570312 -34.953125 56.125 -33.515625 Z M 49.390625 -11.46875 "/></g></g></g><g fill="#ffffff" fill-opacity="1"><g transform="translate(401.678292, 105.858435)"><g><path d="M 27.359375 -44.734375 C 31.960938 -44.734375 35.941406 -44.316406 39.296875 -43.484375 C 42.648438 -42.660156 45.226562 -41.5 47.03125 -40 C 48.832031 -38.5 49.734375 -36.804688 49.734375 -34.921875 C 49.734375 -32.984375 48.96875 -31.40625 47.4375 -30.1875 C 45.914062 -28.96875 43.796875 -28.359375 41.078125 -28.359375 C 38.304688 -28.359375 35.960938 -29.050781 34.046875 -30.4375 C 32.140625 -31.820312 31.1875 -33.566406 31.1875 -35.671875 C 31.1875 -36.390625 31.296875 -37.082031 31.515625 -37.75 C 30.515625 -38.03125 29.628906 -38.171875 28.859375 -38.171875 C 27.472656 -38.171875 26.320312 -37.835938 25.40625 -37.171875 C 24.488281 -36.503906 24.054688 -35.5625 24.109375 -34.34375 C 24.109375 -32.90625 24.828125 -31.6875 26.265625 -30.6875 C 27.710938 -29.6875 30.046875 -28.4375 33.265625 -26.9375 C 36.035156 -25.71875 38.320312 -24.59375 40.125 -23.5625 C 41.925781 -22.539062 43.445312 -21.253906 44.6875 -19.703125 C 45.9375 -18.148438 46.5625 -16.320312 46.5625 -14.21875 C 46.5625 -13.769531 46.453125 -12.9375 46.234375 -11.71875 C 45.347656 -8.007812 42.878906 -5.070312 38.828125 -2.90625 C 34.785156 -0.75 29.46875 0.328125 22.875 0.328125 C 15.4375 0.328125 9.539062 -0.664062 5.1875 -2.65625 C 0.84375 -4.65625 -1.328125 -7.398438 -1.328125 -10.890625 C -1.328125 -13.273438 -0.609375 -15.078125 0.828125 -16.296875 C 2.273438 -17.515625 4.1875 -18.125 6.5625 -18.125 C 9.34375 -18.125 11.710938 -17.265625 13.671875 -15.546875 C 15.640625 -13.828125 16.625 -11.640625 16.625 -8.984375 C 16.625 -8.265625 16.539062 -7.515625 16.375 -6.734375 C 17.707031 -6.398438 18.984375 -6.234375 20.203125 -6.234375 C 21.648438 -6.234375 22.84375 -6.617188 23.78125 -7.390625 C 24.726562 -8.171875 25.203125 -9.253906 25.203125 -10.640625 C 25.140625 -11.921875 24.5 -13.015625 23.28125 -13.921875 C 22.0625 -14.835938 20.125 -15.9375 17.46875 -17.21875 C 14.96875 -18.375 12.910156 -19.460938 11.296875 -20.484375 C 9.691406 -21.515625 8.320312 -22.804688 7.1875 -24.359375 C 6.050781 -25.910156 5.484375 -27.742188 5.484375 -29.859375 C 5.484375 -34.398438 7.378906 -38.015625 11.171875 -40.703125 C 14.972656 -43.390625 20.367188 -44.734375 27.359375 -44.734375 Z M 27.359375 -44.734375 "/></g></g></g><g fill="#ffffff" fill-opacity="1"><g transform="translate(450.983021, 105.858435)"><g><path d="M 21.875 -43.984375 C 25.082031 -43.984375 27.4375 -43.375 28.9375 -42.15625 C 30.4375 -40.9375 31.1875 -39.273438 31.1875 -37.171875 C 31.1875 -35.898438 30.992188 -34.679688 30.609375 -33.515625 L 22.953125 -8.640625 C 22.785156 -7.984375 22.703125 -7.40625 22.703125 -6.90625 C 22.703125 -6.1875 22.835938 -5.617188 23.109375 -5.203125 C 23.390625 -4.785156 23.78125 -4.378906 24.28125 -3.984375 C 24.664062 -3.597656 24.941406 -3.28125 25.109375 -3.03125 C 25.273438 -2.78125 25.304688 -2.460938 25.203125 -2.078125 C 24.921875 -1.359375 24.363281 -0.832031 23.53125 -0.5 C 22.695312 -0.164062 21.421875 0 19.703125 0 L 0.75 0 C -0.6875 0 -1.738281 -0.234375 -2.40625 -0.703125 C -3.070312 -1.171875 -3.296875 -1.796875 -3.078125 -2.578125 C -2.859375 -3.242188 -2.273438 -3.828125 -1.328125 -4.328125 C -0.492188 -4.765625 0.195312 -5.285156 0.75 -5.890625 C 1.300781 -6.503906 1.769531 -7.476562 2.15625 -8.8125 L 9.390625 -32.84375 C 9.554688 -33.34375 9.640625 -33.757812 9.640625 -34.09375 C 9.640625 -34.707031 9.5 -35.191406 9.21875 -35.546875 C 8.945312 -35.910156 8.535156 -36.285156 7.984375 -36.671875 C 7.429688 -37.117188 7.039062 -37.503906 6.8125 -37.828125 C 6.59375 -38.160156 6.566406 -38.609375 6.734375 -39.171875 C 7.066406 -40.441406 8.8125 -41.5625 11.96875 -42.53125 C 15.132812 -43.5 18.4375 -43.984375 21.875 -43.984375 Z M 27.4375 -62.375 C 29.601562 -62.375 31.40625 -61.664062 32.84375 -60.25 C 34.289062 -58.832031 35.015625 -57.097656 35.015625 -55.046875 C 35.015625 -53.609375 34.640625 -52.195312 33.890625 -50.8125 C 33.140625 -49.425781 32.082031 -48.300781 30.71875 -47.4375 C 29.363281 -46.582031 27.859375 -46.15625 26.203125 -46.15625 C 24.085938 -46.15625 22.320312 -46.859375 20.90625 -48.265625 C 19.5 -49.679688 18.769531 -51.441406 18.71875 -53.546875 C 18.71875 -54.929688 19.078125 -56.300781 19.796875 -57.65625 C 20.515625 -59.019531 21.535156 -60.144531 22.859375 -61.03125 C 24.191406 -61.925781 25.71875 -62.375 27.4375 -62.375 Z M 27.4375 -62.375 "/></g></g></g><g fill="#ffffff" fill-opacity="1"><g transform="translate(481.413917, 105.858435)"><g><path d="M 30.1875 -44.40625 C 33.570312 -44.40625 36.535156 -43.921875 39.078125 -42.953125 C 41.628906 -41.984375 43.613281 -40.648438 45.03125 -38.953125 C 46.445312 -37.265625 47.15625 -35.394531 47.15625 -33.34375 C 47.15625 -31.125 46.390625 -29.289062 44.859375 -27.84375 C 43.335938 -26.40625 41.273438 -25.6875 38.671875 -25.6875 C 36.003906 -25.6875 33.921875 -26.363281 32.421875 -27.71875 C 30.929688 -29.082031 30.1875 -30.929688 30.1875 -33.265625 C 30.1875 -34.367188 30.351562 -35.53125 30.6875 -36.75 C 28.351562 -36.144531 26.285156 -34.941406 24.484375 -33.140625 C 22.679688 -31.335938 21.476562 -28.96875 20.875 -26.03125 C 20.539062 -24.363281 20.375 -22.863281 20.375 -21.53125 C 20.375 -18.539062 21.203125 -16.269531 22.859375 -14.71875 C 24.523438 -13.164062 26.910156 -12.390625 30.015625 -12.390625 C 31.796875 -12.390625 33.320312 -12.566406 34.59375 -12.921875 C 35.863281 -13.285156 37.164062 -13.773438 38.5 -14.390625 C 39.613281 -14.941406 40.414062 -15.21875 40.90625 -15.21875 C 41.238281 -15.21875 41.460938 -15.144531 41.578125 -15 C 41.691406 -14.863281 41.75 -14.578125 41.75 -14.140625 C 41.800781 -12.085938 40.953125 -9.9375 39.203125 -7.6875 C 37.460938 -5.445312 35.050781 -3.5625 31.96875 -2.03125 C 28.894531 -0.507812 25.445312 0.25 21.625 0.25 C 17.632812 0.25 14.097656 -0.484375 11.015625 -1.953125 C 7.941406 -3.421875 5.554688 -5.523438 3.859375 -8.265625 C 2.171875 -11.015625 1.328125 -14.21875 1.328125 -17.875 C 1.328125 -19.59375 1.550781 -21.503906 2 -23.609375 C 3.488281 -30.484375 6.796875 -35.664062 11.921875 -39.15625 C 17.054688 -42.65625 23.144531 -44.40625 30.1875 -44.40625 Z M 30.1875 -44.40625 "/></g></g></g><g fill="#ffffff" fill-opacity="1"><g transform="translate(526.478261, 105.858435)"><g/></g></g><g fill="#ffffff" fill-opacity="1"><g transform="translate(543.107185, 105.858435)"><g><path d="M 54.21875 -55.375 C 56.269531 -55.375 57.863281 -54.929688 59 -54.046875 C 60.132812 -53.160156 60.703125 -51.941406 60.703125 -50.390625 C 60.703125 -49.617188 60.59375 -48.867188 60.375 -48.140625 L 58.203125 -40.40625 C 57.816406 -38.96875 57.179688 -37.941406 56.296875 -37.328125 C 55.410156 -36.722656 54.242188 -36.421875 52.796875 -36.421875 C 51.410156 -36.421875 50.300781 -36.710938 49.46875 -37.296875 C 48.644531 -37.878906 48.039062 -38.835938 47.65625 -40.171875 L 46.3125 -44.90625 C 46.09375 -45.738281 45.816406 -46.289062 45.484375 -46.5625 C 45.148438 -46.84375 44.457031 -46.984375 43.40625 -46.984375 L 35.09375 -46.984375 L 30.4375 -30.515625 L 32.015625 -30.515625 C 32.785156 -30.515625 33.460938 -30.625 34.046875 -30.84375 C 34.628906 -31.070312 35.253906 -31.488281 35.921875 -32.09375 L 38.5 -34.265625 C 39.445312 -35.085938 40.289062 -35.679688 41.03125 -36.046875 C 41.78125 -36.410156 42.570312 -36.59375 43.40625 -36.59375 C 44.457031 -36.59375 45.328125 -36.285156 46.015625 -35.671875 C 46.710938 -35.066406 47.0625 -34.207031 47.0625 -33.09375 C 47.0625 -32.65625 46.976562 -32.128906 46.8125 -31.515625 L 43.15625 -18.875 C 42.320312 -16.15625 40.828125 -14.796875 38.671875 -14.796875 C 36.890625 -14.796875 35.503906 -15.710938 34.515625 -17.546875 L 33.015625 -20.375 C 32.628906 -21.144531 32.269531 -21.640625 31.9375 -21.859375 C 31.601562 -22.085938 31.101562 -22.203125 30.4375 -22.203125 L 28.03125 -22.203125 L 24.53125 -9.8125 C 24.414062 -9.476562 24.359375 -9.035156 24.359375 -8.484375 C 24.359375 -7.703125 24.539062 -7.0625 24.90625 -6.5625 C 25.269531 -6.070312 25.8125 -5.546875 26.53125 -4.984375 C 27.132812 -4.484375 27.546875 -4.082031 27.765625 -3.78125 C 27.992188 -3.476562 28.109375 -3.101562 28.109375 -2.65625 C 28.109375 -1.664062 27.664062 -0.972656 26.78125 -0.578125 C 25.894531 -0.191406 24.59375 0 22.875 0 L 2 0 C 0.550781 0 -0.53125 -0.257812 -1.25 -0.78125 C -1.96875 -1.3125 -2.21875 -2.050781 -2 -3 C -1.882812 -3.488281 -1.675781 -3.882812 -1.375 -4.1875 C -1.070312 -4.5 -0.613281 -4.847656 0 -5.234375 C 0.9375 -5.796875 1.679688 -6.378906 2.234375 -6.984375 C 2.796875 -7.597656 3.242188 -8.539062 3.578125 -9.8125 L 13.796875 -45.65625 C 14.023438 -46.375 14.140625 -47.039062 14.140625 -47.65625 C 14.140625 -48.3125 14.039062 -48.863281 13.84375 -49.3125 C 13.644531 -49.757812 13.351562 -50.226562 12.96875 -50.71875 C 12.46875 -51.445312 12.21875 -52.03125 12.21875 -52.46875 C 12.21875 -52.632812 12.273438 -52.941406 12.390625 -53.390625 C 12.609375 -54.109375 13.101562 -54.617188 13.875 -54.921875 C 14.65625 -55.222656 15.796875 -55.375 17.296875 -55.375 Z M 54.21875 -55.375 "/></g></g></g><g fill="#ffffff" fill-opacity="1"><g transform="translate(595.571384, 105.858435)"><g><path d="M 28.1875 -44.40625 C 35.226562 -44.40625 40.328125 -43.28125 43.484375 -41.03125 C 46.648438 -38.789062 48.234375 -35.925781 48.234375 -32.4375 C 48.234375 -31.375 48.117188 -30.398438 47.890625 -29.515625 C 47.066406 -25.859375 44.753906 -23.238281 40.953125 -21.65625 C 37.160156 -20.082031 32.6875 -19.296875 27.53125 -19.296875 C 24.914062 -19.296875 22.472656 -19.460938 20.203125 -19.796875 C 20.148438 -16.910156 20.925781 -14.882812 22.53125 -13.71875 C 24.144531 -12.550781 26.390625 -11.96875 29.265625 -11.96875 C 30.597656 -11.96875 31.875 -12.117188 33.09375 -12.421875 C 34.3125 -12.734375 35.863281 -13.191406 37.75 -13.796875 C 39.300781 -14.359375 40.351562 -14.640625 40.90625 -14.640625 C 41.519531 -14.640625 41.828125 -14.273438 41.828125 -13.546875 C 41.878906 -11.609375 41.15625 -9.570312 39.65625 -7.4375 C 38.164062 -5.300781 35.953125 -3.484375 33.015625 -1.984375 C 30.078125 -0.492188 26.53125 0.25 22.375 0.25 C 16.21875 0.25 11.171875 -1.300781 7.234375 -4.40625 C 3.296875 -7.507812 1.328125 -12.03125 1.328125 -17.96875 C 1.328125 -19.625 1.550781 -21.5625 2 -23.78125 C 3.382812 -30.601562 6.414062 -35.742188 11.09375 -39.203125 C 15.78125 -42.671875 21.476562 -44.40625 28.1875 -44.40625 Z M 20.796875 -24.78125 C 21.015625 -24.726562 21.316406 -24.703125 21.703125 -24.703125 C 24.035156 -24.703125 25.8125 -25.78125 27.03125 -27.9375 C 28.25 -30.101562 28.828125 -32.515625 28.765625 -35.171875 C 28.710938 -36.722656 28.269531 -37.5 27.4375 -37.5 C 26.832031 -37.5 26.113281 -37.015625 25.28125 -36.046875 C 24.445312 -35.078125 23.628906 -33.617188 22.828125 -31.671875 C 22.023438 -29.734375 21.347656 -27.4375 20.796875 -24.78125 Z M 20.796875 -24.78125 "/></g></g></g><g fill="#ffffff" fill-opacity="1"><g transform="translate(642.132335, 105.858435)"><g><path d="M 27.359375 -44.734375 C 31.960938 -44.734375 35.941406 -44.316406 39.296875 -43.484375 C 42.648438 -42.660156 45.226562 -41.5 47.03125 -40 C 48.832031 -38.5 49.734375 -36.804688 49.734375 -34.921875 C 49.734375 -32.984375 48.96875 -31.40625 47.4375 -30.1875 C 45.914062 -28.96875 43.796875 -28.359375 41.078125 -28.359375 C 38.304688 -28.359375 35.960938 -29.050781 34.046875 -30.4375 C 32.140625 -31.820312 31.1875 -33.566406 31.1875 -35.671875 C 31.1875 -36.390625 31.296875 -37.082031 31.515625 -37.75 C 30.515625 -38.03125 29.628906 -38.171875 28.859375 -38.171875 C 27.472656 -38.171875 26.320312 -37.835938 25.40625 -37.171875 C 24.488281 -36.503906 24.054688 -35.5625 24.109375 -34.34375 C 24.109375 -32.90625 24.828125 -31.6875 26.265625 -30.6875 C 27.710938 -29.6875 30.046875 -28.4375 33.265625 -26.9375 C 36.035156 -25.71875 38.320312 -24.59375 40.125 -23.5625 C 41.925781 -22.539062 43.445312 -21.253906 44.6875 -19.703125 C 45.9375 -18.148438 46.5625 -16.320312 46.5625 -14.21875 C 46.5625 -13.769531 46.453125 -12.9375 46.234375 -11.71875 C 45.347656 -8.007812 42.878906 -5.070312 38.828125 -2.90625 C 34.785156 -0.75 29.46875 0.328125 22.875 0.328125 C 15.4375 0.328125 9.539062 -0.664062 5.1875 -2.65625 C 0.84375 -4.65625 -1.328125 -7.398438 -1.328125 -10.890625 C -1.328125 -13.273438 -0.609375 -15.078125 0.828125 -16.296875 C 2.273438 -17.515625 4.1875 -18.125 6.5625 -18.125 C 9.34375 -18.125 11.710938 -17.265625 13.671875 -15.546875 C 15.640625 -13.828125 16.625 -11.640625 16.625 -8.984375 C 16.625 -8.265625 16.539062 -7.515625 16.375 -6.734375 C 17.707031 -6.398438 18.984375 -6.234375 20.203125 -6.234375 C 21.648438 -6.234375 22.84375 -6.617188 23.78125 -7.390625 C 24.726562 -8.171875 25.203125 -9.253906 25.203125 -10.640625 C 25.140625 -11.921875 24.5 -13.015625 23.28125 -13.921875 C 22.0625 -14.835938 20.125 -15.9375 17.46875 -17.21875 C 14.96875 -18.375 12.910156 -19.460938 11.296875 -20.484375 C 9.691406 -21.515625 8.320312 -22.804688 7.1875 -24.359375 C 6.050781 -25.910156 5.484375 -27.742188 5.484375 -29.859375 C 5.484375 -34.398438 7.378906 -38.015625 11.171875 -40.703125 C 14.972656 -43.390625 20.367188 -44.734375 27.359375 -44.734375 Z M 27.359375 -44.734375 "/></g></g></g><g fill="#ffffff" fill-opacity="1"><g transform="translate(691.437064, 105.858435)"><g><path d="M 37.171875 -42.90625 C 38.222656 -42.90625 39.039062 -42.679688 39.625 -42.234375 C 40.207031 -41.796875 40.5 -41.1875 40.5 -40.40625 C 40.5 -40.1875 40.441406 -39.800781 40.328125 -39.25 C 39.609375 -36.8125 37.945312 -35.59375 35.34375 -35.59375 L 30.515625 -35.59375 L 24.28125 -15.046875 C 24 -14.210938 23.859375 -13.351562 23.859375 -12.46875 C 23.859375 -11.476562 24.132812 -10.785156 24.6875 -10.390625 C 25.25 -10.003906 26.03125 -9.8125 27.03125 -9.8125 C 27.914062 -9.8125 29.023438 -9.921875 30.359375 -10.140625 C 31.015625 -10.304688 31.59375 -10.390625 32.09375 -10.390625 C 32.488281 -10.390625 32.78125 -10.265625 32.96875 -10.015625 C 33.164062 -9.765625 33.265625 -9.445312 33.265625 -9.0625 C 33.316406 -7.957031 32.492188 -6.613281 30.796875 -5.03125 C 29.109375 -3.445312 26.820312 -2.085938 23.9375 -0.953125 C 21.0625 0.179688 17.878906 0.75 14.390625 0.75 C 10.617188 0.75 7.59375 -0.109375 5.3125 -1.828125 C 3.039062 -3.546875 1.90625 -5.898438 1.90625 -8.890625 C 1.90625 -10.285156 2.128906 -11.617188 2.578125 -12.890625 L 7.90625 -29.359375 C 8.175781 -30.296875 8.3125 -31.039062 8.3125 -31.59375 C 8.3125 -32.707031 8.046875 -33.648438 7.515625 -34.421875 C 6.992188 -35.203125 6.265625 -36.007812 5.328125 -36.84375 C 4.492188 -37.613281 3.910156 -38.257812 3.578125 -38.78125 C 3.242188 -39.3125 3.160156 -39.9375 3.328125 -40.65625 C 3.546875 -41.382812 4.015625 -41.941406 4.734375 -42.328125 C 5.460938 -42.710938 6.601562 -42.90625 8.15625 -42.90625 L 12.8125 -42.90625 L 18.046875 -48.140625 C 19.878906 -49.972656 21.554688 -51.25 23.078125 -51.96875 C 24.597656 -52.6875 26.578125 -53.046875 29.015625 -53.046875 C 32.515625 -53.046875 34.265625 -51.71875 34.265625 -49.0625 C 34.265625 -48.226562 34.148438 -47.453125 33.921875 -46.734375 L 32.765625 -42.90625 Z M 37.171875 -42.90625 "/></g></g></g><g fill="#ffffff" fill-opacity="1"><g transform="translate(727.189209, 105.858435)"><g><path d="M 21.875 -43.984375 C 25.082031 -43.984375 27.4375 -43.375 28.9375 -42.15625 C 30.4375 -40.9375 31.1875 -39.273438 31.1875 -37.171875 C 31.1875 -35.898438 30.992188 -34.679688 30.609375 -33.515625 L 22.953125 -8.640625 C 22.785156 -7.984375 22.703125 -7.40625 22.703125 -6.90625 C 22.703125 -6.1875 22.835938 -5.617188 23.109375 -5.203125 C 23.390625 -4.785156 23.78125 -4.378906 24.28125 -3.984375 C 24.664062 -3.597656 24.941406 -3.28125 25.109375 -3.03125 C 25.273438 -2.78125 25.304688 -2.460938 25.203125 -2.078125 C 24.921875 -1.359375 24.363281 -0.832031 23.53125 -0.5 C 22.695312 -0.164062 21.421875 0 19.703125 0 L 0.75 0 C -0.6875 0 -1.738281 -0.234375 -2.40625 -0.703125 C -3.070312 -1.171875 -3.296875 -1.796875 -3.078125 -2.578125 C -2.859375 -3.242188 -2.273438 -3.828125 -1.328125 -4.328125 C -0.492188 -4.765625 0.195312 -5.285156 0.75 -5.890625 C 1.300781 -6.503906 1.769531 -7.476562 2.15625 -8.8125 L 9.390625 -32.84375 C 9.554688 -33.34375 9.640625 -33.757812 9.640625 -34.09375 C 9.640625 -34.707031 9.5 -35.191406 9.21875 -35.546875 C 8.945312 -35.910156 8.535156 -36.285156 7.984375 -36.671875 C 7.429688 -37.117188 7.039062 -37.503906 6.8125 -37.828125 C 6.59375 -38.160156 6.566406 -38.609375 6.734375 -39.171875 C 7.066406 -40.441406 8.8125 -41.5625 11.96875 -42.53125 C 15.132812 -43.5 18.4375 -43.984375 21.875 -43.984375 Z M 27.4375 -62.375 C 29.601562 -62.375 31.40625 -61.664062 32.84375 -60.25 C 34.289062 -58.832031 35.015625 -57.097656 35.015625 -55.046875 C 35.015625 -53.609375 34.640625 -52.195312 33.890625 -50.8125 C 33.140625 -49.425781 32.082031 -48.300781 30.71875 -47.4375 C 29.363281 -46.582031 27.859375 -46.15625 26.203125 -46.15625 C 24.085938 -46.15625 22.320312 -46.859375 20.90625 -48.265625 C 19.5 -49.679688 18.769531 -51.441406 18.71875 -53.546875 C 18.71875 -54.929688 19.078125 -56.300781 19.796875 -57.65625 C 20.515625 -59.019531 21.535156 -60.144531 22.859375 -61.03125 C 24.191406 -61.925781 25.71875 -62.375 27.4375 -62.375 Z M 27.4375 -62.375 "/></g></g></g><g fill="#ffffff" fill-opacity="1"><g transform="translate(757.620105, 105.858435)"><g><path d="M 40.578125 -43.984375 C 43.515625 -43.984375 45.953125 -42.929688 47.890625 -40.828125 C 49.835938 -38.722656 50.8125 -35.84375 50.8125 -32.1875 C 50.8125 -27.25 49.09375 -22.203125 45.65625 -17.046875 C 42.21875 -11.890625 37.863281 -7.632812 32.59375 -4.28125 C 27.332031 -0.925781 22.207031 0.75 17.21875 0.75 C 12.445312 0.75 8.578125 -0.21875 5.609375 -2.15625 C 2.648438 -4.101562 1.171875 -6.878906 1.171875 -10.484375 C 1.171875 -11.804688 1.414062 -13.300781 1.90625 -14.96875 L 7.15625 -32.84375 C 7.257812 -33.289062 7.3125 -33.625 7.3125 -33.84375 C 7.3125 -34.394531 7.171875 -34.863281 6.890625 -35.25 C 6.617188 -35.644531 6.234375 -36.0625 5.734375 -36.5 C 4.898438 -37.226562 4.484375 -37.867188 4.484375 -38.421875 C 4.429688 -39.191406 4.90625 -40.019531 5.90625 -40.90625 C 6.90625 -41.800781 8.304688 -42.535156 10.109375 -43.109375 C 11.910156 -43.691406 13.945312 -43.984375 16.21875 -43.984375 C 19.925781 -43.984375 22.820312 -43.082031 24.90625 -41.28125 C 26.988281 -39.476562 28.03125 -37.140625 28.03125 -34.265625 C 28.03125 -32.984375 27.804688 -31.597656 27.359375 -30.109375 L 21.953125 -12.3125 C 21.785156 -11.8125 21.703125 -11.394531 21.703125 -11.0625 C 21.703125 -10.34375 21.953125 -9.785156 22.453125 -9.390625 C 22.953125 -9.003906 23.644531 -8.8125 24.53125 -8.8125 C 25.75 -8.8125 27.175781 -9.351562 28.8125 -10.4375 C 30.445312 -11.519531 32.066406 -13.070312 33.671875 -15.09375 C 35.285156 -17.113281 36.59375 -19.507812 37.59375 -22.28125 C 35.375 -24.226562 33.804688 -26.140625 32.890625 -28.015625 C 31.972656 -29.898438 31.515625 -31.84375 31.515625 -33.84375 C 31.515625 -36.664062 32.289062 -39.0625 33.84375 -41.03125 C 35.394531 -43 37.640625 -43.984375 40.578125 -43.984375 Z M 40.578125 -43.984375 "/></g></g></g><g fill="#ffffff" fill-opacity="1"><g transform="translate(807.423656, 105.858435)"><g><path d="M 29.6875 -43.984375 C 36.0625 -43.984375 41.160156 -42.804688 44.984375 -40.453125 C 48.804688 -38.097656 50.71875 -34.507812 50.71875 -29.6875 C 50.71875 -27.851562 50.390625 -25.773438 49.734375 -23.453125 L 46.3125 -11.96875 C 46.257812 -11.75 46.234375 -11.472656 46.234375 -11.140625 C 46.234375 -10.253906 46.59375 -9.8125 47.3125 -9.8125 C 47.976562 -9.8125 48.546875 -10.101562 49.015625 -10.6875 C 49.492188 -11.269531 49.816406 -11.5625 49.984375 -11.5625 C 50.253906 -11.5625 50.484375 -11.363281 50.671875 -10.96875 C 50.867188 -10.582031 50.96875 -10.140625 50.96875 -9.640625 C 51.03125 -8.148438 50.460938 -6.628906 49.265625 -5.078125 C 48.078125 -3.523438 46.484375 -2.25 44.484375 -1.25 C 42.492188 -0.25 40.304688 0.25 37.921875 0.25 C 35.035156 0.25 32.566406 -0.273438 30.515625 -1.328125 C 28.460938 -2.378906 27.050781 -3.929688 26.28125 -5.984375 C 24.613281 -3.992188 22.644531 -2.457031 20.375 -1.375 C 18.101562 -0.289062 15.664062 0.25 13.0625 0.25 C 10.113281 0.25 7.640625 -0.316406 5.640625 -1.453125 C 3.648438 -2.585938 2.171875 -4.054688 1.203125 -5.859375 C 0.234375 -7.660156 -0.25 -9.5625 -0.25 -11.5625 C -0.25 -12.445312 -0.164062 -13.304688 0 -14.140625 C 0.882812 -17.960938 2.8125 -20.84375 5.78125 -22.78125 C 8.75 -24.71875 12.28125 -25.6875 16.375 -25.6875 C 20.976562 -25.6875 25.5 -24.96875 29.9375 -23.53125 L 32.015625 -29.015625 C 32.734375 -31.347656 33.09375 -33.148438 33.09375 -34.421875 C 33.039062 -35.753906 32.597656 -36.753906 31.765625 -37.421875 C 30.929688 -38.085938 29.65625 -38.421875 27.9375 -38.421875 C 28.269531 -37.535156 28.4375 -36.617188 28.4375 -35.671875 C 28.4375 -33.617188 27.660156 -31.84375 26.109375 -30.34375 C 24.554688 -28.851562 22.335938 -28.109375 19.453125 -28.109375 C 16.742188 -28.109375 14.625 -28.703125 13.09375 -29.890625 C 11.570312 -31.085938 10.8125 -32.570312 10.8125 -34.34375 C 10.8125 -37.113281 12.363281 -39.410156 15.46875 -41.234375 C 18.570312 -43.066406 23.3125 -43.984375 29.6875 -43.984375 Z M 25.03125 -18.796875 C 23.476562 -18.796875 22.21875 -18.195312 21.25 -17 C 20.28125 -15.8125 19.796875 -14.523438 19.796875 -13.140625 C 19.796875 -12.253906 20 -11.53125 20.40625 -10.96875 C 20.820312 -10.414062 21.421875 -10.140625 22.203125 -10.140625 C 22.921875 -10.140625 23.707031 -10.429688 24.5625 -11.015625 C 25.425781 -11.597656 26.050781 -12.472656 26.4375 -13.640625 L 28.1875 -18.546875 C 27.25 -18.710938 26.195312 -18.796875 25.03125 -18.796875 Z M 25.03125 -18.796875 "/></g></g></g><g clip-path="url(#4dc9c53cc2)"><g fill="#ffffff" fill-opacity="1"><g transform="translate(861.800155, 105.858435)"><g><path d="M 26.53125 -61.453125 C 29.738281 -61.453125 32.101562 -60.84375 33.625 -59.625 C 35.15625 -58.40625 35.921875 -56.742188 35.921875 -54.640625 C 35.921875 -53.410156 35.726562 -52.21875 35.34375 -51.0625 L 22.28125 -8.640625 C 22.113281 -7.984375 22.03125 -7.40625 22.03125 -6.90625 C 22.03125 -6.1875 22.171875 -5.617188 22.453125 -5.203125 C 22.734375 -4.785156 23.117188 -4.378906 23.609375 -3.984375 C 24.003906 -3.597656 24.285156 -3.28125 24.453125 -3.03125 C 24.617188 -2.78125 24.644531 -2.460938 24.53125 -2.078125 C 24.25 -1.359375 23.691406 -0.832031 22.859375 -0.5 C 22.035156 -0.164062 20.765625 0 19.046875 0 L 0.078125 0 C -1.359375 0 -2.410156 -0.234375 -3.078125 -0.703125 C -3.742188 -1.171875 -3.960938 -1.796875 -3.734375 -2.578125 C -3.515625 -3.242188 -2.9375 -3.828125 -2 -4.328125 C -1.164062 -4.765625 -0.472656 -5.285156 0.078125 -5.890625 C 0.640625 -6.503906 1.113281 -7.476562 1.5 -8.8125 L 14.140625 -50.3125 C 14.304688 -50.8125 14.390625 -51.226562 14.390625 -51.5625 C 14.390625 -52.164062 14.234375 -52.660156 13.921875 -53.046875 C 13.617188 -53.441406 13.21875 -53.832031 12.71875 -54.21875 C 12.164062 -54.664062 11.765625 -55.050781 11.515625 -55.375 C 11.265625 -55.707031 11.222656 -56.15625 11.390625 -56.71875 C 11.722656 -57.988281 13.46875 -59.09375 16.625 -60.03125 C 19.789062 -60.976562 23.09375 -61.453125 26.53125 -61.453125 Z M 26.53125 -61.453125 "/></g></g></g></g></svg>