<svg xmlns="http://www.w3.org/2000/svg" xmlns:xlink="http://www.w3.org/1999/xlink" width="850" zoomAndPan="magnify" viewBox="0 0 637.5 165.000002" height="220" preserveAspectRatio="xMidYMid meet" version="1.0"><defs><g/></defs><g fill="#ffffff" fill-opacity="1"><g transform="translate(92.690364, 110.207203)"><g><path d="M 30.21875 0.515625 C 25.351562 0.515625 20.984375 -0.378906 17.109375 -2.171875 C 13.234375 -3.960938 10.148438 -6.609375 7.859375 -10.109375 C 5.566406 -13.617188 4.421875 -17.863281 4.421875 -22.84375 C 4.421875 -26.3125 5.03125 -30.070312 6.25 -34.125 C 8.914062 -42.8125 12.941406 -49.078125 18.328125 -52.921875 C 23.710938 -56.773438 29.472656 -58.703125 35.609375 -58.703125 C 38.910156 -58.703125 41.832031 -58.207031 44.375 -57.21875 C 46.925781 -56.238281 49.269531 -54.820312 51.40625 -52.96875 L 53.75 -54.796875 C 55.3125 -56.015625 56.628906 -56.851562 57.703125 -57.3125 C 58.773438 -57.78125 59.976562 -58.015625 61.3125 -58.015625 C 62.757812 -58.015625 63.914062 -57.691406 64.78125 -57.046875 C 65.65625 -56.410156 66.09375 -55.488281 66.09375 -54.28125 C 66.09375 -53.644531 65.972656 -53.003906 65.734375 -52.359375 L 60.875 -38.8125 C 60.351562 -37.25 59.726562 -36.148438 59 -35.515625 C 58.28125 -34.878906 57.195312 -34.5625 55.75 -34.5625 C 54.25 -34.5625 53.019531 -35.097656 52.0625 -36.171875 C 51.101562 -37.242188 50.019531 -39.082031 48.8125 -41.6875 C 47.414062 -44.40625 46.28125 -46.195312 45.40625 -47.0625 C 44.539062 -47.9375 43.269531 -48.375 41.59375 -48.375 C 39.21875 -48.375 36.929688 -46.910156 34.734375 -43.984375 C 32.535156 -41.054688 30.539062 -36.671875 28.75 -30.828125 C 27.238281 -25.910156 26.484375 -21.800781 26.484375 -18.5 C 26.484375 -15.601562 27.03125 -13.445312 28.125 -12.03125 C 29.226562 -10.613281 30.707031 -9.90625 32.5625 -9.90625 C 35.28125 -9.90625 37.523438 -10.507812 39.296875 -11.71875 C 41.066406 -12.9375 42.875 -14.585938 44.71875 -16.671875 C 45.882812 -17.941406 46.828125 -18.878906 47.546875 -19.484375 C 48.265625 -20.097656 49.03125 -20.40625 49.84375 -20.40625 C 50.882812 -20.40625 51.984375 -19.882812 53.140625 -18.84375 C 54.304688 -17.800781 54.859375 -16.757812 54.796875 -15.71875 C 54.859375 -14.445312 53.832031 -12.476562 51.71875 -9.8125 C 49.601562 -7.144531 46.675781 -4.753906 42.9375 -2.640625 C 39.207031 -0.535156 34.96875 0.515625 30.21875 0.515625 Z M 30.21875 0.515625 "/></g></g></g><g fill="#ffffff" fill-opacity="1"><g transform="translate(152.789576, 110.207203)"><g><path d="M 33.609375 -45.9375 C 41.484375 -45.9375 47.285156 -44.34375 51.015625 -41.15625 C 54.753906 -37.976562 56.625 -33.8125 56.625 -28.65625 C 56.625 -26.914062 56.390625 -24.976562 55.921875 -22.84375 C 54.828125 -18.09375 52.773438 -13.9375 49.765625 -10.375 C 46.753906 -6.8125 43.0625 -4.0625 38.6875 -2.125 C 34.3125 -0.1875 29.578125 0.78125 24.484375 0.78125 C 16.441406 0.78125 10.492188 -0.820312 6.640625 -4.03125 C 2.796875 -7.25 0.875 -11.519531 0.875 -16.84375 C 0.875 -18.644531 1.101562 -20.644531 1.5625 -22.84375 C 2.664062 -27.351562 4.765625 -31.359375 7.859375 -34.859375 C 10.953125 -38.367188 14.742188 -41.09375 19.234375 -43.03125 C 23.722656 -44.96875 28.515625 -45.9375 33.609375 -45.9375 Z M 33.34375 -38.21875 C 32.132812 -38.21875 30.847656 -37.128906 29.484375 -34.953125 C 28.117188 -32.785156 26.507812 -28.691406 24.65625 -22.671875 C 22.8125 -16.648438 21.890625 -12.421875 21.890625 -9.984375 C 21.890625 -8.710938 22.085938 -7.859375 22.484375 -7.421875 C 22.890625 -6.992188 23.441406 -6.78125 24.140625 -6.78125 C 25.359375 -6.65625 26.617188 -7.691406 27.921875 -9.890625 C 29.222656 -12.097656 30.859375 -16.382812 32.828125 -22.75 C 34.617188 -28.363281 35.515625 -32.445312 35.515625 -35 C 35.515625 -36.21875 35.328125 -37.054688 34.953125 -37.515625 C 34.578125 -37.984375 34.039062 -38.21875 33.34375 -38.21875 Z M 33.34375 -38.21875 "/></g></g></g><g fill="#ffffff" fill-opacity="1"><g transform="translate(209.762237, 110.207203)"><g><path d="M 31 -45.9375 C 37.65625 -45.9375 42.976562 -44.707031 46.96875 -42.25 C 50.96875 -39.789062 52.96875 -36.039062 52.96875 -31 C 52.96875 -29.09375 52.625 -26.921875 51.9375 -24.484375 L 48.375 -12.5 C 48.3125 -12.269531 48.28125 -11.984375 48.28125 -11.640625 C 48.28125 -10.710938 48.660156 -10.25 49.421875 -10.25 C 50.109375 -10.25 50.695312 -10.550781 51.1875 -11.15625 C 51.6875 -11.769531 52.019531 -12.078125 52.1875 -12.078125 C 52.476562 -12.078125 52.722656 -11.875 52.921875 -11.46875 C 53.128906 -11.0625 53.234375 -10.597656 53.234375 -10.078125 C 53.296875 -8.515625 52.703125 -6.921875 51.453125 -5.296875 C 50.210938 -3.671875 48.546875 -2.335938 46.453125 -1.296875 C 44.367188 -0.253906 42.082031 0.265625 39.59375 0.265625 C 36.582031 0.265625 34.003906 -0.285156 31.859375 -1.390625 C 29.722656 -2.492188 28.25 -4.113281 27.4375 -6.25 C 25.707031 -4.164062 23.65625 -2.554688 21.28125 -1.421875 C 18.90625 -0.296875 16.359375 0.265625 13.640625 0.265625 C 10.566406 0.265625 7.988281 -0.328125 5.90625 -1.515625 C 3.820312 -2.703125 2.269531 -4.234375 1.25 -6.109375 C 0.238281 -7.992188 -0.265625 -9.984375 -0.265625 -12.078125 C -0.265625 -12.992188 -0.175781 -13.890625 0 -14.765625 C 0.925781 -18.753906 2.9375 -21.757812 6.03125 -23.78125 C 9.132812 -25.8125 12.828125 -26.828125 17.109375 -26.828125 C 21.910156 -26.828125 26.628906 -26.078125 31.265625 -24.578125 L 33.4375 -30.3125 C 34.1875 -32.738281 34.5625 -34.617188 34.5625 -35.953125 C 34.507812 -37.335938 34.046875 -38.378906 33.171875 -39.078125 C 32.304688 -39.773438 30.972656 -40.125 29.171875 -40.125 C 29.523438 -39.195312 29.703125 -38.238281 29.703125 -37.25 C 29.703125 -35.113281 28.890625 -33.265625 27.265625 -31.703125 C 25.648438 -30.140625 23.335938 -29.359375 20.328125 -29.359375 C 17.484375 -29.359375 15.265625 -29.976562 13.671875 -31.21875 C 12.085938 -32.46875 11.296875 -34.015625 11.296875 -35.859375 C 11.296875 -38.753906 12.914062 -41.15625 16.15625 -43.0625 C 19.394531 -44.976562 24.34375 -45.9375 31 -45.9375 Z M 26.140625 -19.625 C 24.515625 -19.625 23.195312 -19 22.1875 -17.75 C 21.175781 -16.507812 20.671875 -15.164062 20.671875 -13.71875 C 20.671875 -12.789062 20.882812 -12.035156 21.3125 -11.453125 C 21.75 -10.878906 22.375 -10.59375 23.1875 -10.59375 C 23.9375 -10.59375 24.757812 -10.894531 25.65625 -11.5 C 26.5625 -12.113281 27.210938 -13.03125 27.609375 -14.25 L 29.4375 -19.359375 C 28.457031 -19.535156 27.359375 -19.625 26.140625 -19.625 Z M 26.140625 -19.625 "/></g></g></g><g fill="#ffffff" fill-opacity="1"><g transform="translate(266.561199, 110.207203)"><g><path d="M 31.53125 -46.375 C 35.0625 -46.375 38.15625 -45.863281 40.8125 -44.84375 C 43.476562 -43.832031 45.546875 -42.441406 47.015625 -40.671875 C 48.492188 -38.910156 49.234375 -36.960938 49.234375 -34.828125 C 49.234375 -32.503906 48.4375 -30.585938 46.84375 -29.078125 C 45.257812 -27.578125 43.101562 -26.828125 40.375 -26.828125 C 37.601562 -26.828125 35.4375 -27.535156 33.875 -28.953125 C 32.3125 -30.378906 31.53125 -32.304688 31.53125 -34.734375 C 31.53125 -35.890625 31.703125 -37.109375 32.046875 -38.390625 C 29.609375 -37.742188 27.445312 -36.476562 25.5625 -34.59375 C 23.6875 -32.71875 22.429688 -30.25 21.796875 -27.1875 C 21.453125 -25.445312 21.28125 -23.882812 21.28125 -22.5 C 21.28125 -19.363281 22.144531 -16.984375 23.875 -15.359375 C 25.613281 -13.742188 28.101562 -12.9375 31.34375 -12.9375 C 33.195312 -12.9375 34.789062 -13.125 36.125 -13.5 C 37.457031 -13.875 38.816406 -14.382812 40.203125 -15.03125 C 41.367188 -15.601562 42.210938 -15.890625 42.734375 -15.890625 C 43.078125 -15.890625 43.304688 -15.816406 43.421875 -15.671875 C 43.535156 -15.523438 43.59375 -15.222656 43.59375 -14.765625 C 43.65625 -12.617188 42.773438 -10.375 40.953125 -8.03125 C 39.128906 -5.6875 36.609375 -3.71875 33.390625 -2.125 C 30.179688 -0.53125 26.578125 0.265625 22.578125 0.265625 C 18.410156 0.265625 14.71875 -0.5 11.5 -2.03125 C 8.289062 -3.570312 5.800781 -5.773438 4.03125 -8.640625 C 2.269531 -11.503906 1.390625 -14.847656 1.390625 -18.671875 C 1.390625 -20.460938 1.617188 -22.457031 2.078125 -24.65625 C 3.640625 -31.84375 7.097656 -37.257812 12.453125 -40.90625 C 17.816406 -44.550781 24.175781 -46.375 31.53125 -46.375 Z M 31.53125 -46.375 "/></g></g></g><g fill="#ffffff" fill-opacity="1"><g transform="translate(313.63311, 110.207203)"><g><path d="M 53.234375 -11.984375 C 53.117188 -11.753906 53.0625 -11.40625 53.0625 -10.9375 C 53.0625 -10.53125 53.160156 -10.210938 53.359375 -9.984375 C 53.566406 -9.753906 53.84375 -9.640625 54.1875 -9.640625 C 54.882812 -9.640625 55.476562 -9.941406 55.96875 -10.546875 C 56.457031 -11.160156 56.789062 -11.46875 56.96875 -11.46875 C 57.257812 -11.46875 57.488281 -11.273438 57.65625 -10.890625 C 57.832031 -10.515625 57.921875 -10.066406 57.921875 -9.546875 C 57.984375 -7.867188 57.429688 -6.234375 56.265625 -4.640625 C 55.109375 -3.054688 53.414062 -1.753906 51.1875 -0.734375 C 48.957031 0.273438 46.28125 0.78125 43.15625 0.78125 C 39.332031 0.78125 36.289062 -0.0976562 34.03125 -1.859375 C 31.78125 -3.628906 30.625 -5.988281 30.5625 -8.9375 C 30.5625 -11.082031 31.082031 -13.488281 32.125 -16.15625 L 36.90625 -28.65625 C 37.195312 -29.40625 37.34375 -30.015625 37.34375 -30.484375 C 37.34375 -31.234375 37.09375 -31.820312 36.59375 -32.25 C 36.101562 -32.6875 35.515625 -32.90625 34.828125 -32.90625 C 33.722656 -32.90625 32.601562 -32.398438 31.46875 -31.390625 C 30.34375 -30.378906 29.4375 -28.742188 28.75 -26.484375 L 28.75 -26.65625 L 23.28125 -9.03125 C 23.101562 -8.332031 23.015625 -7.722656 23.015625 -7.203125 C 23.015625 -6.453125 23.15625 -5.859375 23.4375 -5.421875 C 23.726562 -4.992188 24.132812 -4.578125 24.65625 -4.171875 C 25.0625 -3.765625 25.351562 -3.429688 25.53125 -3.171875 C 25.707031 -2.910156 25.738281 -2.578125 25.625 -2.171875 C 25.332031 -1.421875 24.75 -0.867188 23.875 -0.515625 C 23.007812 -0.171875 21.679688 0 19.890625 0 L 0.09375 0 C -1.414062 0 -2.515625 -0.242188 -3.203125 -0.734375 C -3.898438 -1.222656 -4.132812 -1.875 -3.90625 -2.6875 C -3.675781 -3.382812 -3.066406 -3.992188 -2.078125 -4.515625 C -1.210938 -4.972656 -0.492188 -5.519531 0.078125 -6.15625 C 0.660156 -6.800781 1.15625 -7.816406 1.5625 -9.203125 L 14.765625 -52.546875 C 14.941406 -53.066406 15.03125 -53.5 15.03125 -53.84375 C 15.03125 -54.476562 14.867188 -55 14.546875 -55.40625 C 14.222656 -55.8125 13.800781 -56.21875 13.28125 -56.625 C 12.707031 -57.082031 12.289062 -57.484375 12.03125 -57.828125 C 11.769531 -58.179688 11.722656 -58.648438 11.890625 -59.234375 C 12.242188 -60.554688 14.066406 -61.707031 17.359375 -62.6875 C 20.660156 -63.675781 24.109375 -64.171875 27.703125 -64.171875 C 31.054688 -64.171875 33.53125 -63.535156 35.125 -62.265625 C 36.71875 -60.992188 37.515625 -59.257812 37.515625 -57.0625 C 37.515625 -55.78125 37.3125 -54.535156 36.90625 -53.328125 L 32.21875 -38.03125 C 34.476562 -40.988281 36.863281 -43.046875 39.375 -44.203125 C 41.894531 -45.359375 44.632812 -45.9375 47.59375 -45.9375 C 51.125 -45.9375 53.972656 -44.863281 56.140625 -42.71875 C 58.316406 -40.582031 59.40625 -37.804688 59.40625 -34.390625 C 59.40625 -32.597656 59.113281 -30.832031 58.53125 -29.09375 Z M 53.234375 -11.984375 "/></g></g></g><g fill="#ffffff" fill-opacity="1"><g transform="translate(375.295597, 110.207203)"><g><path d="M 29.4375 -46.375 C 36.789062 -46.375 42.117188 -45.203125 45.421875 -42.859375 C 48.722656 -40.515625 50.375 -37.519531 50.375 -33.875 C 50.375 -32.769531 50.253906 -31.753906 50.015625 -30.828125 C 49.148438 -27.003906 46.734375 -24.265625 42.765625 -22.609375 C 38.804688 -20.960938 34.132812 -20.140625 28.75 -20.140625 C 26.019531 -20.140625 23.472656 -20.316406 21.109375 -20.671875 C 21.046875 -17.660156 21.851562 -15.546875 23.53125 -14.328125 C 25.207031 -13.109375 27.550781 -12.5 30.5625 -12.5 C 31.957031 -12.5 33.289062 -12.65625 34.5625 -12.96875 C 35.832031 -13.289062 37.453125 -13.773438 39.421875 -14.421875 C 41.046875 -14.992188 42.148438 -15.28125 42.734375 -15.28125 C 43.367188 -15.28125 43.6875 -14.90625 43.6875 -14.15625 C 43.738281 -12.125 42.984375 -9.992188 41.421875 -7.765625 C 39.859375 -5.535156 37.539062 -3.640625 34.46875 -2.078125 C 31.40625 -0.515625 27.703125 0.265625 23.359375 0.265625 C 16.929688 0.265625 11.660156 -1.351562 7.546875 -4.59375 C 3.441406 -7.84375 1.390625 -12.566406 1.390625 -18.765625 C 1.390625 -20.492188 1.617188 -22.519531 2.078125 -24.84375 C 3.523438 -31.957031 6.695312 -37.320312 11.59375 -40.9375 C 16.488281 -44.5625 22.4375 -46.375 29.4375 -46.375 Z M 21.703125 -25.875 C 21.941406 -25.820312 22.265625 -25.796875 22.671875 -25.796875 C 25.097656 -25.796875 26.945312 -26.921875 28.21875 -29.171875 C 29.5 -31.429688 30.109375 -33.953125 30.046875 -36.734375 C 29.992188 -38.359375 29.53125 -39.171875 28.65625 -39.171875 C 28.019531 -39.171875 27.265625 -38.660156 26.390625 -37.640625 C 25.523438 -36.628906 24.671875 -35.109375 23.828125 -33.078125 C 22.992188 -31.054688 22.285156 -28.65625 21.703125 -25.875 Z M 21.703125 -25.875 "/></g></g></g><g fill="#ffffff" fill-opacity="1"><g transform="translate(423.930807, 110.207203)"><g><path d="M 27.703125 -64.171875 C 31.054688 -64.171875 33.53125 -63.535156 35.125 -62.265625 C 36.71875 -60.992188 37.515625 -59.257812 37.515625 -57.0625 C 37.515625 -55.78125 37.3125 -54.535156 36.90625 -53.328125 L 23.28125 -9.03125 C 23.101562 -8.332031 23.015625 -7.722656 23.015625 -7.203125 C 23.015625 -6.453125 23.15625 -5.859375 23.4375 -5.421875 C 23.726562 -4.992188 24.132812 -4.578125 24.65625 -4.171875 C 25.0625 -3.765625 25.351562 -3.429688 25.53125 -3.171875 C 25.707031 -2.910156 25.738281 -2.578125 25.625 -2.171875 C 25.332031 -1.421875 24.75 -0.867188 23.875 -0.515625 C 23.007812 -0.171875 21.679688 0 19.890625 0 L 0.09375 0 C -1.414062 0 -2.515625 -0.242188 -3.203125 -0.734375 C -3.898438 -1.222656 -4.132812 -1.875 -3.90625 -2.6875 C -3.675781 -3.382812 -3.066406 -3.992188 -2.078125 -4.515625 C -1.210938 -4.972656 -0.492188 -5.519531 0.078125 -6.15625 C 0.660156 -6.800781 1.15625 -7.816406 1.5625 -9.203125 L 14.765625 -52.546875 C 14.941406 -53.066406 15.03125 -53.5 15.03125 -53.84375 C 15.03125 -54.476562 14.867188 -55 14.546875 -55.40625 C 14.222656 -55.8125 13.800781 -56.21875 13.28125 -56.625 C 12.707031 -57.082031 12.289062 -57.484375 12.03125 -57.828125 C 11.769531 -58.179688 11.722656 -58.648438 11.890625 -59.234375 C 12.242188 -60.554688 14.066406 -61.707031 17.359375 -62.6875 C 20.660156 -63.675781 24.109375 -64.171875 27.703125 -64.171875 Z M 27.703125 -64.171875 "/></g></g></g><g fill="#ffffff" fill-opacity="1"><g transform="translate(455.717393, 110.207203)"><g><path d="M 27.703125 -64.171875 C 31.054688 -64.171875 33.53125 -63.535156 35.125 -62.265625 C 36.71875 -60.992188 37.515625 -59.257812 37.515625 -57.0625 C 37.515625 -55.78125 37.3125 -54.535156 36.90625 -53.328125 L 23.28125 -9.03125 C 23.101562 -8.332031 23.015625 -7.722656 23.015625 -7.203125 C 23.015625 -6.453125 23.15625 -5.859375 23.4375 -5.421875 C 23.726562 -4.992188 24.132812 -4.578125 24.65625 -4.171875 C 25.0625 -3.765625 25.351562 -3.429688 25.53125 -3.171875 C 25.707031 -2.910156 25.738281 -2.578125 25.625 -2.171875 C 25.332031 -1.421875 24.75 -0.867188 23.875 -0.515625 C 23.007812 -0.171875 21.679688 0 19.890625 0 L 0.09375 0 C -1.414062 0 -2.515625 -0.242188 -3.203125 -0.734375 C -3.898438 -1.222656 -4.132812 -1.875 -3.90625 -2.6875 C -3.675781 -3.382812 -3.066406 -3.992188 -2.078125 -4.515625 C -1.210938 -4.972656 -0.492188 -5.519531 0.078125 -6.15625 C 0.660156 -6.800781 1.15625 -7.816406 1.5625 -9.203125 L 14.765625 -52.546875 C 14.941406 -53.066406 15.03125 -53.5 15.03125 -53.84375 C 15.03125 -54.476562 14.867188 -55 14.546875 -55.40625 C 14.222656 -55.8125 13.800781 -56.21875 13.28125 -56.625 C 12.707031 -57.082031 12.289062 -57.484375 12.03125 -57.828125 C 11.769531 -58.179688 11.722656 -58.648438 11.890625 -59.234375 C 12.242188 -60.554688 14.066406 -61.707031 17.359375 -62.6875 C 20.660156 -63.675781 24.109375 -64.171875 27.703125 -64.171875 Z M 27.703125 -64.171875 "/></g></g></g><g fill="#ffffff" fill-opacity="1"><g transform="translate(487.503979, 110.207203)"><g><path d="M 31 -45.9375 C 37.65625 -45.9375 42.976562 -44.707031 46.96875 -42.25 C 50.96875 -39.789062 52.96875 -36.039062 52.96875 -31 C 52.96875 -29.09375 52.625 -26.921875 51.9375 -24.484375 L 48.375 -12.5 C 48.3125 -12.269531 48.28125 -11.984375 48.28125 -11.640625 C 48.28125 -10.710938 48.660156 -10.25 49.421875 -10.25 C 50.109375 -10.25 50.695312 -10.550781 51.1875 -11.15625 C 51.6875 -11.769531 52.019531 -12.078125 52.1875 -12.078125 C 52.476562 -12.078125 52.722656 -11.875 52.921875 -11.46875 C 53.128906 -11.0625 53.234375 -10.597656 53.234375 -10.078125 C 53.296875 -8.515625 52.703125 -6.921875 51.453125 -5.296875 C 50.210938 -3.671875 48.546875 -2.335938 46.453125 -1.296875 C 44.367188 -0.253906 42.082031 0.265625 39.59375 0.265625 C 36.582031 0.265625 34.003906 -0.285156 31.859375 -1.390625 C 29.722656 -2.492188 28.25 -4.113281 27.4375 -6.25 C 25.707031 -4.164062 23.65625 -2.554688 21.28125 -1.421875 C 18.90625 -0.296875 16.359375 0.265625 13.640625 0.265625 C 10.566406 0.265625 7.988281 -0.328125 5.90625 -1.515625 C 3.820312 -2.703125 2.269531 -4.234375 1.25 -6.109375 C 0.238281 -7.992188 -0.265625 -9.984375 -0.265625 -12.078125 C -0.265625 -12.992188 -0.175781 -13.890625 0 -14.765625 C 0.925781 -18.753906 2.9375 -21.757812 6.03125 -23.78125 C 9.132812 -25.8125 12.828125 -26.828125 17.109375 -26.828125 C 21.910156 -26.828125 26.628906 -26.078125 31.265625 -24.578125 L 33.4375 -30.3125 C 34.1875 -32.738281 34.5625 -34.617188 34.5625 -35.953125 C 34.507812 -37.335938 34.046875 -38.378906 33.171875 -39.078125 C 32.304688 -39.773438 30.972656 -40.125 29.171875 -40.125 C 29.523438 -39.195312 29.703125 -38.238281 29.703125 -37.25 C 29.703125 -35.113281 28.890625 -33.265625 27.265625 -31.703125 C 25.648438 -30.140625 23.335938 -29.359375 20.328125 -29.359375 C 17.484375 -29.359375 15.265625 -29.976562 13.671875 -31.21875 C 12.085938 -32.46875 11.296875 -34.015625 11.296875 -35.859375 C 11.296875 -38.753906 12.914062 -41.15625 16.15625 -43.0625 C 19.394531 -44.976562 24.34375 -45.9375 31 -45.9375 Z M 26.140625 -19.625 C 24.515625 -19.625 23.195312 -19 22.1875 -17.75 C 21.175781 -16.507812 20.671875 -15.164062 20.671875 -13.71875 C 20.671875 -12.789062 20.882812 -12.035156 21.3125 -11.453125 C 21.75 -10.878906 22.375 -10.59375 23.1875 -10.59375 C 23.9375 -10.59375 24.757812 -10.894531 25.65625 -11.5 C 26.5625 -12.113281 27.210938 -13.03125 27.609375 -14.25 L 29.4375 -19.359375 C 28.457031 -19.535156 27.359375 -19.625 26.140625 -19.625 Z M 26.140625 -19.625 "/></g></g></g></svg>