<svg xmlns="http://www.w3.org/2000/svg" xmlns:xlink="http://www.w3.org/1999/xlink" width="850" zoomAndPan="magnify" viewBox="0 0 637.5 165.000002" height="220" preserveAspectRatio="xMidYMid meet" version="1.0"><defs><g/></defs><g fill="#ffffff" fill-opacity="1"><g transform="translate(75.835484, 110.207203)"><g><path d="M 56.703125 -57.84375 C 58.847656 -57.84375 60.515625 -57.378906 61.703125 -56.453125 C 62.890625 -55.523438 63.484375 -54.25 63.484375 -52.625 C 63.484375 -51.8125 63.367188 -51.03125 63.140625 -50.28125 L 60.875 -42.203125 C 60.46875 -40.640625 59.875 -39.550781 59.09375 -38.9375 C 58.3125 -38.332031 57.195312 -38.03125 55.75 -38.03125 C 54.363281 -38.03125 53.28125 -38.332031 52.5 -38.9375 C 51.71875 -39.550781 51.125 -40.554688 50.71875 -41.953125 L 49.328125 -46.890625 C 49.035156 -47.929688 48.6875 -48.625 48.28125 -48.96875 C 47.875 -49.320312 47.09375 -49.5 45.9375 -49.5 L 36.828125 -49.5 L 32.484375 -34.046875 L 36.296875 -34.046875 C 36.703125 -34.046875 37.253906 -34.332031 37.953125 -34.90625 L 40.90625 -37.515625 C 41.769531 -38.265625 42.519531 -38.8125 43.15625 -39.15625 C 43.789062 -39.507812 44.570312 -39.6875 45.5 -39.6875 C 46.539062 -39.6875 47.394531 -39.410156 48.0625 -38.859375 C 48.726562 -38.304688 49.0625 -37.597656 49.0625 -36.734375 C 49.0625 -36.503906 49.003906 -36.15625 48.890625 -35.6875 L 45.328125 -23.625 C 44.984375 -22.34375 44.390625 -21.398438 43.546875 -20.796875 C 42.710938 -20.191406 41.800781 -19.890625 40.8125 -19.890625 C 39.195312 -19.890625 37.984375 -20.726562 37.171875 -22.40625 L 35.6875 -25.4375 C 35.28125 -26.3125 34.644531 -26.75 33.78125 -26.75 L 30.390625 -26.75 L 25.265625 -8.34375 L 32.90625 -8.34375 C 34.007812 -8.34375 34.976562 -8.554688 35.8125 -8.984375 C 36.65625 -9.421875 37.570312 -10.191406 38.5625 -11.296875 L 43.765625 -17.015625 C 44.691406 -18.003906 45.570312 -18.710938 46.40625 -19.140625 C 47.25 -19.578125 48.28125 -19.796875 49.5 -19.796875 C 50.769531 -19.796875 51.8125 -19.503906 52.625 -18.921875 C 53.4375 -18.347656 53.84375 -17.484375 53.84375 -16.328125 C 53.84375 -15.859375 53.753906 -15.304688 53.578125 -14.671875 L 51.0625 -5.90625 C 50.425781 -3.707031 49.5 -2.171875 48.28125 -1.296875 C 47.070312 -0.429688 45.304688 0 42.984375 0 L 1.5625 0 C 0.34375 0 -0.597656 -0.203125 -1.265625 -0.609375 C -1.929688 -1.015625 -2.265625 -1.566406 -2.265625 -2.265625 C -2.265625 -2.609375 -2.175781 -2.984375 -2 -3.390625 C -1.769531 -4.023438 -1.394531 -4.515625 -0.875 -4.859375 C -0.351562 -5.210938 -0.03125 -5.414062 0.09375 -5.46875 C 1.007812 -6.050781 1.757812 -6.644531 2.34375 -7.25 C 2.925781 -7.851562 3.421875 -8.851562 3.828125 -10.25 L 14.5 -47.671875 C 14.726562 -48.429688 14.84375 -49.128906 14.84375 -49.765625 C 14.84375 -50.453125 14.742188 -51.023438 14.546875 -51.484375 C 14.347656 -51.953125 14.046875 -52.445312 13.640625 -52.96875 C 13.117188 -53.726562 12.859375 -54.335938 12.859375 -54.796875 C 12.859375 -54.972656 12.914062 -55.289062 13.03125 -55.75 C 13.257812 -56.5 13.78125 -57.035156 14.59375 -57.359375 C 15.40625 -57.679688 16.59375 -57.84375 18.15625 -57.84375 Z M 56.703125 -57.84375 "/></g></g></g><g fill="#ffffff" fill-opacity="1"><g transform="translate(134.110872, 110.207203)"><g><path d="M 42.375 -45.9375 C 45.445312 -45.9375 47.992188 -44.835938 50.015625 -42.640625 C 52.046875 -40.441406 53.0625 -37.429688 53.0625 -33.609375 C 53.0625 -28.453125 51.265625 -23.179688 47.671875 -17.796875 C 44.085938 -12.410156 39.546875 -7.96875 34.046875 -4.46875 C 28.546875 -0.96875 23.191406 0.78125 17.984375 0.78125 C 13.003906 0.78125 8.960938 -0.226562 5.859375 -2.25 C 2.765625 -4.28125 1.21875 -7.175781 1.21875 -10.9375 C 1.21875 -12.332031 1.476562 -13.894531 2 -15.625 L 7.46875 -34.296875 C 7.582031 -34.765625 7.640625 -35.113281 7.640625 -35.34375 C 7.640625 -35.925781 7.492188 -36.414062 7.203125 -36.8125 C 6.921875 -37.21875 6.519531 -37.65625 6 -38.125 C 5.125 -38.875 4.6875 -39.539062 4.6875 -40.125 C 4.632812 -40.9375 5.128906 -41.800781 6.171875 -42.71875 C 7.210938 -43.644531 8.671875 -44.410156 10.546875 -45.015625 C 12.429688 -45.628906 14.5625 -45.9375 16.9375 -45.9375 C 20.8125 -45.9375 23.832031 -44.992188 26 -43.109375 C 28.175781 -41.234375 29.265625 -38.789062 29.265625 -35.78125 C 29.265625 -34.445312 29.035156 -33 28.578125 -31.4375 L 22.921875 -12.859375 C 22.753906 -12.335938 22.671875 -11.898438 22.671875 -11.546875 C 22.671875 -10.796875 22.929688 -10.21875 23.453125 -9.8125 C 23.972656 -9.40625 24.695312 -9.203125 25.625 -9.203125 C 26.894531 -9.203125 28.382812 -9.765625 30.09375 -10.890625 C 31.800781 -12.023438 33.492188 -13.648438 35.171875 -15.765625 C 36.847656 -17.878906 38.207031 -20.382812 39.25 -23.28125 C 36.9375 -25.300781 35.300781 -27.296875 34.34375 -29.265625 C 33.382812 -31.234375 32.90625 -33.257812 32.90625 -35.34375 C 32.90625 -38.300781 33.71875 -40.804688 35.34375 -42.859375 C 36.96875 -44.910156 39.3125 -45.9375 42.375 -45.9375 Z M 42.375 -45.9375 "/></g></g></g><g fill="#ffffff" fill-opacity="1"><g transform="translate(186.13317, 110.207203)"><g><path d="M 29.4375 -46.375 C 36.789062 -46.375 42.117188 -45.203125 45.421875 -42.859375 C 48.722656 -40.515625 50.375 -37.519531 50.375 -33.875 C 50.375 -32.769531 50.253906 -31.753906 50.015625 -30.828125 C 49.148438 -27.003906 46.734375 -24.265625 42.765625 -22.609375 C 38.804688 -20.960938 34.132812 -20.140625 28.75 -20.140625 C 26.019531 -20.140625 23.472656 -20.316406 21.109375 -20.671875 C 21.046875 -17.660156 21.851562 -15.546875 23.53125 -14.328125 C 25.207031 -13.109375 27.550781 -12.5 30.5625 -12.5 C 31.957031 -12.5 33.289062 -12.65625 34.5625 -12.96875 C 35.832031 -13.289062 37.453125 -13.773438 39.421875 -14.421875 C 41.046875 -14.992188 42.148438 -15.28125 42.734375 -15.28125 C 43.367188 -15.28125 43.6875 -14.90625 43.6875 -14.15625 C 43.738281 -12.125 42.984375 -9.992188 41.421875 -7.765625 C 39.859375 -5.535156 37.539062 -3.640625 34.46875 -2.078125 C 31.40625 -0.515625 27.703125 0.265625 23.359375 0.265625 C 16.929688 0.265625 11.660156 -1.351562 7.546875 -4.59375 C 3.441406 -7.84375 1.390625 -12.566406 1.390625 -18.765625 C 1.390625 -20.492188 1.617188 -22.519531 2.078125 -24.84375 C 3.523438 -31.957031 6.695312 -37.320312 11.59375 -40.9375 C 16.488281 -44.5625 22.4375 -46.375 29.4375 -46.375 Z M 21.703125 -25.875 C 21.941406 -25.820312 22.265625 -25.796875 22.671875 -25.796875 C 25.097656 -25.796875 26.945312 -26.921875 28.21875 -29.171875 C 29.5 -31.429688 30.109375 -33.953125 30.046875 -36.734375 C 29.992188 -38.359375 29.53125 -39.171875 28.65625 -39.171875 C 28.019531 -39.171875 27.265625 -38.660156 26.390625 -37.640625 C 25.523438 -36.628906 24.671875 -35.109375 23.828125 -33.078125 C 22.992188 -31.054688 22.285156 -28.65625 21.703125 -25.875 Z M 21.703125 -25.875 "/></g></g></g><g fill="#ffffff" fill-opacity="1"><g transform="translate(234.768367, 110.207203)"><g><path d="M 53.75 -11.984375 C 53.632812 -11.753906 53.578125 -11.40625 53.578125 -10.9375 C 53.578125 -10.53125 53.675781 -10.210938 53.875 -9.984375 C 54.082031 -9.753906 54.363281 -9.640625 54.71875 -9.640625 C 55.40625 -9.640625 55.992188 -9.941406 56.484375 -10.546875 C 56.984375 -11.160156 57.316406 -11.46875 57.484375 -11.46875 C 57.773438 -11.46875 58.007812 -11.273438 58.1875 -10.890625 C 58.363281 -10.515625 58.453125 -10.066406 58.453125 -9.546875 C 58.503906 -7.867188 57.953125 -6.234375 56.796875 -4.640625 C 55.640625 -3.054688 53.945312 -1.753906 51.71875 -0.734375 C 49.488281 0.273438 46.8125 0.78125 43.6875 0.78125 C 39.863281 0.78125 36.820312 -0.0976562 34.5625 -1.859375 C 32.300781 -3.628906 31.144531 -5.988281 31.09375 -8.9375 C 31.09375 -11.082031 31.613281 -13.488281 32.65625 -16.15625 L 37.421875 -28.65625 C 37.710938 -29.40625 37.859375 -30.015625 37.859375 -30.484375 C 37.859375 -31.234375 37.613281 -31.820312 37.125 -32.25 C 36.632812 -32.6875 36.039062 -32.90625 35.34375 -32.90625 C 34.070312 -32.90625 32.859375 -32.3125 31.703125 -31.125 C 30.546875 -29.945312 29.703125 -28.488281 29.171875 -26.75 L 23.796875 -9.03125 C 23.566406 -8.394531 23.453125 -7.785156 23.453125 -7.203125 C 23.453125 -6.515625 23.59375 -5.953125 23.875 -5.515625 C 24.164062 -5.078125 24.570312 -4.628906 25.09375 -4.171875 C 25.5 -3.816406 25.789062 -3.492188 25.96875 -3.203125 C 26.144531 -2.921875 26.171875 -2.578125 26.046875 -2.171875 C 25.816406 -1.421875 25.265625 -0.867188 24.390625 -0.515625 C 23.523438 -0.171875 22.171875 0 20.328125 0 L 0.515625 0 C -0.984375 0 -2.066406 -0.242188 -2.734375 -0.734375 C -3.398438 -1.222656 -3.644531 -1.875 -3.46875 -2.6875 C -3.238281 -3.382812 -2.632812 -3.992188 -1.65625 -4.515625 C -0.78125 -4.972656 -0.0546875 -5.519531 0.515625 -6.15625 C 1.097656 -6.800781 1.59375 -7.816406 2 -9.203125 L 9.71875 -34.296875 C 9.84375 -34.585938 9.90625 -34.992188 9.90625 -35.515625 C 9.90625 -36.148438 9.773438 -36.640625 9.515625 -36.984375 C 9.253906 -37.335938 8.832031 -37.773438 8.25 -38.296875 C 7.664062 -38.765625 7.257812 -39.171875 7.03125 -39.515625 C 6.800781 -39.859375 6.773438 -40.320312 6.953125 -40.90625 C 7.296875 -42.238281 9.117188 -43.410156 12.421875 -44.421875 C 15.722656 -45.429688 19.164062 -45.9375 22.75 -45.9375 C 25.644531 -45.9375 27.929688 -45.140625 29.609375 -43.546875 C 31.285156 -41.953125 32.039062 -39.738281 31.875 -36.90625 C 34.25 -40.320312 36.765625 -42.679688 39.421875 -43.984375 C 42.085938 -45.285156 44.984375 -45.9375 48.109375 -45.9375 C 51.640625 -45.9375 54.488281 -44.863281 56.65625 -42.71875 C 58.832031 -40.582031 59.921875 -37.804688 59.921875 -34.390625 C 59.921875 -32.597656 59.628906 -30.832031 59.046875 -29.09375 Z M 53.75 -11.984375 "/></g></g></g><g fill="#ffffff" fill-opacity="1"><g transform="translate(296.95195, 110.207203)"><g><path d="M 38.8125 -44.8125 C 39.914062 -44.8125 40.769531 -44.578125 41.375 -44.109375 C 41.988281 -43.648438 42.296875 -43.015625 42.296875 -42.203125 C 42.296875 -41.972656 42.238281 -41.566406 42.125 -40.984375 C 41.363281 -38.441406 39.625 -37.171875 36.90625 -37.171875 L 31.875 -37.171875 L 25.359375 -15.71875 C 25.066406 -14.851562 24.921875 -13.957031 24.921875 -13.03125 C 24.921875 -11.988281 25.207031 -11.265625 25.78125 -10.859375 C 26.363281 -10.453125 27.175781 -10.25 28.21875 -10.25 C 29.144531 -10.25 30.304688 -10.363281 31.703125 -10.59375 C 32.390625 -10.769531 32.992188 -10.859375 33.515625 -10.859375 C 33.921875 -10.859375 34.222656 -10.726562 34.421875 -10.46875 C 34.628906 -10.207031 34.734375 -9.875 34.734375 -9.46875 C 34.796875 -8.3125 33.941406 -6.90625 32.171875 -5.25 C 30.410156 -3.601562 28.023438 -2.1875 25.015625 -1 C 22.003906 0.1875 18.675781 0.78125 15.03125 0.78125 C 11.09375 0.78125 7.9375 -0.113281 5.5625 -1.90625 C 3.1875 -3.707031 2 -6.171875 2 -9.296875 C 2 -10.742188 2.226562 -12.128906 2.6875 -13.453125 L 8.25 -30.65625 C 8.539062 -31.632812 8.6875 -32.414062 8.6875 -33 C 8.6875 -34.15625 8.410156 -35.140625 7.859375 -35.953125 C 7.304688 -36.765625 6.539062 -37.601562 5.5625 -38.46875 C 4.6875 -39.28125 4.078125 -39.960938 3.734375 -40.515625 C 3.390625 -41.066406 3.300781 -41.71875 3.46875 -42.46875 C 3.707031 -43.21875 4.203125 -43.796875 4.953125 -44.203125 C 5.703125 -44.609375 6.890625 -44.8125 8.515625 -44.8125 L 13.375 -44.8125 L 18.84375 -50.28125 C 20.75 -52.1875 22.5 -53.515625 24.09375 -54.265625 C 25.6875 -55.023438 27.757812 -55.40625 30.3125 -55.40625 C 33.957031 -55.40625 35.78125 -54.015625 35.78125 -51.234375 C 35.78125 -50.367188 35.664062 -49.5625 35.4375 -48.8125 L 34.21875 -44.8125 Z M 38.8125 -44.8125 "/></g></g></g><g fill="#ffffff" fill-opacity="1"><g transform="translate(334.296845, 110.207203)"><g><path d="M 44.296875 -46.28125 C 48.578125 -46.28125 52.003906 -44.742188 54.578125 -41.671875 C 57.160156 -38.609375 58.453125 -34.5625 58.453125 -29.53125 C 58.453125 -26.925781 58.128906 -24.378906 57.484375 -21.890625 C 55.640625 -14.421875 52.472656 -8.773438 47.984375 -4.953125 C 43.492188 -1.128906 38.328125 0.78125 32.484375 0.78125 C 29.179688 0.78125 26.328125 0.21875 23.921875 -0.90625 C 21.523438 -2.039062 19.601562 -3.648438 18.15625 -5.734375 L 15.03125 -3.046875 C 13.8125 -1.992188 12.617188 -1.222656 11.453125 -0.734375 C 10.296875 -0.242188 8.96875 0 7.46875 0 L 3.640625 0 C 2.191406 0 1.078125 -0.300781 0.296875 -0.90625 C -0.484375 -1.519531 -0.875 -2.40625 -0.875 -3.5625 C -0.875 -4.082031 -0.785156 -4.691406 -0.609375 -5.390625 L 13.890625 -52.546875 C 14.066406 -53.066406 14.15625 -53.5 14.15625 -53.84375 C 14.15625 -54.820312 13.546875 -55.75 12.328125 -56.625 C 11.753906 -57.144531 11.347656 -57.5625 11.109375 -57.875 C 10.878906 -58.195312 10.851562 -58.617188 11.03125 -59.140625 C 11.4375 -60.472656 13.273438 -61.644531 16.546875 -62.65625 C 19.816406 -63.664062 23.242188 -64.171875 26.828125 -64.171875 C 30.191406 -64.171875 32.664062 -63.519531 34.25 -62.21875 C 35.84375 -60.914062 36.640625 -59.164062 36.640625 -56.96875 C 36.640625 -55.75 36.441406 -54.535156 36.046875 -53.328125 L 32.390625 -41.515625 C 35.742188 -44.691406 39.710938 -46.28125 44.296875 -46.28125 Z M 34.484375 -22.40625 C 35.640625 -26.34375 36.21875 -29.523438 36.21875 -31.953125 C 36.21875 -34.617188 35.4375 -35.953125 33.875 -35.953125 C 32.476562 -35.953125 31.175781 -35.226562 29.96875 -33.78125 L 24.3125 -15.375 L 23.796875 -13.71875 C 23.503906 -12.851562 23.359375 -11.957031 23.359375 -11.03125 C 23.359375 -9 24.316406 -7.984375 26.234375 -7.984375 C 27.617188 -7.984375 28.945312 -8.992188 30.21875 -11.015625 C 31.488281 -13.046875 32.910156 -16.84375 34.484375 -22.40625 Z M 34.484375 -22.40625 "/></g></g></g><g fill="#ffffff" fill-opacity="1"><g transform="translate(393.093317, 110.207203)"><g><path d="M 42.640625 -45.9375 C 45.878906 -45.9375 48.46875 -44.953125 50.40625 -42.984375 C 52.351562 -41.015625 53.328125 -38.582031 53.328125 -35.6875 C 53.328125 -34.59375 53.207031 -33.582031 52.96875 -32.65625 C 52.394531 -30.28125 51.296875 -28.453125 49.671875 -27.171875 C 48.054688 -25.898438 46.117188 -25.265625 43.859375 -25.265625 C 41.660156 -25.265625 39.992188 -25.785156 38.859375 -26.828125 C 37.734375 -27.867188 36.734375 -29.257812 35.859375 -31 C 35.398438 -31.988281 34.96875 -32.710938 34.5625 -33.171875 C 34.15625 -33.640625 33.691406 -33.875 33.171875 -33.875 C 32.597656 -33.875 32.09375 -33.640625 31.65625 -33.171875 C 31.21875 -32.710938 30.828125 -31.90625 30.484375 -30.75 L 23.796875 -9.03125 C 23.679688 -8.738281 23.625 -8.304688 23.625 -7.734375 C 23.625 -6.972656 23.835938 -6.347656 24.265625 -5.859375 C 24.703125 -5.367188 25.296875 -4.890625 26.046875 -4.421875 C 26.742188 -3.960938 27.207031 -3.585938 27.4375 -3.296875 C 27.675781 -3.003906 27.765625 -2.628906 27.703125 -2.171875 C 27.585938 -1.421875 27.164062 -0.867188 26.4375 -0.515625 C 25.71875 -0.171875 24.488281 0 22.75 0 L 0.515625 0 C -0.984375 0 -2.066406 -0.242188 -2.734375 -0.734375 C -3.398438 -1.222656 -3.644531 -1.875 -3.46875 -2.6875 C -3.238281 -3.382812 -2.632812 -3.992188 -1.65625 -4.515625 C -0.78125 -4.972656 -0.0546875 -5.519531 0.515625 -6.15625 C 1.097656 -6.800781 1.59375 -7.816406 2 -9.203125 L 9.71875 -34.296875 C 9.84375 -34.585938 9.90625 -34.992188 9.90625 -35.515625 C 9.90625 -36.148438 9.773438 -36.640625 9.515625 -36.984375 C 9.253906 -37.335938 8.832031 -37.773438 8.25 -38.296875 C 7.664062 -38.765625 7.257812 -39.171875 7.03125 -39.515625 C 6.800781 -39.859375 6.773438 -40.320312 6.953125 -40.90625 C 7.296875 -42.238281 9.117188 -43.410156 12.421875 -44.421875 C 15.722656 -45.429688 19.164062 -45.9375 22.75 -45.9375 C 25.125 -45.9375 27.09375 -45.398438 28.65625 -44.328125 C 30.21875 -43.265625 31.234375 -41.75 31.703125 -39.78125 C 34.472656 -43.882812 38.117188 -45.9375 42.640625 -45.9375 Z M 42.640625 -45.9375 "/></g></g></g><g fill="#ffffff" fill-opacity="1"><g transform="translate(443.378629, 110.207203)"><g><path d="M 22.84375 -45.9375 C 26.195312 -45.9375 28.65625 -45.300781 30.21875 -44.03125 C 31.789062 -42.757812 32.578125 -41.019531 32.578125 -38.8125 C 32.578125 -37.488281 32.375 -36.21875 31.96875 -35 L 23.96875 -9.03125 C 23.800781 -8.332031 23.71875 -7.722656 23.71875 -7.203125 C 23.71875 -6.453125 23.859375 -5.859375 24.140625 -5.421875 C 24.429688 -4.992188 24.835938 -4.578125 25.359375 -4.171875 C 25.765625 -3.765625 26.054688 -3.429688 26.234375 -3.171875 C 26.410156 -2.910156 26.4375 -2.578125 26.3125 -2.171875 C 26.03125 -1.421875 25.453125 -0.867188 24.578125 -0.515625 C 23.710938 -0.171875 22.382812 0 20.59375 0 L 0.78125 0 C -0.71875 0 -1.816406 -0.242188 -2.515625 -0.734375 C -3.210938 -1.222656 -3.441406 -1.875 -3.203125 -2.6875 C -2.972656 -3.382812 -2.367188 -3.992188 -1.390625 -4.515625 C -0.515625 -4.972656 0.207031 -5.519531 0.78125 -6.15625 C 1.363281 -6.800781 1.859375 -7.816406 2.265625 -9.203125 L 9.8125 -34.296875 C 9.988281 -34.816406 10.078125 -35.253906 10.078125 -35.609375 C 10.078125 -36.242188 9.929688 -36.75 9.640625 -37.125 C 9.347656 -37.5 8.914062 -37.890625 8.34375 -38.296875 C 7.757812 -38.765625 7.351562 -39.171875 7.125 -39.515625 C 6.894531 -39.859375 6.867188 -40.320312 7.046875 -40.90625 C 7.390625 -42.238281 9.207031 -43.410156 12.5 -44.421875 C 15.800781 -45.429688 19.25 -45.9375 22.84375 -45.9375 Z M 28.671875 -65.125 C 30.921875 -65.125 32.796875 -64.382812 34.296875 -62.90625 C 35.804688 -61.4375 36.5625 -59.628906 36.5625 -57.484375 C 36.5625 -55.984375 36.171875 -54.507812 35.390625 -53.0625 C 34.609375 -51.613281 33.507812 -50.441406 32.09375 -49.546875 C 30.675781 -48.648438 29.097656 -48.203125 27.359375 -48.203125 C 25.160156 -48.203125 23.320312 -48.9375 21.84375 -50.40625 C 20.375 -51.882812 19.609375 -53.722656 19.546875 -55.921875 C 19.546875 -57.367188 19.921875 -58.800781 20.671875 -60.21875 C 21.421875 -61.644531 22.488281 -62.816406 23.875 -63.734375 C 25.269531 -64.660156 26.867188 -65.125 28.671875 -65.125 Z M 28.671875 -65.125 "/></g></g></g><g fill="#ffffff" fill-opacity="1"><g transform="translate(475.165215, 110.207203)"><g><path d="M 38.8125 -44.8125 C 39.914062 -44.8125 40.769531 -44.578125 41.375 -44.109375 C 41.988281 -43.648438 42.296875 -43.015625 42.296875 -42.203125 C 42.296875 -41.972656 42.238281 -41.566406 42.125 -40.984375 C 41.363281 -38.441406 39.625 -37.171875 36.90625 -37.171875 L 31.875 -37.171875 L 25.359375 -15.71875 C 25.066406 -14.851562 24.921875 -13.957031 24.921875 -13.03125 C 24.921875 -11.988281 25.207031 -11.265625 25.78125 -10.859375 C 26.363281 -10.453125 27.175781 -10.25 28.21875 -10.25 C 29.144531 -10.25 30.304688 -10.363281 31.703125 -10.59375 C 32.390625 -10.769531 32.992188 -10.859375 33.515625 -10.859375 C 33.921875 -10.859375 34.222656 -10.726562 34.421875 -10.46875 C 34.628906 -10.207031 34.734375 -9.875 34.734375 -9.46875 C 34.796875 -8.3125 33.941406 -6.90625 32.171875 -5.25 C 30.410156 -3.601562 28.023438 -2.1875 25.015625 -1 C 22.003906 0.1875 18.675781 0.78125 15.03125 0.78125 C 11.09375 0.78125 7.9375 -0.113281 5.5625 -1.90625 C 3.1875 -3.707031 2 -6.171875 2 -9.296875 C 2 -10.742188 2.226562 -12.128906 2.6875 -13.453125 L 8.25 -30.65625 C 8.539062 -31.632812 8.6875 -32.414062 8.6875 -33 C 8.6875 -34.15625 8.410156 -35.140625 7.859375 -35.953125 C 7.304688 -36.765625 6.539062 -37.601562 5.5625 -38.46875 C 4.6875 -39.28125 4.078125 -39.960938 3.734375 -40.515625 C 3.390625 -41.066406 3.300781 -41.71875 3.46875 -42.46875 C 3.707031 -43.21875 4.203125 -43.796875 4.953125 -44.203125 C 5.703125 -44.609375 6.890625 -44.8125 8.515625 -44.8125 L 13.375 -44.8125 L 18.84375 -50.28125 C 20.75 -52.1875 22.5 -53.515625 24.09375 -54.265625 C 25.6875 -55.023438 27.757812 -55.40625 30.3125 -55.40625 C 33.957031 -55.40625 35.78125 -54.015625 35.78125 -51.234375 C 35.78125 -50.367188 35.664062 -49.5625 35.4375 -48.8125 L 34.21875 -44.8125 Z M 38.8125 -44.8125 "/></g></g></g><g fill="#ffffff" fill-opacity="1"><g transform="translate(512.510109, 110.207203)"><g><path d="M 29.4375 -46.375 C 36.789062 -46.375 42.117188 -45.203125 45.421875 -42.859375 C 48.722656 -40.515625 50.375 -37.519531 50.375 -33.875 C 50.375 -32.769531 50.253906 -31.753906 50.015625 -30.828125 C 49.148438 -27.003906 46.734375 -24.265625 42.765625 -22.609375 C 38.804688 -20.960938 34.132812 -20.140625 28.75 -20.140625 C 26.019531 -20.140625 23.472656 -20.316406 21.109375 -20.671875 C 21.046875 -17.660156 21.851562 -15.546875 23.53125 -14.328125 C 25.207031 -13.109375 27.550781 -12.5 30.5625 -12.5 C 31.957031 -12.5 33.289062 -12.65625 34.5625 -12.96875 C 35.832031 -13.289062 37.453125 -13.773438 39.421875 -14.421875 C 41.046875 -14.992188 42.148438 -15.28125 42.734375 -15.28125 C 43.367188 -15.28125 43.6875 -14.90625 43.6875 -14.15625 C 43.738281 -12.125 42.984375 -9.992188 41.421875 -7.765625 C 39.859375 -5.535156 37.539062 -3.640625 34.46875 -2.078125 C 31.40625 -0.515625 27.703125 0.265625 23.359375 0.265625 C 16.929688 0.265625 11.660156 -1.351562 7.546875 -4.59375 C 3.441406 -7.84375 1.390625 -12.566406 1.390625 -18.765625 C 1.390625 -20.492188 1.617188 -22.519531 2.078125 -24.84375 C 3.523438 -31.957031 6.695312 -37.320312 11.59375 -40.9375 C 16.488281 -44.5625 22.4375 -46.375 29.4375 -46.375 Z M 21.703125 -25.875 C 21.941406 -25.820312 22.265625 -25.796875 22.671875 -25.796875 C 25.097656 -25.796875 26.945312 -26.921875 28.21875 -29.171875 C 29.5 -31.429688 30.109375 -33.953125 30.046875 -36.734375 C 29.992188 -38.359375 29.53125 -39.171875 28.65625 -39.171875 C 28.019531 -39.171875 27.265625 -38.660156 26.390625 -37.640625 C 25.523438 -36.628906 24.671875 -35.109375 23.828125 -33.078125 C 22.992188 -31.054688 22.285156 -28.65625 21.703125 -25.875 Z M 21.703125 -25.875 "/></g></g></g></svg>