<svg xmlns="http://www.w3.org/2000/svg" xmlns:xlink="http://www.w3.org/1999/xlink" width="950" zoomAndPan="magnify" viewBox="0 0 712.5 165.000002" height="220" preserveAspectRatio="xMidYMid meet" version="1.0"><defs><g/><clipPath id="5c1ce8f18e"><path d="M 653 43 L 710.105469 43 L 710.105469 107 L 653 107 Z M 653 43 " clip-rule="nonzero"/></clipPath></defs><g fill="#ffffff" fill-opacity="1"><g transform="translate(4.040847, 106.603917)"><g><path d="M 68.34375 -56.828125 C 71.476562 -56.828125 73.046875 -55.546875 73.046875 -52.984375 C 73.046875 -52.191406 72.875 -51.195312 72.53125 -50 L 70.484375 -43.09375 C 69.859375 -40.988281 69.085938 -39.507812 68.171875 -38.65625 C 67.265625 -37.800781 65.957031 -37.375 64.25 -37.375 C 62.832031 -37.375 61.738281 -37.742188 60.96875 -38.484375 C 60.195312 -39.222656 59.472656 -40.390625 58.796875 -41.984375 L 57.34375 -45.484375 C 56.882812 -46.554688 56.398438 -47.289062 55.890625 -47.6875 C 55.378906 -48.09375 54.582031 -48.296875 53.5 -48.296875 L 51.53125 -48.296875 L 40.703125 -10.15625 C 40.535156 -9.414062 40.453125 -8.757812 40.453125 -8.1875 C 40.453125 -7.507812 40.550781 -6.941406 40.75 -6.484375 C 40.945312 -6.023438 41.242188 -5.539062 41.640625 -5.03125 C 42.148438 -4.238281 42.40625 -3.585938 42.40625 -3.078125 C 42.40625 -2.960938 42.347656 -2.675781 42.234375 -2.21875 C 41.953125 -1.476562 41.398438 -0.9375 40.578125 -0.59375 C 39.753906 -0.25 38.570312 -0.078125 37.03125 -0.078125 L 16.984375 -0.078125 C 15.785156 -0.078125 14.859375 -0.273438 14.203125 -0.671875 C 13.546875 -1.078125 13.21875 -1.648438 13.21875 -2.390625 C 13.21875 -2.734375 13.304688 -3.070312 13.484375 -3.40625 C 13.710938 -3.925781 13.984375 -4.3125 14.296875 -4.5625 C 14.609375 -4.820312 15.078125 -5.148438 15.703125 -5.546875 C 16.554688 -6.054688 17.265625 -6.625 17.828125 -7.25 C 18.398438 -7.875 18.882812 -8.84375 19.28125 -10.15625 L 30.03125 -48.296875 L 28.078125 -48.296875 C 26.828125 -48.296875 25.800781 -48.09375 25 -47.6875 C 24.207031 -47.289062 23.351562 -46.554688 22.4375 -45.484375 L 19.625 -41.984375 C 18.3125 -40.441406 17.046875 -39.285156 15.828125 -38.515625 C 14.609375 -37.753906 13.285156 -37.375 11.859375 -37.375 C 10.546875 -37.375 9.519531 -37.710938 8.78125 -38.390625 C 8.039062 -39.078125 7.671875 -40.019531 7.671875 -41.21875 C 7.671875 -41.78125 7.757812 -42.40625 7.9375 -43.09375 L 10.15625 -50.859375 C 10.613281 -52.453125 11.125 -53.660156 11.6875 -54.484375 C 12.257812 -55.304688 13.070312 -55.898438 14.125 -56.265625 C 15.175781 -56.640625 16.664062 -56.828125 18.59375 -56.828125 Z M 68.34375 -56.828125 "/></g></g></g><g fill="#ffffff" fill-opacity="1"><g transform="translate(68.792006, 106.603917)"><g><path d="M 33.015625 -45.140625 C 40.753906 -45.140625 46.457031 -43.570312 50.125 -40.4375 C 53.800781 -37.3125 55.640625 -33.21875 55.640625 -28.15625 C 55.640625 -26.445312 55.410156 -24.539062 54.953125 -22.4375 C 53.867188 -17.769531 51.847656 -13.6875 48.890625 -10.1875 C 45.929688 -6.695312 42.304688 -4 38.015625 -2.09375 C 33.722656 -0.1875 29.070312 0.765625 24.0625 0.765625 C 16.15625 0.765625 10.3125 -0.8125 6.53125 -3.96875 C 2.75 -7.125 0.859375 -11.316406 0.859375 -16.546875 C 0.859375 -18.316406 1.082031 -20.28125 1.53125 -22.4375 C 2.613281 -26.875 4.675781 -30.8125 7.71875 -34.25 C 10.757812 -37.695312 14.484375 -40.375 18.890625 -42.28125 C 23.304688 -44.1875 28.015625 -45.140625 33.015625 -45.140625 Z M 32.765625 -37.546875 C 31.566406 -37.546875 30.300781 -36.476562 28.96875 -34.34375 C 27.632812 -32.207031 26.054688 -28.179688 24.234375 -22.265625 C 22.410156 -16.347656 21.5 -12.195312 21.5 -9.8125 C 21.5 -8.5625 21.695312 -7.722656 22.09375 -7.296875 C 22.5 -6.867188 23.039062 -6.65625 23.71875 -6.65625 C 24.914062 -6.539062 26.15625 -7.5625 27.4375 -9.71875 C 28.71875 -11.882812 30.320312 -16.097656 32.25 -22.359375 C 34.019531 -27.867188 34.90625 -31.878906 34.90625 -34.390625 C 34.90625 -35.578125 34.71875 -36.398438 34.34375 -36.859375 C 33.976562 -37.316406 33.453125 -37.546875 32.765625 -37.546875 Z M 32.765625 -37.546875 "/></g></g></g><g fill="#ffffff" fill-opacity="1"><g transform="translate(124.756123, 106.603917)"><g><path d="M 81.140625 -11.78125 C 81.023438 -11.550781 80.96875 -11.207031 80.96875 -10.75 C 80.96875 -10.351562 81.066406 -10.039062 81.265625 -9.8125 C 81.472656 -9.582031 81.742188 -9.46875 82.078125 -9.46875 C 82.765625 -9.46875 83.347656 -9.765625 83.828125 -10.359375 C 84.316406 -10.960938 84.644531 -11.265625 84.8125 -11.265625 C 85.101562 -11.265625 85.332031 -11.078125 85.5 -10.703125 C 85.664062 -10.335938 85.75 -9.898438 85.75 -9.390625 C 85.8125 -7.734375 85.269531 -6.125 84.125 -4.5625 C 82.988281 -3 81.328125 -1.71875 79.140625 -0.71875 C 76.953125 0.269531 74.320312 0.765625 71.25 0.765625 C 67.5 0.765625 64.515625 -0.0976562 62.296875 -1.828125 C 60.078125 -3.566406 58.9375 -5.882812 58.875 -8.78125 C 58.875 -10.894531 59.382812 -13.257812 60.40625 -15.875 L 65.109375 -28.15625 C 65.390625 -28.894531 65.53125 -29.492188 65.53125 -29.953125 C 65.53125 -30.691406 65.285156 -31.273438 64.796875 -31.703125 C 64.316406 -32.128906 63.738281 -32.34375 63.0625 -32.34375 C 62.09375 -32.34375 61.09375 -31.914062 60.0625 -31.0625 C 59.039062 -30.207031 58.132812 -28.867188 57.34375 -27.046875 L 52.640625 -11.78125 C 52.535156 -11.550781 52.484375 -11.207031 52.484375 -10.75 C 52.484375 -10.351562 52.582031 -10.039062 52.78125 -9.8125 C 52.976562 -9.582031 53.25 -9.46875 53.59375 -9.46875 C 54.269531 -9.46875 54.847656 -9.765625 55.328125 -10.359375 C 55.816406 -10.960938 56.144531 -11.265625 56.3125 -11.265625 C 56.601562 -11.265625 56.832031 -11.078125 57 -10.703125 C 57.164062 -10.335938 57.25 -9.898438 57.25 -9.390625 C 57.3125 -7.734375 56.769531 -6.125 55.625 -4.5625 C 54.488281 -3 52.828125 -1.71875 50.640625 -0.71875 C 48.453125 0.269531 45.820312 0.765625 42.75 0.765625 C 39 0.765625 36.015625 -0.0976562 33.796875 -1.828125 C 31.578125 -3.566406 30.4375 -5.882812 30.375 -8.78125 C 30.375 -10.894531 30.882812 -13.257812 31.90625 -15.875 L 36.609375 -28.15625 C 36.890625 -28.894531 37.03125 -29.492188 37.03125 -29.953125 C 37.03125 -30.691406 36.785156 -31.273438 36.296875 -31.703125 C 35.816406 -32.128906 35.238281 -32.34375 34.5625 -32.34375 C 33.59375 -32.34375 32.59375 -31.925781 31.5625 -31.09375 C 30.539062 -30.269531 29.691406 -28.953125 29.015625 -27.140625 L 23.375 -8.875 C 23.144531 -8.25 23.03125 -7.648438 23.03125 -7.078125 C 23.03125 -6.398438 23.171875 -5.847656 23.453125 -5.421875 C 23.742188 -4.992188 24.144531 -4.550781 24.65625 -4.09375 C 25.050781 -3.75 25.332031 -3.4375 25.5 -3.15625 C 25.675781 -2.875 25.707031 -2.535156 25.59375 -2.140625 C 25.363281 -1.398438 24.820312 -0.859375 23.96875 -0.515625 C 23.125 -0.171875 21.789062 0 19.96875 0 L 0.515625 0 C -0.960938 0 -2.03125 -0.238281 -2.6875 -0.71875 C -3.34375 -1.207031 -3.582031 -1.847656 -3.40625 -2.640625 C -3.1875 -3.328125 -2.59375 -3.925781 -1.625 -4.4375 C -0.769531 -4.894531 -0.0625 -5.4375 0.5 -6.0625 C 1.070312 -6.6875 1.5625 -7.679688 1.96875 -9.046875 L 9.5625 -33.703125 C 9.675781 -33.984375 9.734375 -34.382812 9.734375 -34.90625 C 9.734375 -35.53125 9.601562 -36.007812 9.34375 -36.34375 C 9.082031 -36.6875 8.671875 -37.113281 8.109375 -37.625 C 7.535156 -38.082031 7.132812 -38.484375 6.90625 -38.828125 C 6.675781 -39.171875 6.648438 -39.625 6.828125 -40.1875 C 7.171875 -41.5 8.960938 -42.648438 12.203125 -43.640625 C 15.441406 -44.640625 18.828125 -45.140625 22.359375 -45.140625 C 25.140625 -45.140625 27.34375 -44.367188 28.96875 -42.828125 C 30.59375 -41.296875 31.375 -39.191406 31.3125 -36.515625 C 33.644531 -39.765625 36.101562 -42.015625 38.6875 -43.265625 C 41.28125 -44.515625 44.082031 -45.140625 47.09375 -45.140625 C 50.394531 -45.140625 53.082031 -44.1875 55.15625 -42.28125 C 57.238281 -40.375 58.394531 -37.882812 58.625 -34.8125 C 61.070312 -38.675781 63.6875 -41.363281 66.46875 -42.875 C 69.257812 -44.382812 72.300781 -45.140625 75.59375 -45.140625 C 79.070312 -45.140625 81.875 -44.085938 84 -41.984375 C 86.132812 -39.878906 87.203125 -37.148438 87.203125 -33.796875 C 87.203125 -32.023438 86.921875 -30.285156 86.359375 -28.578125 Z M 81.140625 -11.78125 "/></g></g></g><g fill="#ffffff" fill-opacity="1"><g transform="translate(214.162207, 106.603917)"><g><path d="M 33.015625 -45.140625 C 40.753906 -45.140625 46.457031 -43.570312 50.125 -40.4375 C 53.800781 -37.3125 55.640625 -33.21875 55.640625 -28.15625 C 55.640625 -26.445312 55.410156 -24.539062 54.953125 -22.4375 C 53.867188 -17.769531 51.847656 -13.6875 48.890625 -10.1875 C 45.929688 -6.695312 42.304688 -4 38.015625 -2.09375 C 33.722656 -0.1875 29.070312 0.765625 24.0625 0.765625 C 16.15625 0.765625 10.3125 -0.8125 6.53125 -3.96875 C 2.75 -7.125 0.859375 -11.316406 0.859375 -16.546875 C 0.859375 -18.316406 1.082031 -20.28125 1.53125 -22.4375 C 2.613281 -26.875 4.675781 -30.8125 7.71875 -34.25 C 10.757812 -37.695312 14.484375 -40.375 18.890625 -42.28125 C 23.304688 -44.1875 28.015625 -45.140625 33.015625 -45.140625 Z M 32.765625 -37.546875 C 31.566406 -37.546875 30.300781 -36.476562 28.96875 -34.34375 C 27.632812 -32.207031 26.054688 -28.179688 24.234375 -22.265625 C 22.410156 -16.347656 21.5 -12.195312 21.5 -9.8125 C 21.5 -8.5625 21.695312 -7.722656 22.09375 -7.296875 C 22.5 -6.867188 23.039062 -6.65625 23.71875 -6.65625 C 24.914062 -6.539062 26.15625 -7.5625 27.4375 -9.71875 C 28.71875 -11.882812 30.320312 -16.097656 32.25 -22.359375 C 34.019531 -27.867188 34.90625 -31.878906 34.90625 -34.390625 C 34.90625 -35.578125 34.71875 -36.398438 34.34375 -36.859375 C 33.976562 -37.316406 33.453125 -37.546875 32.765625 -37.546875 Z M 32.765625 -37.546875 "/></g></g></g><g fill="#ffffff" fill-opacity="1"><g transform="translate(270.126335, 106.603917)"><g><path d="M 41.890625 -45.140625 C 45.078125 -45.140625 47.625 -44.171875 49.53125 -42.234375 C 51.4375 -40.304688 52.390625 -37.914062 52.390625 -35.0625 C 52.390625 -33.988281 52.273438 -32.992188 52.046875 -32.078125 C 51.484375 -29.742188 50.40625 -27.953125 48.8125 -26.703125 C 47.21875 -25.453125 45.3125 -24.828125 43.09375 -24.828125 C 40.925781 -24.828125 39.285156 -25.335938 38.171875 -26.359375 C 37.066406 -27.390625 36.085938 -28.757812 35.234375 -30.46875 C 34.785156 -31.425781 34.359375 -32.132812 33.953125 -32.59375 C 33.554688 -33.050781 33.101562 -33.28125 32.59375 -33.28125 C 32.019531 -33.28125 31.519531 -33.050781 31.09375 -32.59375 C 30.675781 -32.132812 30.296875 -31.335938 29.953125 -30.203125 L 23.375 -8.875 C 23.257812 -8.59375 23.203125 -8.164062 23.203125 -7.59375 C 23.203125 -6.851562 23.414062 -6.238281 23.84375 -5.75 C 24.269531 -5.269531 24.851562 -4.804688 25.59375 -4.359375 C 26.28125 -3.898438 26.738281 -3.523438 26.96875 -3.234375 C 27.195312 -2.953125 27.28125 -2.585938 27.21875 -2.140625 C 27.101562 -1.398438 26.691406 -0.859375 25.984375 -0.515625 C 25.273438 -0.171875 24.066406 0 22.359375 0 L 0.515625 0 C -0.960938 0 -2.03125 -0.238281 -2.6875 -0.71875 C -3.34375 -1.207031 -3.582031 -1.847656 -3.40625 -2.640625 C -3.1875 -3.328125 -2.59375 -3.925781 -1.625 -4.4375 C -0.769531 -4.894531 -0.0625 -5.4375 0.5 -6.0625 C 1.070312 -6.6875 1.5625 -7.679688 1.96875 -9.046875 L 9.5625 -33.703125 C 9.675781 -33.984375 9.734375 -34.382812 9.734375 -34.90625 C 9.734375 -35.53125 9.601562 -36.007812 9.34375 -36.34375 C 9.082031 -36.6875 8.671875 -37.113281 8.109375 -37.625 C 7.535156 -38.082031 7.132812 -38.484375 6.90625 -38.828125 C 6.675781 -39.171875 6.648438 -39.625 6.828125 -40.1875 C 7.171875 -41.5 8.960938 -42.648438 12.203125 -43.640625 C 15.441406 -44.640625 18.828125 -45.140625 22.359375 -45.140625 C 24.691406 -45.140625 26.625 -44.613281 28.15625 -43.5625 C 29.695312 -42.507812 30.691406 -41.015625 31.140625 -39.078125 C 33.867188 -43.117188 37.453125 -45.140625 41.890625 -45.140625 Z M 41.890625 -45.140625 "/></g></g></g><g fill="#ffffff" fill-opacity="1"><g transform="translate(319.521472, 106.603917)"><g><path d="M 41.890625 -45.140625 C 45.078125 -45.140625 47.625 -44.171875 49.53125 -42.234375 C 51.4375 -40.304688 52.390625 -37.914062 52.390625 -35.0625 C 52.390625 -33.988281 52.273438 -32.992188 52.046875 -32.078125 C 51.484375 -29.742188 50.40625 -27.953125 48.8125 -26.703125 C 47.21875 -25.453125 45.3125 -24.828125 43.09375 -24.828125 C 40.925781 -24.828125 39.285156 -25.335938 38.171875 -26.359375 C 37.066406 -27.390625 36.085938 -28.757812 35.234375 -30.46875 C 34.785156 -31.425781 34.359375 -32.132812 33.953125 -32.59375 C 33.554688 -33.050781 33.101562 -33.28125 32.59375 -33.28125 C 32.019531 -33.28125 31.519531 -33.050781 31.09375 -32.59375 C 30.675781 -32.132812 30.296875 -31.335938 29.953125 -30.203125 L 23.375 -8.875 C 23.257812 -8.59375 23.203125 -8.164062 23.203125 -7.59375 C 23.203125 -6.851562 23.414062 -6.238281 23.84375 -5.75 C 24.269531 -5.269531 24.851562 -4.804688 25.59375 -4.359375 C 26.28125 -3.898438 26.738281 -3.523438 26.96875 -3.234375 C 27.195312 -2.953125 27.28125 -2.585938 27.21875 -2.140625 C 27.101562 -1.398438 26.691406 -0.859375 25.984375 -0.515625 C 25.273438 -0.171875 24.066406 0 22.359375 0 L 0.515625 0 C -0.960938 0 -2.03125 -0.238281 -2.6875 -0.71875 C -3.34375 -1.207031 -3.582031 -1.847656 -3.40625 -2.640625 C -3.1875 -3.328125 -2.59375 -3.925781 -1.625 -4.4375 C -0.769531 -4.894531 -0.0625 -5.4375 0.5 -6.0625 C 1.070312 -6.6875 1.5625 -7.679688 1.96875 -9.046875 L 9.5625 -33.703125 C 9.675781 -33.984375 9.734375 -34.382812 9.734375 -34.90625 C 9.734375 -35.53125 9.601562 -36.007812 9.34375 -36.34375 C 9.082031 -36.6875 8.671875 -37.113281 8.109375 -37.625 C 7.535156 -38.082031 7.132812 -38.484375 6.90625 -38.828125 C 6.675781 -39.171875 6.648438 -39.625 6.828125 -40.1875 C 7.171875 -41.5 8.960938 -42.648438 12.203125 -43.640625 C 15.441406 -44.640625 18.828125 -45.140625 22.359375 -45.140625 C 24.691406 -45.140625 26.625 -44.613281 28.15625 -43.5625 C 29.695312 -42.507812 30.691406 -41.015625 31.140625 -39.078125 C 33.867188 -43.117188 37.453125 -45.140625 41.890625 -45.140625 Z M 41.890625 -45.140625 "/></g></g></g><g fill="#ffffff" fill-opacity="1"><g transform="translate(368.91661, 106.603917)"><g><path d="M 33.015625 -45.140625 C 40.753906 -45.140625 46.457031 -43.570312 50.125 -40.4375 C 53.800781 -37.3125 55.640625 -33.21875 55.640625 -28.15625 C 55.640625 -26.445312 55.410156 -24.539062 54.953125 -22.4375 C 53.867188 -17.769531 51.847656 -13.6875 48.890625 -10.1875 C 45.929688 -6.695312 42.304688 -4 38.015625 -2.09375 C 33.722656 -0.1875 29.070312 0.765625 24.0625 0.765625 C 16.15625 0.765625 10.3125 -0.8125 6.53125 -3.96875 C 2.75 -7.125 0.859375 -11.316406 0.859375 -16.546875 C 0.859375 -18.316406 1.082031 -20.28125 1.53125 -22.4375 C 2.613281 -26.875 4.675781 -30.8125 7.71875 -34.25 C 10.757812 -37.695312 14.484375 -40.375 18.890625 -42.28125 C 23.304688 -44.1875 28.015625 -45.140625 33.015625 -45.140625 Z M 32.765625 -37.546875 C 31.566406 -37.546875 30.300781 -36.476562 28.96875 -34.34375 C 27.632812 -32.207031 26.054688 -28.179688 24.234375 -22.265625 C 22.410156 -16.347656 21.5 -12.195312 21.5 -9.8125 C 21.5 -8.5625 21.695312 -7.722656 22.09375 -7.296875 C 22.5 -6.867188 23.039062 -6.65625 23.71875 -6.65625 C 24.914062 -6.539062 26.15625 -7.5625 27.4375 -9.71875 C 28.71875 -11.882812 30.320312 -16.097656 32.25 -22.359375 C 34.019531 -27.867188 34.90625 -31.878906 34.90625 -34.390625 C 34.90625 -35.578125 34.71875 -36.398438 34.34375 -36.859375 C 33.976562 -37.316406 33.453125 -37.546875 32.765625 -37.546875 Z M 32.765625 -37.546875 "/></g></g></g><g fill="#ffffff" fill-opacity="1"><g transform="translate(424.880715, 106.603917)"><g><path d="M 80.125 -33.015625 C 80.125 -27.953125 78.359375 -22.773438 74.828125 -17.484375 C 71.304688 -12.203125 66.859375 -7.835938 61.484375 -4.390625 C 56.109375 -0.953125 50.832031 0.765625 45.65625 0.765625 C 41.550781 0.765625 38.078125 0.0546875 35.234375 -1.359375 C 32.390625 -2.785156 30.539062 -4.835938 29.6875 -7.515625 C 27.582031 -4.953125 25.25 -3.015625 22.6875 -1.703125 C 20.132812 -0.398438 17.460938 0.25 14.671875 0.25 C 10.804688 0.25 7.664062 -0.703125 5.25 -2.609375 C 2.832031 -4.515625 1.625 -7.3125 1.625 -11 C 1.625 -12.9375 1.9375 -14.929688 2.5625 -16.984375 L 7.34375 -33.703125 C 7.457031 -34.160156 7.515625 -34.503906 7.515625 -34.734375 C 7.515625 -35.296875 7.367188 -35.773438 7.078125 -36.171875 C 6.796875 -36.578125 6.398438 -37.003906 5.890625 -37.453125 C 5.035156 -38.191406 4.609375 -38.847656 4.609375 -39.421875 C 4.546875 -40.210938 5.023438 -41.0625 6.046875 -41.96875 C 7.078125 -42.882812 8.515625 -43.640625 10.359375 -44.234375 C 12.210938 -44.835938 14.304688 -45.140625 16.640625 -45.140625 C 20.453125 -45.140625 23.421875 -44.210938 25.546875 -42.359375 C 27.679688 -40.515625 28.75 -38.113281 28.75 -35.15625 C 28.75 -33.84375 28.523438 -32.421875 28.078125 -30.890625 L 23.71875 -16.390625 C 23.488281 -15.585938 23.375 -15.046875 23.375 -14.765625 C 23.375 -14.023438 23.585938 -13.453125 24.015625 -13.046875 C 24.441406 -12.648438 25.023438 -12.453125 25.765625 -12.453125 C 26.796875 -12.453125 27.664062 -12.804688 28.375 -13.515625 C 29.082031 -14.234375 29.78125 -15.390625 30.46875 -16.984375 L 35.328125 -33.703125 C 35.441406 -34.160156 35.5 -34.503906 35.5 -34.734375 C 35.5 -35.296875 35.351562 -35.773438 35.0625 -36.171875 C 34.78125 -36.578125 34.382812 -37.003906 33.875 -37.453125 C 33.019531 -38.191406 32.59375 -38.847656 32.59375 -39.421875 C 32.539062 -40.210938 33.023438 -41.0625 34.046875 -41.96875 C 35.066406 -42.882812 36.5 -43.640625 38.34375 -44.234375 C 40.195312 -44.835938 42.289062 -45.140625 44.625 -45.140625 C 48.488281 -45.140625 51.472656 -44.226562 53.578125 -42.40625 C 55.691406 -40.582031 56.75 -38.164062 56.75 -35.15625 C 56.75 -33.957031 56.519531 -32.535156 56.0625 -30.890625 L 50.515625 -12.625 C 50.398438 -12.34375 50.34375 -11.914062 50.34375 -11.34375 C 50.34375 -10.601562 50.597656 -10.035156 51.109375 -9.640625 C 51.617188 -9.242188 52.332031 -9.046875 53.25 -9.046875 C 54.5 -9.046875 55.960938 -9.597656 57.640625 -10.703125 C 59.316406 -11.816406 60.960938 -13.410156 62.578125 -15.484375 C 64.203125 -17.554688 65.53125 -20.019531 66.5625 -22.875 C 64.28125 -24.863281 62.671875 -26.820312 61.734375 -28.75 C 60.796875 -30.6875 60.328125 -32.679688 60.328125 -34.734375 C 60.328125 -37.628906 61.125 -40.085938 62.71875 -42.109375 C 64.3125 -44.128906 66.613281 -45.140625 69.625 -45.140625 C 72.644531 -45.140625 75.148438 -44.054688 77.140625 -41.890625 C 79.128906 -39.734375 80.125 -36.773438 80.125 -33.015625 Z M 80.125 -33.015625 "/></g></g></g><g fill="#ffffff" fill-opacity="1"><g transform="translate(503.964133, 106.603917)"><g><path d="M 27.21875 -63.0625 C 30.519531 -63.0625 32.953125 -62.429688 34.515625 -61.171875 C 36.078125 -59.921875 36.859375 -58.21875 36.859375 -56.0625 C 36.859375 -54.8125 36.660156 -53.585938 36.265625 -52.390625 L 22.875 -8.875 C 22.695312 -8.1875 22.609375 -7.585938 22.609375 -7.078125 C 22.609375 -6.335938 22.75 -5.753906 23.03125 -5.328125 C 23.320312 -4.898438 23.722656 -4.488281 24.234375 -4.09375 C 24.628906 -3.695312 24.910156 -3.367188 25.078125 -3.109375 C 25.253906 -2.859375 25.285156 -2.535156 25.171875 -2.140625 C 24.890625 -1.398438 24.320312 -0.859375 23.46875 -0.515625 C 22.613281 -0.171875 21.304688 0 19.546875 0 L 0.078125 0 C -1.398438 0 -2.476562 -0.238281 -3.15625 -0.71875 C -3.84375 -1.207031 -4.070312 -1.847656 -3.84375 -2.640625 C -3.613281 -3.328125 -3.015625 -3.925781 -2.046875 -4.4375 C -1.191406 -4.894531 -0.484375 -5.4375 0.078125 -6.0625 C 0.648438 -6.6875 1.132812 -7.679688 1.53125 -9.046875 L 14.5 -51.625 C 14.675781 -52.132812 14.765625 -52.5625 14.765625 -52.90625 C 14.765625 -53.53125 14.609375 -54.039062 14.296875 -54.4375 C 13.984375 -54.832031 13.570312 -55.234375 13.0625 -55.640625 C 12.488281 -56.085938 12.070312 -56.484375 11.8125 -56.828125 C 11.5625 -57.171875 11.519531 -57.625 11.6875 -58.1875 C 12.03125 -59.5 13.820312 -60.640625 17.0625 -61.609375 C 20.300781 -62.578125 23.6875 -63.0625 27.21875 -63.0625 Z M 27.21875 -63.0625 "/></g></g></g><g fill="#ffffff" fill-opacity="1"><g transform="translate(535.188013, 106.603917)"><g><path d="M 30.46875 -45.140625 C 37.007812 -45.140625 42.238281 -43.929688 46.15625 -41.515625 C 50.082031 -39.097656 52.046875 -35.414062 52.046875 -30.46875 C 52.046875 -28.582031 51.707031 -26.445312 51.03125 -24.0625 L 47.53125 -12.28125 C 47.46875 -12.0625 47.4375 -11.78125 47.4375 -11.4375 C 47.4375 -10.519531 47.804688 -10.0625 48.546875 -10.0625 C 49.234375 -10.0625 49.816406 -10.359375 50.296875 -10.953125 C 50.785156 -11.554688 51.113281 -11.859375 51.28125 -11.859375 C 51.5625 -11.859375 51.800781 -11.660156 52 -11.265625 C 52.207031 -10.867188 52.3125 -10.410156 52.3125 -9.890625 C 52.363281 -8.359375 51.773438 -6.796875 50.546875 -5.203125 C 49.328125 -3.609375 47.691406 -2.300781 45.640625 -1.28125 C 43.597656 -0.257812 41.351562 0.25 38.90625 0.25 C 35.945312 0.25 33.414062 -0.285156 31.3125 -1.359375 C 29.207031 -2.441406 27.757812 -4.035156 26.96875 -6.140625 C 25.257812 -4.097656 23.238281 -2.519531 20.90625 -1.40625 C 18.570312 -0.300781 16.066406 0.25 13.390625 0.25 C 10.378906 0.25 7.847656 -0.332031 5.796875 -1.5 C 3.753906 -2.664062 2.234375 -4.171875 1.234375 -6.015625 C 0.242188 -7.859375 -0.25 -9.804688 -0.25 -11.859375 C -0.25 -12.765625 -0.164062 -13.644531 0 -14.5 C 0.90625 -18.425781 2.878906 -21.382812 5.921875 -23.375 C 8.972656 -25.363281 12.601562 -26.359375 16.8125 -26.359375 C 21.53125 -26.359375 26.164062 -25.617188 30.71875 -24.140625 L 32.84375 -29.78125 C 33.582031 -32.164062 33.953125 -34.015625 33.953125 -35.328125 C 33.898438 -36.691406 33.445312 -37.710938 32.59375 -38.390625 C 31.738281 -39.078125 30.429688 -39.421875 28.671875 -39.421875 C 29.015625 -38.515625 29.1875 -37.578125 29.1875 -36.609375 C 29.1875 -34.503906 28.390625 -32.679688 26.796875 -31.140625 C 25.203125 -29.609375 22.925781 -28.84375 19.96875 -28.84375 C 17.175781 -28.84375 15 -29.453125 13.4375 -30.671875 C 11.875 -31.898438 11.09375 -33.421875 11.09375 -35.234375 C 11.09375 -38.078125 12.6875 -40.4375 15.875 -42.3125 C 19.0625 -44.195312 23.925781 -45.140625 30.46875 -45.140625 Z M 25.6875 -19.28125 C 24.09375 -19.28125 22.796875 -18.664062 21.796875 -17.4375 C 20.804688 -16.21875 20.3125 -14.898438 20.3125 -13.484375 C 20.3125 -12.566406 20.523438 -11.820312 20.953125 -11.25 C 21.378906 -10.6875 21.988281 -10.40625 22.78125 -10.40625 C 23.519531 -10.40625 24.328125 -10.703125 25.203125 -11.296875 C 26.085938 -11.898438 26.734375 -12.800781 27.140625 -14 L 28.921875 -19.03125 C 27.953125 -19.195312 26.875 -19.28125 25.6875 -19.28125 Z M 25.6875 -19.28125 "/></g></g></g><g fill="#ffffff" fill-opacity="1"><g transform="translate(590.981491, 106.603917)"><g><path d="M 52.8125 -11.78125 C 52.695312 -11.550781 52.640625 -11.207031 52.640625 -10.75 C 52.640625 -10.351562 52.738281 -10.039062 52.9375 -9.8125 C 53.144531 -9.582031 53.414062 -9.46875 53.75 -9.46875 C 54.4375 -9.46875 55.019531 -9.765625 55.5 -10.359375 C 55.988281 -10.960938 56.316406 -11.265625 56.484375 -11.265625 C 56.765625 -11.265625 56.988281 -11.078125 57.15625 -10.703125 C 57.332031 -10.335938 57.421875 -9.898438 57.421875 -9.390625 C 57.484375 -7.734375 56.941406 -6.125 55.796875 -4.5625 C 54.660156 -3 53 -1.71875 50.8125 -0.71875 C 48.625 0.269531 45.992188 0.765625 42.921875 0.765625 C 39.160156 0.765625 36.171875 -0.0976562 33.953125 -1.828125 C 31.734375 -3.566406 30.597656 -5.882812 30.546875 -8.78125 C 30.546875 -10.894531 31.054688 -13.257812 32.078125 -15.875 L 36.78125 -28.15625 C 37.0625 -28.894531 37.203125 -29.492188 37.203125 -29.953125 C 37.203125 -30.691406 36.957031 -31.273438 36.46875 -31.703125 C 35.988281 -32.128906 35.410156 -32.34375 34.734375 -32.34375 C 33.472656 -32.34375 32.273438 -31.757812 31.140625 -30.59375 C 30.003906 -29.425781 29.179688 -27.988281 28.671875 -26.28125 L 23.375 -8.875 C 23.144531 -8.25 23.03125 -7.648438 23.03125 -7.078125 C 23.03125 -6.398438 23.171875 -5.847656 23.453125 -5.421875 C 23.742188 -4.992188 24.144531 -4.550781 24.65625 -4.09375 C 25.050781 -3.75 25.332031 -3.4375 25.5 -3.15625 C 25.675781 -2.875 25.707031 -2.535156 25.59375 -2.140625 C 25.363281 -1.398438 24.820312 -0.859375 23.96875 -0.515625 C 23.125 -0.171875 21.789062 0 19.96875 0 L 0.515625 0 C -0.960938 0 -2.03125 -0.238281 -2.6875 -0.71875 C -3.34375 -1.207031 -3.582031 -1.847656 -3.40625 -2.640625 C -3.1875 -3.328125 -2.59375 -3.925781 -1.625 -4.4375 C -0.769531 -4.894531 -0.0625 -5.4375 0.5 -6.0625 C 1.070312 -6.6875 1.5625 -7.679688 1.96875 -9.046875 L 9.5625 -33.703125 C 9.675781 -33.984375 9.734375 -34.382812 9.734375 -34.90625 C 9.734375 -35.53125 9.601562 -36.007812 9.34375 -36.34375 C 9.082031 -36.6875 8.671875 -37.113281 8.109375 -37.625 C 7.535156 -38.082031 7.132812 -38.484375 6.90625 -38.828125 C 6.675781 -39.171875 6.648438 -39.625 6.828125 -40.1875 C 7.171875 -41.5 8.960938 -42.648438 12.203125 -43.640625 C 15.441406 -44.640625 18.828125 -45.140625 22.359375 -45.140625 C 25.203125 -45.140625 27.445312 -44.359375 29.09375 -42.796875 C 30.75 -41.234375 31.488281 -39.054688 31.3125 -36.265625 C 33.644531 -39.617188 36.117188 -41.9375 38.734375 -43.21875 C 41.347656 -44.5 44.191406 -45.140625 47.265625 -45.140625 C 50.742188 -45.140625 53.546875 -44.085938 55.671875 -41.984375 C 57.804688 -39.878906 58.875 -37.148438 58.875 -33.796875 C 58.875 -32.023438 58.585938 -30.285156 58.015625 -28.578125 Z M 52.8125 -11.78125 "/></g></g></g><g clip-path="url(#5c1ce8f18e)"><g fill="#ffffff" fill-opacity="1"><g transform="translate(652.064278, 106.603917)"><g><path d="M 47.703125 -12.28125 C 47.585938 -11.832031 47.53125 -11.519531 47.53125 -11.34375 C 47.53125 -10.945312 47.640625 -10.632812 47.859375 -10.40625 C 48.085938 -10.175781 48.375 -10.0625 48.71875 -10.0625 C 49.40625 -10.0625 49.988281 -10.359375 50.46875 -10.953125 C 50.957031 -11.554688 51.285156 -11.859375 51.453125 -11.859375 C 51.734375 -11.859375 51.957031 -11.660156 52.125 -11.265625 C 52.300781 -10.867188 52.390625 -10.410156 52.390625 -9.890625 C 52.453125 -8.359375 51.867188 -6.796875 50.640625 -5.203125 C 49.421875 -3.609375 47.785156 -2.300781 45.734375 -1.28125 C 43.679688 -0.257812 41.460938 0.25 39.078125 0.25 C 36.234375 0.25 33.757812 -0.285156 31.65625 -1.359375 C 29.550781 -2.441406 28.101562 -3.863281 27.3125 -5.625 C 25.769531 -3.632812 24.003906 -2.15625 22.015625 -1.1875 C 20.023438 -0.226562 17.921875 0.25 15.703125 0.25 C 13.085938 0.25 10.65625 -0.398438 8.40625 -1.703125 C 6.15625 -3.015625 4.363281 -4.878906 3.03125 -7.296875 C 1.695312 -9.710938 1.03125 -12.457031 1.03125 -15.53125 C 1.03125 -20.707031 2.007812 -25.582031 3.96875 -30.15625 C 5.925781 -34.738281 8.671875 -38.4375 12.203125 -41.25 C 15.734375 -44.070312 19.742188 -45.484375 24.234375 -45.484375 C 26.679688 -45.484375 28.769531 -45.195312 30.5 -44.625 C 32.238281 -44.050781 33.816406 -43.195312 35.234375 -42.0625 L 38.140625 -51.625 C 38.304688 -52.132812 38.390625 -52.5625 38.390625 -52.90625 C 38.390625 -53.53125 38.234375 -54.039062 37.921875 -54.4375 C 37.609375 -54.832031 37.195312 -55.234375 36.6875 -55.640625 C 36.125 -56.085938 35.710938 -56.484375 35.453125 -56.828125 C 35.191406 -57.171875 35.148438 -57.625 35.328125 -58.1875 C 35.671875 -59.5 37.460938 -60.640625 40.703125 -61.609375 C 43.941406 -62.578125 47.328125 -63.0625 50.859375 -63.0625 C 54.148438 -63.0625 56.578125 -62.429688 58.140625 -61.171875 C 59.710938 -59.921875 60.5 -58.21875 60.5 -56.0625 C 60.5 -54.8125 60.300781 -53.585938 59.90625 -52.390625 Z M 33.453125 -36.265625 C 32.535156 -37.054688 31.539062 -37.453125 30.46875 -37.453125 C 28.8125 -37.453125 27.1875 -36.226562 25.59375 -33.78125 C 24 -31.34375 22.71875 -28.382812 21.75 -24.90625 C 20.789062 -21.4375 20.335938 -18.3125 20.390625 -15.53125 C 20.390625 -12.40625 21.414062 -10.84375 23.46875 -10.84375 C 24.207031 -10.84375 24.832031 -11.140625 25.34375 -11.734375 C 25.851562 -12.328125 26.335938 -13.304688 26.796875 -14.671875 Z M 33.453125 -36.265625 "/></g></g></g></g></svg>